ply
format ascii 1.0
comment Feeney's Flatenator generated
comment TextureFile SpaceInteriors_Texture.png
element vertex 114
property float x
property float y
property float z
property float nx
property float ny
property float nz
property uchar red
property uchar green
property uchar blue
property uchar alpha
element face 38
property list uchar int vertex_indices
end_header
9.73652 4.59234 0.21315 0 0 1.90688 73 77 82 255 
9.65241 4.75648 0.21315 0 0 1.90688 73 77 82 255 
0.263482 0.407659 0.21315 0 0 1.90688 73 77 82 255 
9.73652 4.59234 0.21315 0 0 1.9069 73 77 82 255 
0.263482 0.407659 0.21315 0 0 1.9069 73 77 82 255 
0.347589 0.243515 0.21315 0 0 1.9069 73 77 82 255 
0.263482 0.407659 0.018883 -0.844832 1.82396 0 57 60 64 255 
0.263482 0.407659 0.21315 -0.844832 1.82396 0 57 60 64 255 
9.65241 4.75648 0.21315 -0.844832 1.82396 0 57 60 64 255 
0.263482 0.407659 0.018883 -0.844832 1.82396 0 57 60 64 255 
9.65241 4.75648 0.21315 -0.844832 1.82396 0 57 60 64 255 
9.65241 4.75648 0.018883 -0.844832 1.82396 0 57 60 64 255 
0.347589 0.243515 0.21315 0.844833 -1.82396 0 57 60 64 255 
0.347589 0.243515 0.018883 0.844833 -1.82396 0 57 60 64 255 
9.73652 4.59234 0.018883 0.844833 -1.82396 0 57 60 64 255 
0.347589 0.243515 0.21315 0.844833 -1.82396 0 57 60 64 255 
9.73652 4.59234 0.018883 0.844833 -1.82396 0 57 60 64 255 
9.73652 4.59234 0.21315 0.844833 -1.82396 0 57 60 64 255 
9.65241 0.243515 0.213158 0 -0 1.90692 73 77 82 255 
9.73652 0.407659 0.213158 0 -0 1.90692 73 77 82 255 
0.34759 4.75648 0.213158 0 -0 1.90692 73 77 82 255 
9.65241 0.243515 0.213158 0 0 1.90687 73 77 82 255 
0.34759 4.75648 0.213158 0 0 1.90687 73 77 82 255 
0.263482 4.59234 0.213158 0 0 1.90687 73 77 82 255 
9.73652 0.407659 0.213158 0.844837 1.82397 0 57 60 64 255 
9.73652 0.407659 0.01889 0.844837 1.82397 0 57 60 64 255 
0.34759 4.75648 0.01889 0.844837 1.82397 0 57 60 64 255 
9.73652 0.407659 0.213158 0.844837 1.82397 0 57 60 64 255 
0.34759 4.75648 0.01889 0.844837 1.82397 0 57 60 64 255 
0.34759 4.75648 0.213158 0.844837 1.82397 0 57 60 64 255 
9.65241 0.243515 0.01889 -0.844837 -1.82397 0 57 60 64 255 
9.65241 0.243515 0.213158 -0.844837 -1.82397 0 57 60 64 255 
0.263482 4.59234 0.213158 -0.844837 -1.82397 0 57 60 64 255 
9.65241 0.243515 0.01889 -0.844837 -1.82397 0 57 60 64 255 
0.263482 4.59234 0.213158 -0.844837 -1.82397 0 57 60 64 255 
0.263482 4.59234 0.01889 -0.844837 -1.82397 0 57 60 64 255 
0 5 0 0 0 50 172 167 162 255 
0 0 0 0 0 50 172 167 162 255 
10 0 0 0 0 50 172 167 162 255 
0 5 0 -0 0 50 172 167 162 255 
10 0 0 -0 0 50 172 167 162 255 
10 5 0 -0 0 50 172 167 162 255 
0 5 0.321823 -0 3.21823 0 89 93 100 255 
10 5 0.321823 -0 3.21823 0 89 93 100 255 
10 5 0 -0 3.21823 0 89 93 100 255 
0 5 0.321823 0 3.21823 0 89 93 100 255 
10 5 0 0 3.21823 0 89 93 100 255 
0 5 0 0 3.21823 0 89 93 100 255 
0 0 0 0 -3.21823 0 43 46 49 255 
10 0 0 0 -3.21823 0 43 46 49 255 
10 0 0.321823 0 -3.21823 0 43 46 49 255 
0 0 0 0 -3.21823 0 43 46 49 255 
10 0 0.321823 0 -3.21823 0 43 46 49 255 
0 0 0.321823 0 -3.21823 0 43 46 49 255 
10 0 0.321823 1.60912 0 0 57 60 64 255 
10 0 0 1.60912 0 0 57 60 64 255 
10 5 0 1.60912 0 0 57 60 64 255 
10 0 0.321823 1.60912 -0 0 57 60 64 255 
10 5 0 1.60912 -0 0 57 60 64 255 
10 5 0.321823 1.60912 -0 0 57 60 64 255 
0 0 0 -1.60912 0 0 57 60 64 255 
0 0 0.321823 -1.60912 0 0 57 60 64 255 
0 5 0.321823 -1.60912 0 0 57 60 64 255 
0 0 0 -1.60912 0 0 57 60 64 255 
0 5 0.321823 -1.60912 0 0 57 60 64 255 
0 5 0 -1.60912 0 0 57 60 64 255 
0 0 0.321823 0 0 3.25587 73 77 82 255 
10 0 0.321823 0 0 3.25587 73 77 82 255 
9.69446 0.325587 0.321823 0 0 3.25587 73 77 82 255 
0 0 0.321823 0 0 3.05691 73 77 82 255 
9.69446 0.325587 0.321823 0 0 3.05691 73 77 82 255 
0.305537 0.325587 0.321823 0 0 3.05691 73 77 82 255 
10 0 0.321823 0 -0 1.5277 73 77 82 255 
10 5 0.321823 0 -0 1.5277 73 77 82 255 
9.69446 4.67441 0.321823 0 -0 1.5277 73 77 82 255 
10 0 0.321823 0 0 1.32874 73 77 82 255 
9.69446 4.67441 0.321823 0 0 1.32874 73 77 82 255 
9.69446 0.325587 0.321823 0 0 1.32874 73 77 82 255 
10 5 0.321823 0 0 3.2559 73 77 82 255 
0 5 0.321823 0 0 3.2559 73 77 82 255 
0.305537 4.67441 0.321823 0 0 3.2559 73 77 82 255 
10 5 0.321823 0 0 3.05694 73 77 82 255 
0.305537 4.67441 0.321823 0 0 3.05694 73 77 82 255 
9.69446 4.67441 0.321823 0 0 3.05694 73 77 82 255 
0 5 0.321823 0 0 1.52768 73 77 82 255 
0 0 0.321823 0 0 1.52768 73 77 82 255 
0.305537 0.325587 0.321823 0 0 1.52768 73 77 82 255 
0 5 0.321823 0 0 1.32873 73 77 82 255 
0.305537 0.325587 0.321823 0 0 1.32873 73 77 82 255 
0.305537 4.67441 0.321823 0 0 1.32873 73 77 82 255 
0.305537 0.325587 0.321823 -0 3.02157 0 89 93 100 255 
9.69446 0.325587 0.321823 -0 3.02157 0 89 93 100 255 
9.69446 0.325587 0 -0 3.02157 0 89 93 100 255 
0.305537 0.325587 0.321823 0 3.02157 0 89 93 100 255 
9.69446 0.325587 0 0 3.02157 0 89 93 100 255 
0.305537 0.325587 0 0 3.02157 0 89 93 100 255 
9.69446 0.325587 0.321823 -1.39955 0 0 57 60 64 255 
9.69446 4.67441 0.321823 -1.39955 0 0 57 60 64 255 
9.69446 4.67441 0 -1.39955 0 0 57 60 64 255 
9.69446 0.325587 0.321823 -1.39955 0 0 57 60 64 255 
9.69446 4.67441 0 -1.39955 0 0 57 60 64 255 
9.69446 0.325587 0 -1.39955 0 0 57 60 64 255 
9.69446 4.67441 0.321823 -0 -3.02157 0 73 77 82 255 
0.305537 4.67441 0.321823 -0 -3.02157 0 73 77 82 255 
0.305537 4.67441 0 -0 -3.02157 0 73 77 82 255 
9.69446 4.67441 0.321823 0 -3.02157 -0 73 77 82 255 
0.305537 4.67441 0 0 -3.02157 -0 73 77 82 255 
9.69446 4.67441 0 0 -3.02157 -0 73 77 82 255 
0.305537 4.67441 0.321823 1.39955 0 0 57 60 64 255 
0.305537 0.325587 0.321823 1.39955 0 0 57 60 64 255 
0.305537 0.325587 0 1.39955 0 0 57 60 64 255 
0.305537 4.67441 0.321823 1.39955 0 0 57 60 64 255 
0.305537 0.325587 0 1.39955 0 0 57 60 64 255 
0.305537 4.67441 0 1.39955 0 0 57 60 64 255 
3 0 1 2
3 3 4 5
3 6 7 8
3 9 10 11
3 12 13 14
3 15 16 17
3 18 19 20
3 21 22 23
3 24 25 26
3 27 28 29
3 30 31 32
3 33 34 35
3 36 37 38
3 39 40 41
3 42 43 44
3 45 46 47
3 48 49 50
3 51 52 53
3 54 55 56
3 57 58 59
3 60 61 62
3 63 64 65
3 66 67 68
3 69 70 71
3 72 73 74
3 75 76 77
3 78 79 80
3 81 82 83
3 84 85 86
3 87 88 89
3 90 91 92
3 93 94 95
3 96 97 98
3 99 100 101
3 102 103 104
3 105 106 107
3 108 109 110
3 111 112 113
