ply
format ascii 1.0
comment VCGLIB generated
element vertex 6
property float x
property float y
property float z
property float nx
property float ny
property float nz
property uchar red
property uchar green
property uchar blue
property uchar alpha
element face 2
property list uchar int vertex_indices
end_header
0 0 5 0 25 0 108 105 102 255 
0 0 0 0 25 0 108 105 102 255 
-5 0 0 0 25 0 108 105 102 255 
0 0 5 0 25 0 108 105 102 255 
-5 0 0 0 25 0 108 105 102 255 
-5 0 5 0 25 0 108 105 102 255 
3 0 1 2 
3 3 4 5 
