ply
format ascii 1.0
comment Feeney's Flatenator generated
comment TextureFile SpaceInteriors_Texture.png
element vertex 84
property float x
property float y
property float z
property float nx
property float ny
property float nz
property uchar red
property uchar green
property uchar blue
property uchar alpha
element face 28
property list uchar int vertex_indices
end_header
1.64899 1.70679 0.131945 0 0 0.0544354 69 69 69 255 
1.88792 1.70679 0.131945 0 0 0.0544354 69 69 69 255 
1.88792 1.93462 0.131945 0 0 0.0544354 69 69 69 255 
1.64899 1.70679 0.131945 0 0 0.0544354 69 69 69 255 
1.88792 1.93462 0.131945 0 0 0.0544354 69 69 69 255 
1.64899 1.93462 0.131945 0 0 0.0544354 69 69 69 255 
0 3.64141 0.131945 -0 0.563959 0 233 233 233 255 
2.13706 3.64141 0.131945 -0 0.563959 0 233 233 233 255 
2.13706 3.64141 -0.13195 -0 0.563959 0 233 233 233 255 
0 3.64141 0.131945 0 0.563959 0 233 233 233 255 
2.13706 3.64141 -0.13195 0 0.563959 0 233 233 233 255 
0 3.64141 -0.13195 0 0.563959 0 233 233 233 255 
1.64899 1.93462 -0.13195 0 0 -0.0544354 69 69 69 255 
1.88792 1.93462 -0.13195 0 0 -0.0544354 69 69 69 255 
1.88792 1.70679 -0.13195 0 0 -0.0544354 69 69 69 255 
1.64899 1.93462 -0.13195 0 0 -0.0544354 69 69 69 255 
1.88792 1.70679 -0.13195 0 0 -0.0544354 69 69 69 255 
1.64899 1.70679 -0.13195 0 0 -0.0544354 69 69 69 255 
0 0 -0.13195 0 -0.563959 0 185 185 185 255 
2.13706 0 -0.13195 0 -0.563959 0 185 185 185 255 
2.13706 0 0.131945 0 -0.563959 0 185 185 185 255 
0 0 -0.13195 0 -0.563959 0 185 185 185 255 
2.13706 0 0.131945 0 -0.563959 0 185 185 185 255 
0 0 0.131945 0 -0.563959 0 185 185 185 255 
2.13706 0 0.131945 0.96095 0 0 203 203 203 255 
2.13706 0 -0.13195 0.96095 0 0 203 203 203 255 
2.13706 3.64141 -0.13195 0.96095 0 0 203 203 203 255 
2.13706 0 0.131945 0.96095 -0 0 203 203 203 255 
2.13706 3.64141 -0.13195 0.96095 -0 0 203 203 203 255 
2.13706 3.64141 0.131945 0.96095 -0 0 203 203 203 255 
0 0 -0.13195 -0.96095 0 0 203 203 203 255 
0 0 0.131945 -0.96095 0 0 203 203 203 255 
0 3.64141 0.131945 -0.96095 0 0 203 203 203 255 
0 0 -0.13195 -0.96095 0 0 203 203 203 255 
0 3.64141 0.131945 -0.96095 0 0 203 203 203 255 
0 3.64141 -0.13195 -0.96095 0 0 203 203 203 255 
0 0 0.131945 0 0 3.64751 219 219 219 255 
2.13706 0 0.131945 0 0 3.64751 219 219 219 255 
1.88792 1.70679 0.131945 0 0 3.64751 219 219 219 255 
0 0 0.131945 0 0 0.407803 219 219 219 255 
1.88792 1.70679 0.131945 0 0 0.407803 219 219 219 255 
1.64899 1.70679 0.131945 0 0 0.407803 219 219 219 255 
2.13706 0 0.131945 0 -0 0.907221 219 219 219 255 
2.13706 3.64141 0.131945 0 -0 0.907221 219 219 219 255 
1.88792 1.93462 0.131945 0 -0 0.907221 219 219 219 255 
2.13706 0 0.131945 0 0 0.0567616 219 219 219 255 
1.88792 1.93462 0.131945 0 0 0.0567616 219 219 219 255 
1.88792 1.70679 0.131945 0 0 0.0567616 219 219 219 255 
2.13706 3.64141 0.131945 0 0 3.64751 219 219 219 255 
0 3.64141 0.131945 0 0 3.64751 219 219 219 255 
1.64899 1.93462 0.131945 0 0 3.64751 219 219 219 255 
2.13706 3.64141 0.131945 0 0 0.407803 219 219 219 255 
1.64899 1.93462 0.131945 0 0 0.407803 219 219 219 255 
1.88792 1.93462 0.131945 0 0 0.407803 219 219 219 255 
0 3.64141 0.131945 0 0 6.00465 219 219 219 255 
0 0 0.131945 0 0 6.00465 219 219 219 255 
1.64899 1.70679 0.131945 0 0 6.00465 219 219 219 255 
0 3.64141 0.131945 0 0 0.37569 219 219 219 255 
1.64899 1.70679 0.131945 0 0 0.37569 219 219 219 255 
1.64899 1.93462 0.131945 0 0 0.37569 219 219 219 255 
0 3.64141 -0.13195 0 0 -3.64751 219 219 219 255 
2.13706 3.64141 -0.13195 0 0 -3.64751 219 219 219 255 
1.88792 1.93462 -0.13195 0 0 -3.64751 219 219 219 255 
0 3.64141 -0.13195 0 0 -0.407803 219 219 219 255 
1.88792 1.93462 -0.13195 0 0 -0.407803 219 219 219 255 
1.64899 1.93462 -0.13195 0 0 -0.407803 219 219 219 255 
2.13706 3.64141 -0.13195 0 -0 -0.907221 219 219 219 255 
2.13706 0 -0.13195 0 -0 -0.907221 219 219 219 255 
1.88792 1.70679 -0.13195 0 -0 -0.907221 219 219 219 255 
2.13706 3.64141 -0.13195 0 0 -0.0567616 219 219 219 255 
1.88792 1.70679 -0.13195 0 0 -0.0567616 219 219 219 255 
1.88792 1.93462 -0.13195 0 0 -0.0567616 219 219 219 255 
2.13706 0 -0.13195 0 0 -3.64751 219 219 219 255 
0 0 -0.13195 0 0 -3.64751 219 219 219 255 
1.64899 1.70679 -0.13195 0 0 -3.64751 219 219 219 255 
2.13706 0 -0.13195 0 0 -0.407803 219 219 219 255 
1.64899 1.70679 -0.13195 0 0 -0.407803 219 219 219 255 
1.88792 1.70679 -0.13195 0 0 -0.407803 219 219 219 255 
0 0 -0.13195 0 0 -6.00465 219 219 219 255 
0 3.64141 -0.13195 0 0 -6.00465 219 219 219 255 
1.64899 1.93462 -0.13195 0 0 -6.00465 219 219 219 255 
0 0 -0.13195 0 0 -0.37569 219 219 219 255 
1.64899 1.93462 -0.13195 0 0 -0.37569 219 219 219 255 
1.64899 1.70679 -0.13195 0 0 -0.37569 219 219 219 255 
3 0 1 2
3 3 4 5
3 6 7 8
3 9 10 11
3 12 13 14
3 15 16 17
3 18 19 20
3 21 22 23
3 24 25 26
3 27 28 29
3 30 31 32
3 33 34 35
3 36 37 38
3 39 40 41
3 42 43 44
3 45 46 47
3 48 49 50
3 51 52 53
3 54 55 56
3 57 58 59
3 60 61 62
3 63 64 65
3 66 67 68
3 69 70 71
3 72 73 74
3 75 76 77
3 78 79 80
3 81 82 83
