ply
format ascii 1.0
comment Feeney's Flatenator generated
comment TextureFile SpaceInteriors_Texture.png
element vertex 228
property float x
property float y
property float z
property float nx
property float ny
property float nz
property uchar red
property uchar green
property uchar blue
property uchar alpha
element face 76
property list uchar int vertex_indices
end_header
-0.128586 0.148714 -2.44185 0 0 0.104838 141 137 133 255 
-0.012291 0.148714 -2.44185 0 0 0.104838 141 137 133 255 
-0.012291 1.0502 -2.44185 0 0 0.104838 141 137 133 255 
-0.128586 0.148714 -2.44185 0 0 0.104838 141 137 133 255 
-0.012291 1.0502 -2.44185 0 0 0.104838 141 137 133 255 
-0.128586 1.0502 -2.44185 0 0 0.104838 141 137 133 255 
-0.012291 1.0502 -2.44185 0.104852 0 0 157 152 148 255 
-0.012291 0.148714 -2.44185 0.104852 0 0 157 152 148 255 
-0.012291 0.148714 -2.55816 0.104852 0 0 157 152 148 255 
-0.012291 1.0502 -2.44185 0.104852 0 0 157 152 148 255 
-0.012291 0.148714 -2.55816 0.104852 0 0 157 152 148 255 
-0.012291 1.0502 -2.55816 0.104852 0 0 157 152 148 255 
-0.128586 0.148714 -2.44185 -0.104852 0 0 157 152 148 255 
-0.128586 1.0502 -2.44185 -0.104852 0 0 157 152 148 255 
-0.128586 1.0502 -2.55816 -0.104852 0 0 157 152 148 255 
-0.128586 0.148714 -2.44185 -0.104852 0 0 157 152 148 255 
-0.128586 1.0502 -2.55816 -0.104852 0 0 157 152 148 255 
-0.128586 0.148714 -2.55816 -0.104852 0 0 157 152 148 255 
-0.012291 1.0502 -2.55816 0 -0 -0.104838 141 137 133 255 
-0.012291 0.148714 -2.55816 0 -0 -0.104838 141 137 133 255 
-0.128586 0.148714 -2.55816 0 -0 -0.104838 141 137 133 255 
-0.012291 1.0502 -2.55816 -0 0 -0.104838 141 137 133 255 
-0.128586 0.148714 -2.55816 -0 0 -0.104838 141 137 133 255 
-0.128586 1.0502 -2.55816 -0 0 -0.104838 141 137 133 255 
0 1.19891 0 0 0.704385 0 172 167 162 255 
0 1.19891 -5 0 0.704385 0 172 167 162 255 
-0.140877 1.19891 -5 0 0.704385 0 172 167 162 255 
0 1.19891 0 0 0.704385 0 172 167 162 255 
-0.140877 1.19891 -5 0 0.704385 0 172 167 162 255 
-0.140877 1.19891 0 0 0.704385 0 172 167 162 255 
-0.140877 0 0 0 -0.704385 0 125 121 118 255 
-0.140877 0 -5 0 -0.704385 0 125 121 118 255 
0 0 -5 0 -0.704385 0 125 121 118 255 
-0.140877 0 0 0 -0.704385 0 125 121 118 255 
0 0 -5 0 -0.704385 0 125 121 118 255 
0 0 0 0 -0.704385 0 125 121 118 255 
0 0 -5 0 0 -0.168899 141 137 133 255 
-0.140877 0 -5 0 0 -0.168899 141 137 133 255 
-0.140877 1.19891 -5 0 0 -0.168899 141 137 133 255 
0 0 -5 0 0 -0.168899 141 137 133 255 
-0.140877 1.19891 -5 0 0 -0.168899 141 137 133 255 
0 1.19891 -5 0 0 -0.168899 141 137 133 255 
-0.140877 0 0 0 0 0.168899 157 152 148 255 
0 0 0 0 0 0.168899 157 152 148 255 
0 1.19891 0 0 0 0.168899 157 152 148 255 
-0.140877 0 0 0 0 0.168899 157 152 148 255 
0 1.19891 0 0 0 0.168899 157 152 148 255 
-0.140877 1.19891 0 0 0 0.168899 157 152 148 255 
0 0 0 0.74357 0 0 157 152 148 255 
0 0 -5 0.74357 0 0 157 152 148 255 
0 0.148714 -4.85912 0.74357 0 0 157 152 148 255 
0 0 0 0.350833 0 0 157 152 148 255 
0 0.148714 -4.85912 0.350833 0 0 157 152 148 255 
0 0.148714 -2.50001 0.350833 0 0 157 152 148 255 
0 0 0 0.350834 0 0 157 152 148 255 
0 0.148714 -2.50001 0.350834 0 0 157 152 148 255 
0 0.148714 -0.140892 0.350834 0 0 157 152 148 255 
0 0 -5 0.168903 0 0 157 152 148 255 
0 1.19891 -5 0.168903 0 0 157 152 148 255 
0 1.0502 -4.85912 0.168903 0 0 157 152 148 255 
0 0 -5 0.127001 0 0 157 152 148 255 
0 1.0502 -4.85912 0.127001 0 0 157 152 148 255 
0 0.148714 -4.85912 0.127001 0 0 157 152 148 255 
0 1.19891 -5 0.74355 0 -0 157 152 148 255 
0 1.19891 0 0.74355 0 -0 157 152 148 255 
0 1.0502 -0.140892 0.74355 0 -0 157 152 148 255 
0 1.19891 -5 0.701648 0 0 157 152 148 255 
0 1.0502 -0.140892 0.701648 0 0 157 152 148 255 
0 1.0502 -4.85912 0.701648 0 0 157 152 148 255 
0 1.19891 0 0.168917 0 0 157 152 148 255 
0 0 0 0.168917 0 0 157 152 148 255 
0 0.148714 -0.140892 0.168917 0 0 157 152 148 255 
0 1.19891 0 0.127012 0 0 157 152 148 255 
0 0.148714 -0.140892 0.127012 0 0 157 152 148 255 
0 1.0502 -0.140892 0.127012 0 0 157 152 148 255 
-0.140877 1.19891 0 -0.74355 0 -0 157 152 148 255 
-0.140877 1.19891 -5 -0.74355 0 -0 157 152 148 255 
-0.140877 1.0502 -4.85912 -0.74355 0 -0 157 152 148 255 
-0.140877 1.19891 0 -0.701648 0 0 157 152 148 255 
-0.140877 1.0502 -4.85912 -0.701648 0 0 157 152 148 255 
-0.140877 1.0502 -0.140892 -0.701648 0 0 157 152 148 255 
-0.140877 1.19891 -5 -0.168903 0 0 157 152 148 255 
-0.140877 0 -5 -0.168903 0 0 157 152 148 255 
-0.140877 0.148714 -4.85912 -0.168903 0 0 157 152 148 255 
-0.140877 1.19891 -5 -0.127001 0 0 157 152 148 255 
-0.140877 0.148714 -4.85912 -0.127001 0 0 157 152 148 255 
-0.140877 1.0502 -4.85912 -0.127001 0 0 157 152 148 255 
-0.140877 0 -5 -0.74357 0 0 157 152 148 255 
-0.140877 0 0 -0.74357 0 0 157 152 148 255 
-0.140877 0.148714 -0.140892 -0.74357 0 0 157 152 148 255 
-0.140877 0 -5 -0.701667 0 0 157 152 148 255 
-0.140877 0.148714 -0.140892 -0.701667 0 0 157 152 148 255 
-0.140877 0.148714 -4.85912 -0.701667 0 0 157 152 148 255 
-0.140877 0 0 -0.168917 0 0 141 137 133 255 
-0.140877 1.19891 0 -0.168917 0 0 141 137 133 255 
-0.140877 1.0502 -0.140892 -0.168917 0 0 141 137 133 255 
-0.140877 0 0 -0.127012 0 0 141 137 133 255 
-0.140877 1.0502 -0.140892 -0.127012 0 0 141 137 133 255 
-0.140877 0.148714 -0.140892 -0.127012 0 0 141 137 133 255 
0 1.0502 -4.85912 0 -0.66469 0 125 121 118 255 
0 1.0502 -0.140892 0 -0.66469 0 125 121 118 255 
-0.140877 1.0502 -0.140892 0 -0.66469 0 125 121 118 255 
0 1.0502 -4.85912 0 -0.66469 0 125 121 118 255 
-0.140877 1.0502 -0.140892 0 -0.66469 0 125 121 118 255 
-0.140877 1.0502 -4.85912 0 -0.66469 0 125 121 118 255 
0 1.0502 -0.140892 0 -0 -0.126999 141 137 133 255 
0 0.148714 -0.140892 0 -0 -0.126999 141 137 133 255 
-0.140877 0.148714 -0.140892 0 -0 -0.126999 141 137 133 255 
0 1.0502 -0.140892 -0 0 -0.126999 141 137 133 255 
-0.140877 0.148714 -0.140892 -0 0 -0.126999 141 137 133 255 
-0.140877 1.0502 -0.140892 -0 0 -0.126999 141 137 133 255 
0 1.0502 -4.85912 0 0 0.126999 141 137 133 255 
-0.140877 1.0502 -4.85912 0 0 0.126999 141 137 133 255 
-0.140877 0.148714 -4.85912 0 0 0.126999 141 137 133 255 
0 1.0502 -4.85912 0 0 0.126999 141 137 133 255 
-0.140877 0.148714 -4.85912 0 0 0.126999 141 137 133 255 
0 0.148714 -4.85912 0 0 0.126999 141 137 133 255 
0 0.148714 -4.85912 0 0.66469 0 172 167 162 255 
-0.140877 0.148714 -4.85912 0 0.66469 0 172 167 162 255 
-0.140877 0.148714 -0.140892 0 0.66469 0 172 167 162 255 
0 0.148714 -4.85912 0 0.66469 -0 172 167 162 255 
-0.140877 0.148714 -0.140892 0 0.66469 -0 172 167 162 255 
0 0.148714 -0.140892 0 0.66469 -0 172 167 162 255 
0 0.148714 -4.85912 0 0 0 172 167 162 255 
0 0.148714 -0.140892 0 0 0 172 167 162 255 
0 0.148714 -2.50001 0 0 0 172 167 162 255 
-2.5516 0.148714 -0.12204 -0.0930153 0 0 141 137 133 255 
-2.5516 0.148714 -0.01886 -0.0930153 0 0 141 137 133 255 
-2.5516 1.0502 -0.01886 -0.0930153 0 0 141 137 133 255 
-2.5516 0.148714 -0.12204 -0.0930153 0 0 141 137 133 255 
-2.5516 1.0502 -0.01886 -0.0930153 0 0 141 137 133 255 
-2.5516 1.0502 -0.12204 -0.0930153 0 0 141 137 133 255 
-2.5516 1.0502 -0.01886 0 0 0.0930333 157 152 148 255 
-2.5516 0.148714 -0.01886 0 0 0.0930333 157 152 148 255 
-2.4484 0.148714 -0.01886 0 0 0.0930333 157 152 148 255 
-2.5516 1.0502 -0.01886 -0 0 0.0930333 157 152 148 255 
-2.4484 0.148714 -0.01886 -0 0 0.0930333 157 152 148 255 
-2.4484 1.0502 -0.01886 -0 0 0.0930333 157 152 148 255 
-2.5516 0.148714 -0.12204 0 0 -0.0930333 157 152 148 255 
-2.5516 1.0502 -0.12204 0 0 -0.0930333 157 152 148 255 
-2.4484 1.0502 -0.12204 0 0 -0.0930333 157 152 148 255 
-2.5516 0.148714 -0.12204 0 0 -0.0930333 157 152 148 255 
-2.4484 1.0502 -0.12204 0 0 -0.0930333 157 152 148 255 
-2.4484 0.148714 -0.12204 0 0 -0.0930333 157 152 148 255 
-2.4484 1.0502 -0.01886 0.0930153 0 0 141 137 133 255 
-2.4484 0.148714 -0.01886 0.0930153 0 0 141 137 133 255 
-2.4484 0.148714 -0.12204 0.0930153 0 0 141 137 133 255 
-2.4484 1.0502 -0.01886 0.0930153 0 0 141 137 133 255 
-2.4484 0.148714 -0.12204 0.0930153 0 0 141 137 133 255 
-2.4484 1.0502 -0.12204 0.0930153 0 0 141 137 133 255 
-5.00001 1.19891 -1.5e-05 -0 0.684501 0 172 167 162 255 
-0.140877 1.19891 -1.5e-05 -0 0.684501 0 172 167 162 255 
-0.140877 1.19891 -0.140884 -0 0.684501 0 172 167 162 255 
-5.00001 1.19891 -1.5e-05 0 0.684501 0 172 167 162 255 
-0.140877 1.19891 -0.140884 0 0.684501 0 172 167 162 255 
-5.00001 1.19891 -0.140884 0 0.684501 0 172 167 162 255 
-5.00001 0 -0.140884 0 -0.684501 0 125 121 118 255 
-0.140877 0 -0.140884 0 -0.684501 0 125 121 118 255 
-0.140877 0 -1.5e-05 0 -0.684501 0 125 121 118 255 
-5.00001 0 -0.140884 0 -0.684501 0 125 121 118 255 
-0.140877 0 -1.5e-05 0 -0.684501 0 125 121 118 255 
-5.00001 0 -1.5e-05 0 -0.684501 0 125 121 118 255 
-5.00001 0 -0.140884 -0.168889 0 0 141 137 133 255 
-5.00001 0 -1.5e-05 -0.168889 0 0 141 137 133 255 
-5.00001 1.19891 -1.5e-05 -0.168889 0 0 141 137 133 255 
-5.00001 0 -0.140884 -0.168889 0 0 141 137 133 255 
-5.00001 1.19891 -1.5e-05 -0.168889 0 0 141 137 133 255 
-5.00001 1.19891 -0.140884 -0.168889 0 0 141 137 133 255 
-5.00001 0 -1.5e-05 0 -3.40139e-05 0.722621 157 152 148 255 
-0.140877 0 -1.5e-05 0 -3.40139e-05 0.722621 157 152 148 255 
-0.140884 0.148714 -8e-06 0 -3.40139e-05 0.722621 157 152 148 255 
-5.00001 0 -1.5e-05 0 -1.65138e-05 0.350834 157 152 148 255 
-0.140884 0.148714 -8e-06 0 -1.65138e-05 0.350834 157 152 148 255 
-2.5 0.148714 -8e-06 0 -1.65138e-05 0.350834 157 152 148 255 
-5.00001 0 -1.5e-05 -1.041e-06 9.86301e-07 0.350833 157 152 148 255 
-2.5 0.148714 -8e-06 -1.041e-06 9.86301e-07 0.350833 157 152 148 255 
-4.85911 0.148714 -1.5e-05 -1.041e-06 9.86301e-07 0.350833 157 152 148 255 
-0.140877 1.19891 -1.5e-05 0 0 0.722602 157 152 148 255 
-5.00001 1.19891 -1.5e-05 0 0 0.722602 157 152 148 255 
-4.85911 1.0502 -1.5e-05 0 0 0.722602 157 152 148 255 
-0.140877 1.19891 -1.5e-05 -1.04097e-06 3.30276e-05 0.701648 157 152 148 255 
-4.85911 1.0502 -1.5e-05 -1.04097e-06 3.30276e-05 0.701648 157 152 148 255 
-0.140884 1.0502 -8e-06 -1.04097e-06 3.30276e-05 0.701648 157 152 148 255 
-5.00001 1.19891 -1.5e-05 0 0 0.168927 157 152 148 255 
-5.00001 0 -1.5e-05 0 0 0.168927 157 152 148 255 
-4.85911 0.148714 -1.5e-05 0 0 0.168927 157 152 148 255 
-5.00001 1.19891 -1.5e-05 0 0 0.127019 157 152 148 255 
-4.85911 0.148714 -1.5e-05 0 0 0.127019 157 152 148 255 
-4.85911 1.0502 -1.5e-05 0 0 0.127019 157 152 148 255 
-5.00001 1.19891 -0.140884 0 3.88824e-05 -0.722602 157 152 148 255 
-0.140877 1.19891 -0.140884 0 3.88824e-05 -0.722602 157 152 148 255 
-0.140884 1.0502 -0.140892 0 3.88824e-05 -0.722602 157 152 148 255 
-5.00001 1.19891 -0.140884 -1.18997e-06 -1.12747e-06 -0.701647 157 152 148 255 
-0.140884 1.0502 -0.140892 -1.18997e-06 -1.12747e-06 -0.701647 157 152 148 255 
-4.85911 1.0502 -0.140884 -1.18997e-06 -1.12747e-06 -0.701647 157 152 148 255 
-0.140877 0 -0.140884 0 0 -0.722621 157 152 148 255 
-5.00001 0 -0.140884 0 0 -0.722621 157 152 148 255 
-4.85911 0.148714 -0.140884 0 0 -0.722621 157 152 148 255 
-0.140877 0 -0.140884 -1.19e-06 -3.77549e-05 -0.701666 157 152 148 255 
-4.85911 0.148714 -0.140884 -1.19e-06 -3.77549e-05 -0.701666 157 152 148 255 
-0.140884 0.148714 -0.140892 -1.19e-06 -3.77549e-05 -0.701666 157 152 148 255 
-5.00001 0 -0.140884 0 0 -0.168927 157 152 148 255 
-5.00001 1.19891 -0.140884 0 0 -0.168927 157 152 148 255 
-4.85911 1.0502 -0.140884 0 0 -0.168927 157 152 148 255 
-5.00001 0 -0.140884 0 0 -0.127019 157 152 148 255 
-4.85911 1.0502 -0.140884 0 0 -0.127019 157 152 148 255 
-4.85911 0.148714 -0.140884 0 0 -0.127019 157 152 148 255 
-0.140884 1.0502 -8e-06 0 -0.664652 0 157 152 148 255 
-4.85911 1.0502 -1.5e-05 0 -0.664652 0 157 152 148 255 
-4.85911 1.0502 -0.140884 0 -0.664652 0 157 152 148 255 
-0.140884 1.0502 -8e-06 0 -0.664723 -0 157 152 148 255 
-4.85911 1.0502 -0.140884 0 -0.664723 -0 157 152 148 255 
-0.140884 1.0502 -0.140892 0 -0.664723 -0 157 152 148 255 
-4.85911 1.0502 -1.5e-05 0.126991 0 0 141 137 133 255 
-4.85911 0.148714 -1.5e-05 0.126991 0 0 141 137 133 255 
-4.85911 0.148714 -0.140884 0.126991 0 0 141 137 133 255 
-4.85911 1.0502 -1.5e-05 0.126991 0 0 141 137 133 255 
-4.85911 0.148714 -0.140884 0.126991 0 0 141 137 133 255 
-4.85911 1.0502 -0.140884 0.126991 0 0 141 137 133 255 
-0.140884 0.148714 -8e-06 0 0.664723 0 172 167 162 255 
-0.140884 0.148714 -0.140892 0 0.664723 0 172 167 162 255 
-4.85911 0.148714 -0.140884 0 0.664723 0 172 167 162 255 
-0.140884 0.148714 -8e-06 0 0.664652 0 172 167 162 255 
-4.85911 0.148714 -0.140884 0 0.664652 0 172 167 162 255 
-4.85911 0.148714 -1.5e-05 0 0.664652 0 172 167 162 255 
-0.140884 0.148714 -8e-06 0 1.65138e-05 0 172 167 162 255 
-4.85911 0.148714 -1.5e-05 0 1.65138e-05 0 172 167 162 255 
-2.5 0.148714 -8e-06 0 1.65138e-05 0 172 167 162 255 
3 0 1 2
3 3 4 5
3 6 7 8
3 9 10 11
3 12 13 14
3 15 16 17
3 18 19 20
3 21 22 23
3 24 25 26
3 27 28 29
3 30 31 32
3 33 34 35
3 36 37 38
3 39 40 41
3 42 43 44
3 45 46 47
3 48 49 50
3 51 52 53
3 54 55 56
3 57 58 59
3 60 61 62
3 63 64 65
3 66 67 68
3 69 70 71
3 72 73 74
3 75 76 77
3 78 79 80
3 81 82 83
3 84 85 86
3 87 88 89
3 90 91 92
3 93 94 95
3 96 97 98
3 99 100 101
3 102 103 104
3 105 106 107
3 108 109 110
3 111 112 113
3 114 115 116
3 117 118 119
3 120 121 122
3 123 124 125
3 126 127 128
3 129 130 131
3 132 133 134
3 135 136 137
3 138 139 140
3 141 142 143
3 144 145 146
3 147 148 149
3 150 151 152
3 153 154 155
3 156 157 158
3 159 160 161
3 162 163 164
3 165 166 167
3 168 169 170
3 171 172 173
3 174 175 176
3 177 178 179
3 180 181 182
3 183 184 185
3 186 187 188
3 189 190 191
3 192 193 194
3 195 196 197
3 198 199 200
3 201 202 203
3 204 205 206
3 207 208 209
3 210 211 212
3 213 214 215
3 216 217 218
3 219 220 221
3 222 223 224
3 225 226 227
