ply
format ascii 1.0
comment Feeney's Flatenator generated
comment TextureFile SpaceInteriors_Texture.png
element vertex 126
property float x
property float y
property float z
property float nx
property float ny
property float nz
property uchar red
property uchar green
property uchar blue
property uchar alpha
element face 42
property list uchar int vertex_indices
end_header
-0.127098 0.148714 -2.44334 0 0 0.102155 141 137 133 255 
-0.013779 0.148714 -2.44334 0 0 0.102155 141 137 133 255 
-0.013779 1.0502 -2.44334 0 0 0.102155 141 137 133 255 
-0.127098 0.148714 -2.44334 0 0 0.102155 141 137 133 255 
-0.013779 1.0502 -2.44334 0 0 0.102155 141 137 133 255 
-0.127098 1.0502 -2.44334 0 0 0.102155 141 137 133 255 
-0.013779 1.0502 -2.44334 0.102156 0 0 157 152 148 255 
-0.013779 0.148714 -2.44334 0.102156 0 0 157 152 148 255 
-0.013779 0.148714 -2.55666 0.102156 0 0 157 152 148 255 
-0.013779 1.0502 -2.44334 0.102156 0 0 157 152 148 255 
-0.013779 0.148714 -2.55666 0.102156 0 0 157 152 148 255 
-0.013779 1.0502 -2.55666 0.102156 0 0 157 152 148 255 
-0.127098 0.148714 -2.44334 -0.102156 0 0 157 152 148 255 
-0.127098 1.0502 -2.44334 -0.102156 0 0 157 152 148 255 
-0.127098 1.0502 -2.55666 -0.102156 0 0 157 152 148 255 
-0.127098 0.148714 -2.44334 -0.102156 0 0 157 152 148 255 
-0.127098 1.0502 -2.55666 -0.102156 0 0 157 152 148 255 
-0.127098 0.148714 -2.55666 -0.102156 0 0 157 152 148 255 
-0.013779 1.0502 -2.55666 0 -0 -0.102155 141 137 133 255 
-0.013779 0.148714 -2.55666 0 -0 -0.102155 141 137 133 255 
-0.127098 0.148714 -2.55666 0 -0 -0.102155 141 137 133 255 
-0.013779 1.0502 -2.55666 -0 0 -0.102155 141 137 133 255 
-0.127098 0.148714 -2.55666 -0 0 -0.102155 141 137 133 255 
-0.127098 1.0502 -2.55666 -0 0 -0.102155 141 137 133 255 
0 1.19891 0 0 0.704385 0 172 167 162 255 
0 1.19891 -5 0 0.704385 0 172 167 162 255 
-0.140877 1.19891 -5 0 0.704385 0 172 167 162 255 
0 1.19891 0 0 0.704385 0 172 167 162 255 
-0.140877 1.19891 -5 0 0.704385 0 172 167 162 255 
-0.140877 1.19891 0 0 0.704385 0 172 167 162 255 
-0.140877 0 0 0 -0.704385 0 125 121 118 255 
-0.140877 0 -5 0 -0.704385 0 125 121 118 255 
0 0 -5 0 -0.704385 0 125 121 118 255 
-0.140877 0 0 0 -0.704385 0 125 121 118 255 
0 0 -5 0 -0.704385 0 125 121 118 255 
0 0 0 0 -0.704385 0 125 121 118 255 
0 0 -5 0 0 -0.168899 141 137 133 255 
-0.140877 0 -5 0 0 -0.168899 141 137 133 255 
-0.140877 1.19891 -5 0 0 -0.168899 141 137 133 255 
0 0 -5 0 0 -0.168899 141 137 133 255 
-0.140877 1.19891 -5 0 0 -0.168899 141 137 133 255 
0 1.19891 -5 0 0 -0.168899 141 137 133 255 
-0.140877 0 0 0 0 0.168899 141 137 133 255 
0 0 0 0 0 0.168899 141 137 133 255 
0 1.19891 0 0 0 0.168899 141 137 133 255 
-0.140877 0 0 0 0 0.168899 141 137 133 255 
0 1.19891 0 0 0 0.168899 141 137 133 255 
-0.140877 1.19891 0 0 0 0.168899 141 137 133 255 
0 0 0 0.74357 0 0 157 152 148 255 
0 0 -5 0.74357 0 0 157 152 148 255 
0 0.148714 -4.85912 0.74357 0 0 157 152 148 255 
0 0 0 0.350834 0 0 157 152 148 255 
0 0.148714 -4.85912 0.350834 0 0 157 152 148 255 
0 0.148714 -2.5 0.350834 0 0 157 152 148 255 
0 0 0 0.350832 0 0 157 152 148 255 
0 0.148714 -2.5 0.350832 0 0 157 152 148 255 
0 0.148714 -0.140892 0.350832 0 0 157 152 148 255 
0 0 -5 0.168903 0 0 157 152 148 255 
0 1.19891 -5 0.168903 0 0 157 152 148 255 
0 1.0502 -4.85912 0.168903 0 0 157 152 148 255 
0 0 -5 0.127001 0 0 157 152 148 255 
0 1.0502 -4.85912 0.127001 0 0 157 152 148 255 
0 0.148714 -4.85912 0.127001 0 0 157 152 148 255 
0 1.19891 -5 0.74355 0 -0 157 152 148 255 
0 1.19891 0 0.74355 0 -0 157 152 148 255 
0 1.0502 -0.140892 0.74355 0 -0 157 152 148 255 
0 1.19891 -5 0.701648 0 0 157 152 148 255 
0 1.0502 -0.140892 0.701648 0 0 157 152 148 255 
0 1.0502 -4.85912 0.701648 0 0 157 152 148 255 
0 1.19891 0 0.168917 0 0 157 152 148 255 
0 0 0 0.168917 0 0 157 152 148 255 
0 0.148714 -0.140892 0.168917 0 0 157 152 148 255 
0 1.19891 0 0.127012 0 0 157 152 148 255 
0 0.148714 -0.140892 0.127012 0 0 157 152 148 255 
0 1.0502 -0.140892 0.127012 0 0 157 152 148 255 
-0.140877 1.19891 0 -0.74355 0 -0 157 152 148 255 
-0.140877 1.19891 -5 -0.74355 0 -0 157 152 148 255 
-0.140877 1.0502 -4.85912 -0.74355 0 -0 157 152 148 255 
-0.140877 1.19891 0 -0.701648 0 0 157 152 148 255 
-0.140877 1.0502 -4.85912 -0.701648 0 0 157 152 148 255 
-0.140877 1.0502 -0.140892 -0.701648 0 0 157 152 148 255 
-0.140877 1.19891 -5 -0.168903 0 0 157 152 148 255 
-0.140877 0 -5 -0.168903 0 0 157 152 148 255 
-0.140877 0.148714 -4.85912 -0.168903 0 0 157 152 148 255 
-0.140877 1.19891 -5 -0.127001 0 0 157 152 148 255 
-0.140877 0.148714 -4.85912 -0.127001 0 0 157 152 148 255 
-0.140877 1.0502 -4.85912 -0.127001 0 0 157 152 148 255 
-0.140877 0 -5 -0.74357 0 0 157 152 148 255 
-0.140877 0 0 -0.74357 0 0 157 152 148 255 
-0.140877 0.148714 -0.140892 -0.74357 0 0 157 152 148 255 
-0.140877 0 -5 -0.701667 0 0 157 152 148 255 
-0.140877 0.148714 -0.140892 -0.701667 0 0 157 152 148 255 
-0.140877 0.148714 -4.85912 -0.701667 0 0 157 152 148 255 
-0.140877 0 0 -0.168917 0 0 157 152 148 255 
-0.140877 1.19891 0 -0.168917 0 0 157 152 148 255 
-0.140877 1.0502 -0.140892 -0.168917 0 0 157 152 148 255 
-0.140877 0 0 -0.127012 0 0 157 152 148 255 
-0.140877 1.0502 -0.140892 -0.127012 0 0 157 152 148 255 
-0.140877 0.148714 -0.140892 -0.127012 0 0 157 152 148 255 
0 1.0502 -4.85912 0 -0.66469 0 157 152 148 255 
0 1.0502 -0.140892 0 -0.66469 0 157 152 148 255 
-0.140877 1.0502 -0.140892 0 -0.66469 0 157 152 148 255 
0 1.0502 -4.85912 0 -0.66469 0 157 152 148 255 
-0.140877 1.0502 -0.140892 0 -0.66469 0 157 152 148 255 
-0.140877 1.0502 -4.85912 0 -0.66469 0 157 152 148 255 
0 1.0502 -0.140892 0 -0 -0.126999 141 137 133 255 
0 0.148714 -0.140892 0 -0 -0.126999 141 137 133 255 
-0.140877 0.148714 -0.140892 0 -0 -0.126999 141 137 133 255 
0 1.0502 -0.140892 -0 0 -0.126999 141 137 133 255 
-0.140877 0.148714 -0.140892 -0 0 -0.126999 141 137 133 255 
-0.140877 1.0502 -0.140892 -0 0 -0.126999 141 137 133 255 
0 1.0502 -4.85912 0 0 0.126999 141 137 133 255 
-0.140877 1.0502 -4.85912 0 0 0.126999 141 137 133 255 
-0.140877 0.148714 -4.85912 0 0 0.126999 141 137 133 255 
0 1.0502 -4.85912 0 0 0.126999 141 137 133 255 
-0.140877 0.148714 -4.85912 0 0 0.126999 141 137 133 255 
0 0.148714 -4.85912 0 0 0.126999 141 137 133 255 
0 0.148714 -4.85912 0 0.66469 0 172 167 162 255 
-0.140877 0.148714 -4.85912 0 0.66469 0 172 167 162 255 
-0.140877 0.148714 -0.140892 0 0.66469 0 172 167 162 255 
0 0.148714 -4.85912 0 0.66469 -0 172 167 162 255 
-0.140877 0.148714 -0.140892 0 0.66469 -0 172 167 162 255 
0 0.148714 -0.140892 0 0.66469 -0 172 167 162 255 
0 0.148714 -4.85912 0 0 0 172 167 162 255 
0 0.148714 -0.140892 0 0 0 172 167 162 255 
0 0.148714 -2.5 0 0 0 172 167 162 255 
3 0 1 2
3 3 4 5
3 6 7 8
3 9 10 11
3 12 13 14
3 15 16 17
3 18 19 20
3 21 22 23
3 24 25 26
3 27 28 29
3 30 31 32
3 33 34 35
3 36 37 38
3 39 40 41
3 42 43 44
3 45 46 47
3 48 49 50
3 51 52 53
3 54 55 56
3 57 58 59
3 60 61 62
3 63 64 65
3 66 67 68
3 69 70 71
3 72 73 74
3 75 76 77
3 78 79 80
3 81 82 83
3 84 85 86
3 87 88 89
3 90 91 92
3 93 94 95
3 96 97 98
3 99 100 101
3 102 103 104
3 105 106 107
3 108 109 110
3 111 112 113
3 114 115 116
3 117 118 119
3 120 121 122
3 123 124 125
