ply
format ascii 1.0
comment Feeney's Flatenator generated
comment TextureFile SpaceInteriors_Texture.png
element vertex 216
property float x
property float y
property float z
property float nx
property float ny
property float nz
property uchar red
property uchar green
property uchar blue
property uchar alpha
element face 72
property list uchar int vertex_indices
end_header
-0.253563 0 1.07021 0 0 0.0427785 85 94 97 255 
-0.630051 0 1.07021 0 0 0.0427785 85 94 97 255 
-0.630051 -0.113625 1.07021 0 0 0.0427785 85 94 97 255 
-0.253563 0 1.07021 0 0 0.0427785 85 94 97 255 
-0.630051 -0.113625 1.07021 0 0 0.0427785 85 94 97 255 
-0.253563 -0.113625 1.07021 0 0 0.0427785 85 94 97 255 
-0.253563 -0.113625 0.693726 0 0 -0.0427785 85 94 97 255 
-0.630051 -0.113625 0.693726 0 0 -0.0427785 85 94 97 255 
-0.630051 0 0.693726 0 0 -0.0427785 85 94 97 255 
-0.253563 -0.113625 0.693726 0 0 -0.0427785 85 94 97 255 
-0.630051 0 0.693726 0 0 -0.0427785 85 94 97 255 
-0.253563 0 0.693726 0 0 -0.0427785 85 94 97 255 
-0.253563 0 0.693726 0 0.141742 0 104 114 115 255 
-0.630051 0 0.693726 0 0.141742 0 104 114 115 255 
-0.630051 0 1.07021 0 0.141742 0 104 114 115 255 
-0.253563 0 0.693726 0 0.141742 -0 104 114 115 255 
-0.630051 0 1.07021 0 0.141742 -0 104 114 115 255 
-0.253563 0 1.07021 0 0.141742 -0 104 114 115 255 
-0.630051 0 1.07021 -0.042778 0 -0 85 94 97 255 
-0.630051 0 0.693726 -0.042778 0 -0 85 94 97 255 
-0.630051 -0.113625 0.693726 -0.042778 0 -0 85 94 97 255 
-0.630051 0 1.07021 -0.042778 -0 0 85 94 97 255 
-0.630051 -0.113625 0.693726 -0.042778 -0 0 85 94 97 255 
-0.630051 -0.113625 1.07021 -0.042778 -0 0 85 94 97 255 
-0.253563 0 0.693726 0.042778 0 -0 85 94 97 255 
-0.253563 0 1.07021 0.042778 0 -0 85 94 97 255 
-0.253563 -0.113625 1.07021 0.042778 0 -0 85 94 97 255 
-0.253563 0 0.693726 0.042778 0 0 85 94 97 255 
-0.253563 -0.113625 1.07021 0.042778 0 0 85 94 97 255 
-0.253563 -0.113625 0.693726 0.042778 0 0 85 94 97 255 
-0.253563 -0.113625 1.07021 -0 -0.02717 0 104 114 115 255 
-0.630051 -0.113625 1.07021 -0 -0.02717 0 104 114 115 255 
-0.557884 -0.113625 0.998043 -0 -0.02717 0 104 114 115 255 
-0.253563 -0.113625 1.07021 0 -0.0167539 0 104 114 115 255 
-0.557884 -0.113625 0.998043 0 -0.0167539 0 104 114 115 255 
-0.325729 -0.113625 0.998043 0 -0.0167539 0 104 114 115 255 
-0.630051 -0.113625 1.07021 0 -0.0271697 0 104 114 115 255 
-0.630051 -0.113625 0.693726 0 -0.0271697 0 104 114 115 255 
-0.557884 -0.113625 0.765896 0 -0.0271697 0 104 114 115 255 
-0.630051 -0.113625 1.07021 0 -0.0167534 0 104 114 115 255 
-0.557884 -0.113625 0.765896 0 -0.0167534 0 104 114 115 255 
-0.557884 -0.113625 0.998043 0 -0.0167534 0 104 114 115 255 
-0.630051 -0.113625 0.693726 0 -0.0271711 0 104 114 115 255 
-0.253563 -0.113625 0.693726 0 -0.0271711 0 104 114 115 255 
-0.325729 -0.113625 0.765896 0 -0.0271711 0 104 114 115 255 
-0.630051 -0.113625 0.693726 0 -0.0167546 0 104 114 115 255 
-0.325729 -0.113625 0.765896 0 -0.0167546 0 104 114 115 255 
-0.557884 -0.113625 0.765896 0 -0.0167546 0 104 114 115 255 
-0.253563 -0.113625 0.693726 0 -0.0271694 0 104 114 115 255 
-0.253563 -0.113625 1.07021 0 -0.0271694 0 104 114 115 255 
-0.325729 -0.113625 0.998043 0 -0.0271694 0 104 114 115 255 
-0.253563 -0.113625 0.693726 0 -0.0167531 0 104 114 115 255 
-0.325729 -0.113625 0.998043 0 -0.0167531 0 104 114 115 255 
-0.325729 -0.113625 0.765896 0 -0.0167531 0 104 114 115 255 
-0.325729 -0.113625 0.998043 0 0 0.0574516 171 53 53 255 
-0.557884 -0.113625 0.998043 0 0 0.0574516 171 53 53 255 
-0.557884 -0.361096 0.998043 0 0 0.0574516 171 53 53 255 
-0.325729 -0.113625 0.998043 0 0 0.0574516 171 53 53 255 
-0.557884 -0.361096 0.998043 0 0 0.0574516 171 53 53 255 
-0.325729 -0.361096 0.998043 0 0 0.0574516 171 53 53 255 
-0.557884 -0.113625 0.998043 -0.0574496 0 -0 171 53 53 255 
-0.557884 -0.113625 0.765896 -0.0574496 0 -0 171 53 53 255 
-0.557884 -0.361096 0.765896 -0.0574496 0 -0 171 53 53 255 
-0.557884 -0.113625 0.998043 -0.0574496 -0 0 171 53 53 255 
-0.557884 -0.361096 0.765896 -0.0574496 -0 0 171 53 53 255 
-0.557884 -0.361096 0.998043 -0.0574496 -0 0 171 53 53 255 
-0.557884 -0.113625 0.765896 0 0 -0.0574516 171 53 53 255 
-0.325729 -0.113625 0.765896 0 0 -0.0574516 171 53 53 255 
-0.325729 -0.361096 0.765896 0 0 -0.0574516 171 53 53 255 
-0.557884 -0.113625 0.765896 0 0 -0.0574516 171 53 53 255 
-0.325729 -0.361096 0.765896 0 0 -0.0574516 171 53 53 255 
-0.557884 -0.361096 0.765896 0 0 -0.0574516 171 53 53 255 
-0.325729 -0.113625 0.765896 0.0574496 0 -0 171 53 53 255 
-0.325729 -0.113625 0.998043 0.0574496 0 -0 171 53 53 255 
-0.325729 -0.361096 0.998043 0.0574496 0 -0 171 53 53 255 
-0.325729 -0.113625 0.765896 0.0574496 0 0 171 53 53 255 
-0.325729 -0.361096 0.998043 0.0574496 0 0 171 53 53 255 
-0.325729 -0.361096 0.765896 0.0574496 0 0 171 53 53 255 
-0.325729 -0.361096 0.998043 0 -0.0123063 0.0260989 171 53 53 255 
-0.557884 -0.361096 0.998043 0 -0.0123063 0.0260989 171 53 53 255 
-0.504871 -0.473516 0.945034 0 -0.0123063 0.0260989 171 53 53 255 
-0.325729 -0.361096 0.998043 0 -0.00668597 0.0141794 171 53 53 255 
-0.504871 -0.473516 0.945034 0 -0.00668597 0.0141794 171 53 53 255 
-0.378742 -0.473516 0.945034 0 -0.00668597 0.0141794 171 53 53 255 
-0.557884 -0.361096 0.998043 -0.026098 -0.0123068 -0 171 53 53 255 
-0.557884 -0.361096 0.765896 -0.026098 -0.0123068 -0 171 53 53 255 
-0.504871 -0.473516 0.818905 -0.026098 -0.0123068 -0 171 53 53 255 
-0.557884 -0.361096 0.998043 -0.0141794 -0.00668647 0 171 53 53 255 
-0.504871 -0.473516 0.818905 -0.0141794 -0.00668647 0 171 53 53 255 
-0.504871 -0.473516 0.945034 -0.0141794 -0.00668647 0 171 53 53 255 
-0.557884 -0.361096 0.765896 0 -0.0123063 -0.0260989 171 53 53 255 
-0.325729 -0.361096 0.765896 0 -0.0123063 -0.0260989 171 53 53 255 
-0.378742 -0.473516 0.818905 0 -0.0123063 -0.0260989 171 53 53 255 
-0.557884 -0.361096 0.765896 0 -0.00668597 -0.0141794 171 53 53 255 
-0.378742 -0.473516 0.818905 0 -0.00668597 -0.0141794 171 53 53 255 
-0.504871 -0.473516 0.818905 0 -0.00668597 -0.0141794 171 53 53 255 
-0.325729 -0.361096 0.765896 0.026098 -0.0123068 0 171 53 53 255 
-0.325729 -0.361096 0.998043 0.026098 -0.0123068 0 171 53 53 255 
-0.378742 -0.473516 0.945034 0.026098 -0.0123068 0 171 53 53 255 
-0.325729 -0.361096 0.765896 0.0141794 -0.00668648 0 171 53 53 255 
-0.378742 -0.473516 0.945034 0.0141794 -0.00668648 0 171 53 53 255 
-0.378742 -0.473516 0.818905 0.0141794 -0.00668648 0 171 53 53 255 
-0.378742 -0.473516 0.945034 -0 -0.0159085 0 171 53 53 255 
-0.504871 -0.473516 0.945034 -0 -0.0159085 0 171 53 53 255 
-0.504871 -0.473516 0.818905 -0 -0.0159085 0 171 53 53 255 
-0.378742 -0.473516 0.818905 0 -0.0159085 0 171 53 53 255 
-0.378742 -0.473516 0.945034 0 -0.0159085 0 171 53 53 255 
-0.504871 -0.473516 0.818905 0 -0.0159085 0 171 53 53 255 
0.630047 0 -0.693729 0 0 0.0427785 85 94 97 255 
0.253559 0 -0.693729 0 0 0.0427785 85 94 97 255 
0.253559 -0.113625 -0.693729 0 0 0.0427785 85 94 97 255 
0.630047 0 -0.693729 0 0 0.0427785 85 94 97 255 
0.253559 -0.113625 -0.693729 0 0 0.0427785 85 94 97 255 
0.630047 -0.113625 -0.693729 0 0 0.0427785 85 94 97 255 
0.630047 -0.113625 -1.07021 0 0 -0.0427785 85 94 97 255 
0.253559 -0.113625 -1.07021 0 0 -0.0427785 85 94 97 255 
0.253559 0 -1.07021 0 0 -0.0427785 85 94 97 255 
0.630047 -0.113625 -1.07021 0 0 -0.0427785 85 94 97 255 
0.253559 0 -1.07021 0 0 -0.0427785 85 94 97 255 
0.630047 0 -1.07021 0 0 -0.0427785 85 94 97 255 
0.630047 0 -1.07021 0 0.141741 0 104 114 115 255 
0.253559 0 -1.07021 0 0.141741 0 104 114 115 255 
0.253559 0 -0.693729 0 0.141741 0 104 114 115 255 
0.630047 0 -1.07021 0 0.141741 -0 104 114 115 255 
0.253559 0 -0.693729 0 0.141741 -0 104 114 115 255 
0.630047 0 -0.693729 0 0.141741 -0 104 114 115 255 
0.253559 0 -0.693729 -0.0427777 0 -0 85 94 97 255 
0.253559 0 -1.07021 -0.0427777 0 -0 85 94 97 255 
0.253559 -0.113625 -1.07021 -0.0427777 0 -0 85 94 97 255 
0.253559 0 -0.693729 -0.0427777 -0 0 85 94 97 255 
0.253559 -0.113625 -1.07021 -0.0427777 -0 0 85 94 97 255 
0.253559 -0.113625 -0.693729 -0.0427777 -0 0 85 94 97 255 
0.630047 0 -1.07021 0.0427777 0 -0 85 94 97 255 
0.630047 0 -0.693729 0.0427777 0 -0 85 94 97 255 
0.630047 -0.113625 -0.693729 0.0427777 0 -0 85 94 97 255 
0.630047 0 -1.07021 0.0427777 0 0 85 94 97 255 
0.630047 -0.113625 -0.693729 0.0427777 0 0 85 94 97 255 
0.630047 -0.113625 -1.07021 0.0427777 0 0 85 94 97 255 
0.630047 -0.113625 -0.693729 -0 -0.02717 0 104 114 115 255 
0.253559 -0.113625 -0.693729 -0 -0.02717 0 104 114 115 255 
0.325726 -0.113625 -0.765896 -0 -0.02717 0 104 114 115 255 
0.630047 -0.113625 -0.693729 0 -0.0167539 0 104 114 115 255 
0.325726 -0.113625 -0.765896 0 -0.0167539 0 104 114 115 255 
0.55788 -0.113625 -0.765896 0 -0.0167539 0 104 114 115 255 
0.253559 -0.113625 -0.693729 0 -0.0271695 0 104 114 115 255 
0.253559 -0.113625 -1.07021 0 -0.0271695 0 104 114 115 255 
0.325726 -0.113625 -0.998043 0 -0.0271695 0 104 114 115 255 
0.253559 -0.113625 -0.693729 0 -0.0167534 0 104 114 115 255 
0.325726 -0.113625 -0.998043 0 -0.0167534 0 104 114 115 255 
0.325726 -0.113625 -0.765896 0 -0.0167534 0 104 114 115 255 
0.253559 -0.113625 -1.07021 0 -0.02717 0 104 114 115 255 
0.630047 -0.113625 -1.07021 0 -0.02717 0 104 114 115 255 
0.55788 -0.113625 -0.998043 0 -0.02717 0 104 114 115 255 
0.253559 -0.113625 -1.07021 0 -0.0167539 0 104 114 115 255 
0.55788 -0.113625 -0.998043 0 -0.0167539 0 104 114 115 255 
0.325726 -0.113625 -0.998043 0 -0.0167539 0 104 114 115 255 
0.630047 -0.113625 -1.07021 0 -0.0271695 0 104 114 115 255 
0.630047 -0.113625 -0.693729 0 -0.0271695 0 104 114 115 255 
0.55788 -0.113625 -0.765896 0 -0.0271695 0 104 114 115 255 
0.630047 -0.113625 -1.07021 0 -0.0167534 0 104 114 115 255 
0.55788 -0.113625 -0.765896 0 -0.0167534 0 104 114 115 255 
0.55788 -0.113625 -0.998043 0 -0.0167534 0 104 114 115 255 
0.55788 -0.113625 -0.765896 0 0 0.0574514 30 132 97 255 
0.325726 -0.113625 -0.765896 0 0 0.0574514 30 132 97 255 
0.325726 -0.361096 -0.765896 0 0 0.0574514 30 132 97 255 
0.55788 -0.113625 -0.765896 0 0 0.0574514 30 132 97 255 
0.325726 -0.361096 -0.765896 0 0 0.0574514 30 132 97 255 
0.55788 -0.361096 -0.765896 0 0 0.0574514 30 132 97 255 
0.325726 -0.113625 -0.765896 -0.0574496 0 -0 30 132 97 255 
0.325726 -0.113625 -0.998043 -0.0574496 0 -0 30 132 97 255 
0.325726 -0.361096 -0.998043 -0.0574496 0 -0 30 132 97 255 
0.325726 -0.113625 -0.765896 -0.0574496 -0 0 30 132 97 255 
0.325726 -0.361096 -0.998043 -0.0574496 -0 0 30 132 97 255 
0.325726 -0.361096 -0.765896 -0.0574496 -0 0 30 132 97 255 
0.325726 -0.113625 -0.998043 0 0 -0.0574514 30 132 97 255 
0.55788 -0.113625 -0.998043 0 0 -0.0574514 30 132 97 255 
0.55788 -0.361096 -0.998043 0 0 -0.0574514 30 132 97 255 
0.325726 -0.113625 -0.998043 0 0 -0.0574514 30 132 97 255 
0.55788 -0.361096 -0.998043 0 0 -0.0574514 30 132 97 255 
0.325726 -0.361096 -0.998043 0 0 -0.0574514 30 132 97 255 
0.55788 -0.113625 -0.998043 0.0574496 0 -0 30 132 97 255 
0.55788 -0.113625 -0.765896 0.0574496 0 -0 30 132 97 255 
0.55788 -0.361096 -0.765896 0.0574496 0 -0 30 132 97 255 
0.55788 -0.113625 -0.998043 0.0574496 0 0 30 132 97 255 
0.55788 -0.361096 -0.765896 0.0574496 0 0 30 132 97 255 
0.55788 -0.361096 -0.998043 0.0574496 0 0 30 132 97 255 
0.55788 -0.361096 -0.765896 0 -0.0123062 0.0260987 30 132 97 255 
0.325726 -0.361096 -0.765896 0 -0.0123062 0.0260987 30 132 97 255 
0.378738 -0.473516 -0.818905 0 -0.0123062 0.0260987 30 132 97 255 
0.55788 -0.361096 -0.765896 0 -0.00668602 0.0141795 30 132 97 255 
0.378738 -0.473516 -0.818905 0 -0.00668602 0.0141795 30 132 97 255 
0.504868 -0.473516 -0.818905 0 -0.00668602 0.0141795 30 132 97 255 
0.325726 -0.361096 -0.765896 -0.026098 -0.0123066 -0 30 132 97 255 
0.325726 -0.361096 -0.998043 -0.026098 -0.0123066 -0 30 132 97 255 
0.378738 -0.473516 -0.945034 -0.026098 -0.0123066 -0 30 132 97 255 
0.325726 -0.361096 -0.765896 -0.0141794 -0.00668635 0 30 132 97 255 
0.378738 -0.473516 -0.945034 -0.0141794 -0.00668635 0 30 132 97 255 
0.378738 -0.473516 -0.818905 -0.0141794 -0.00668635 0 30 132 97 255 
0.325726 -0.361096 -0.998043 0 -0.0123062 -0.0260987 30 132 97 255 
0.55788 -0.361096 -0.998043 0 -0.0123062 -0.0260987 30 132 97 255 
0.504868 -0.473516 -0.945034 0 -0.0123062 -0.0260987 30 132 97 255 
0.325726 -0.361096 -0.998043 0 -0.00668602 -0.0141795 30 132 97 255 
0.504868 -0.473516 -0.945034 0 -0.00668602 -0.0141795 30 132 97 255 
0.378738 -0.473516 -0.945034 0 -0.00668602 -0.0141795 30 132 97 255 
0.55788 -0.361096 -0.998043 0.026098 -0.0123066 0 30 132 97 255 
0.55788 -0.361096 -0.765896 0.026098 -0.0123066 0 30 132 97 255 
0.504868 -0.473516 -0.818905 0.026098 -0.0123066 0 30 132 97 255 
0.55788 -0.361096 -0.998043 0.0141794 -0.00668635 0 30 132 97 255 
0.504868 -0.473516 -0.818905 0.0141794 -0.00668635 0 30 132 97 255 
0.504868 -0.473516 -0.945034 0.0141794 -0.00668635 0 30 132 97 255 
0.504868 -0.473516 -0.818905 -0 -0.0159087 0 30 132 97 255 
0.378738 -0.473516 -0.818905 -0 -0.0159087 0 30 132 97 255 
0.378738 -0.473516 -0.945034 -0 -0.0159087 0 30 132 97 255 
0.504868 -0.473516 -0.945034 0 -0.0159087 0 30 132 97 255 
0.504868 -0.473516 -0.818905 0 -0.0159087 0 30 132 97 255 
0.378738 -0.473516 -0.945034 0 -0.0159087 0 30 132 97 255 
3 0 1 2
3 3 4 5
3 6 7 8
3 9 10 11
3 12 13 14
3 15 16 17
3 18 19 20
3 21 22 23
3 24 25 26
3 27 28 29
3 30 31 32
3 33 34 35
3 36 37 38
3 39 40 41
3 42 43 44
3 45 46 47
3 48 49 50
3 51 52 53
3 54 55 56
3 57 58 59
3 60 61 62
3 63 64 65
3 66 67 68
3 69 70 71
3 72 73 74
3 75 76 77
3 78 79 80
3 81 82 83
3 84 85 86
3 87 88 89
3 90 91 92
3 93 94 95
3 96 97 98
3 99 100 101
3 102 103 104
3 105 106 107
3 108 109 110
3 111 112 113
3 114 115 116
3 117 118 119
3 120 121 122
3 123 124 125
3 126 127 128
3 129 130 131
3 132 133 134
3 135 136 137
3 138 139 140
3 141 142 143
3 144 145 146
3 147 148 149
3 150 151 152
3 153 154 155
3 156 157 158
3 159 160 161
3 162 163 164
3 165 166 167
3 168 169 170
3 171 172 173
3 174 175 176
3 177 178 179
3 180 181 182
3 183 184 185
3 186 187 188
3 189 190 191
3 192 193 194
3 195 196 197
3 198 199 200
3 201 202 203
3 204 205 206
3 207 208 209
3 210 211 212
3 213 214 215
