ply
format ascii 1.0
comment Feeney's Flatenator generated
comment TextureFile SpaceInteriors_Texture.png
element vertex 150
property float x
property float y
property float z
property float nx
property float ny
property float nz
property uchar red
property uchar green
property uchar blue
property uchar alpha
element face 50
property list uchar int vertex_indices
end_header
0.042288 -0.27495 0.042291 -0 -0.00715361 0 224 221 194 255 
-0.042291 -0.27495 0.042291 -0 -0.00715361 0 224 221 194 255 
-0.042291 -0.27495 -0.042288 -0 -0.00715361 0 224 221 194 255 
0.042288 -0.27495 0.042291 0 -0.00715361 -0 224 221 194 255 
-0.042291 -0.27495 -0.042288 0 -0.00715361 -0 224 221 194 255 
0.042288 -0.27495 -0.042288 0 -0.00715361 -0 224 221 194 255 
0.35548 0 0.355486 0 0 0.0661363 89 93 100 255 
-0.35548 0 0.355486 0 0 0.0661363 89 93 100 255 
-0.35548 -0.093024 0.355486 0 0 0.0661363 89 93 100 255 
0.35548 0 0.355486 0 0 0.0661363 89 93 100 255 
-0.35548 -0.093024 0.355486 0 0 0.0661363 89 93 100 255 
0.35548 -0.093024 0.355486 0 0 0.0661363 89 93 100 255 
-0.35548 0 0.355486 -0.0661369 0 -0 105 111 119 255 
-0.35548 0 -0.35548 -0.0661369 0 -0 105 111 119 255 
-0.35548 -0.093024 -0.35548 -0.0661369 0 -0 105 111 119 255 
-0.35548 0 0.355486 -0.0661369 -0 0 105 111 119 255 
-0.35548 -0.093024 -0.35548 -0.0661369 -0 0 105 111 119 255 
-0.35548 -0.093024 0.355486 -0.0661369 -0 0 105 111 119 255 
-0.35548 0 -0.35548 0 0 -0.0661363 89 93 100 255 
0.35548 0 -0.35548 0 0 -0.0661363 89 93 100 255 
0.35548 -0.093024 -0.35548 0 0 -0.0661363 89 93 100 255 
-0.35548 0 -0.35548 0 0 -0.0661363 89 93 100 255 
0.35548 -0.093024 -0.35548 0 0 -0.0661363 89 93 100 255 
-0.35548 -0.093024 -0.35548 0 0 -0.0661363 89 93 100 255 
0.35548 0 -0.35548 0.0661369 0 -0 89 93 100 255 
0.35548 0 0.355486 0.0661369 0 -0 89 93 100 255 
0.35548 -0.093024 0.355486 0.0661369 0 -0 89 93 100 255 
0.35548 0 -0.35548 0.0661369 0 0 89 93 100 255 
0.35548 -0.093024 0.355486 0.0661369 0 0 89 93 100 255 
0.35548 -0.093024 -0.35548 0.0661369 0 0 89 93 100 255 
0.35548 -0.093024 0.355486 -0 -0.0588334 0 122 128 138 255 
-0.35548 -0.093024 0.355486 -0 -0.0588334 0 122 128 138 255 
-0.272734 -0.093024 0.272734 -0 -0.0588334 0 122 128 138 255 
0.35548 -0.093024 0.355486 0 -0.0451386 0 122 128 138 255 
-0.272734 -0.093024 0.272734 0 -0.0451386 0 122 128 138 255 
0.272734 -0.093024 0.272734 0 -0.0451386 0 122 128 138 255 
-0.35548 -0.093024 0.355486 0 -0.0588296 0 122 128 138 255 
-0.35548 -0.093024 -0.35548 0 -0.0588296 0 122 128 138 255 
-0.272734 -0.093024 -0.272734 0 -0.0588296 0 122 128 138 255 
-0.35548 -0.093024 0.355486 0 -0.0451353 0 122 128 138 255 
-0.272734 -0.093024 -0.272734 0 -0.0451353 0 122 128 138 255 
-0.272734 -0.093024 0.272734 0 -0.0451353 0 122 128 138 255 
-0.35548 -0.093024 -0.35548 0 -0.0588291 0 122 128 138 255 
0.35548 -0.093024 -0.35548 0 -0.0588291 0 122 128 138 255 
0.272734 -0.093024 -0.272734 0 -0.0588291 0 122 128 138 255 
-0.35548 -0.093024 -0.35548 0 -0.0451353 0 122 128 138 255 
0.272734 -0.093024 -0.272734 0 -0.0451353 0 122 128 138 255 
-0.272734 -0.093024 -0.272734 0 -0.0451353 0 122 128 138 255 
0.35548 -0.093024 -0.35548 0 -0.0588296 0 122 128 138 255 
0.35548 -0.093024 0.355486 0 -0.0588296 0 122 128 138 255 
0.272734 -0.093024 0.272734 0 -0.0588296 0 122 128 138 255 
0.35548 -0.093024 -0.35548 0 -0.0451353 0 122 128 138 255 
0.272734 -0.093024 0.272734 0 -0.0451353 0 122 128 138 255 
0.272734 -0.093024 -0.272734 0 -0.0451353 0 122 128 138 255 
0.272734 -0.093024 0.272734 0 -0.0364438 0.102503 108 105 102 255 
-0.272734 -0.093024 0.272734 0 -0.0364438 0.102503 108 105 102 255 
-0.205922 -0.280941 0.205922 0 -0.0364438 0.102503 108 105 102 255 
0.272734 -0.093024 0.272734 0 -0.0275161 0.0773925 108 105 102 255 
-0.205922 -0.280941 0.205922 0 -0.0275161 0.0773925 108 105 102 255 
0.205922 -0.280941 0.205922 0 -0.0275161 0.0773925 108 105 102 255 
-0.272734 -0.093024 0.272734 -0.102503 -0.0364438 -0 125 121 118 255 
-0.272734 -0.093024 -0.272734 -0.102503 -0.0364438 -0 125 121 118 255 
-0.205922 -0.280941 -0.205916 -0.102503 -0.0364438 -0 125 121 118 255 
-0.272734 -0.093024 0.272734 -0.0773914 -0.0275157 0 125 121 118 255 
-0.205922 -0.280941 -0.205916 -0.0773914 -0.0275157 0 125 121 118 255 
-0.205922 -0.280941 0.205922 -0.0773914 -0.0275157 0 125 121 118 255 
-0.272734 -0.093024 -0.272734 0 -0.0364471 -0.102503 108 105 102 255 
0.272734 -0.093024 -0.272734 0 -0.0364471 -0.102503 108 105 102 255 
0.205922 -0.280941 -0.205916 0 -0.0364471 -0.102503 108 105 102 255 
-0.272734 -0.093024 -0.272734 0 -0.0275186 -0.0773925 108 105 102 255 
0.205922 -0.280941 -0.205916 0 -0.0275186 -0.0773925 108 105 102 255 
-0.205922 -0.280941 -0.205916 0 -0.0275186 -0.0773925 108 105 102 255 
0.272734 -0.093024 -0.272734 0.102503 -0.0364438 0 125 121 118 255 
0.272734 -0.093024 0.272734 0.102503 -0.0364438 0 125 121 118 255 
0.205922 -0.280941 0.205922 0.102503 -0.0364438 0 125 121 118 255 
0.272734 -0.093024 -0.272734 0.0773914 -0.0275157 0 125 121 118 255 
0.205922 -0.280941 0.205922 0.0773914 -0.0275157 0 125 121 118 255 
0.205922 -0.280941 -0.205916 0.0773914 -0.0275157 0 125 121 118 255 
0.205922 -0.280941 0.205922 -0 -0.0152374 0 108 105 102 255 
-0.205922 -0.280941 0.205922 -0 -0.0152374 0 108 105 102 255 
-0.168924 -0.280941 0.168924 -0 -0.0152374 0 108 105 102 255 
0.205922 -0.280941 0.205922 0 -0.0124996 0 108 105 102 255 
-0.168924 -0.280941 0.168924 0 -0.0124996 0 108 105 102 255 
0.168921 -0.280941 0.168924 0 -0.0124996 0 108 105 102 255 
-0.205922 -0.280941 0.205922 0 -0.0152372 0 108 105 102 255 
-0.205922 -0.280941 -0.205916 0 -0.0152372 0 108 105 102 255 
-0.168924 -0.280941 -0.168921 0 -0.0152372 0 108 105 102 255 
-0.205922 -0.280941 0.205922 0 -0.0124996 0 108 105 102 255 
-0.168924 -0.280941 -0.168921 0 -0.0124996 0 108 105 102 255 
-0.168924 -0.280941 0.168924 0 -0.0124996 0 108 105 102 255 
-0.205922 -0.280941 -0.205916 0 -0.0152362 0 108 105 102 255 
0.205922 -0.280941 -0.205916 0 -0.0152362 0 108 105 102 255 
0.168921 -0.280941 -0.168921 0 -0.0152362 0 108 105 102 255 
-0.205922 -0.280941 -0.205916 0 -0.0124986 0 108 105 102 255 
0.168921 -0.280941 -0.168921 0 -0.0124986 0 108 105 102 255 
-0.168924 -0.280941 -0.168921 0 -0.0124986 0 108 105 102 255 
0.205922 -0.280941 -0.205916 0 -0.0152384 0 108 105 102 255 
0.205922 -0.280941 0.205922 0 -0.0152384 0 108 105 102 255 
0.168921 -0.280941 0.168924 0 -0.0152384 0 108 105 102 255 
0.205922 -0.280941 -0.205916 0 -0.0125006 0 108 105 102 255 
0.168921 -0.280941 0.168924 0 -0.0125006 0 108 105 102 255 
0.168921 -0.280941 -0.168921 0 -0.0125006 0 108 105 102 255 
0.168921 -0.280941 0.168924 -0 -0.0353386 -0.0402248 108 105 102 255 
-0.168924 -0.280941 0.168924 -0 -0.0353386 -0.0402248 108 105 102 255 
-0.064324 -0.161878 0.064324 -0 -0.0353386 -0.0402248 108 105 102 255 
0.168921 -0.280941 0.168924 0 -0.0134569 -0.0153176 108 105 102 255 
-0.064324 -0.161878 0.064324 0 -0.0134569 -0.0153176 108 105 102 255 
0.064327 -0.161878 0.064324 0 -0.0134569 -0.0153176 108 105 102 255 
-0.168924 -0.280941 0.168924 0.0402248 -0.0353386 0 125 121 118 255 
-0.168924 -0.280941 -0.168921 0.0402248 -0.0353386 0 125 121 118 255 
-0.064324 -0.161878 -0.064317 0.0402248 -0.0353386 0 125 121 118 255 
-0.168924 -0.280941 0.168924 0.0153164 -0.0134558 0 125 121 118 255 
-0.064324 -0.161878 -0.064317 0.0153164 -0.0134558 0 125 121 118 255 
-0.064324 -0.161878 0.064324 0.0153164 -0.0134558 0 125 121 118 255 
-0.168924 -0.280941 -0.168921 0 -0.0353399 0.0402248 108 105 102 255 
0.168921 -0.280941 -0.168921 0 -0.0353399 0.0402248 108 105 102 255 
0.064327 -0.161878 -0.064317 0 -0.0353399 0.0402248 108 105 102 255 
-0.168924 -0.280941 -0.168921 0 -0.0134574 0.0153176 108 105 102 255 
0.064327 -0.161878 -0.064317 0 -0.0134574 0.0153176 108 105 102 255 
-0.064324 -0.161878 -0.064317 0 -0.0134574 0.0153176 108 105 102 255 
0.168921 -0.280941 -0.168921 -0.0402248 -0.0353366 0 125 121 118 255 
0.168921 -0.280941 0.168924 -0.0402248 -0.0353366 0 125 121 118 255 
0.064327 -0.161878 0.064324 -0.0402248 -0.0353366 0 125 121 118 255 
0.168921 -0.280941 -0.168921 -0.0153164 -0.0134551 0 125 121 118 255 
0.064327 -0.161878 0.064324 -0.0153164 -0.0134551 0 125 121 118 255 
0.064327 -0.161878 -0.064317 -0.0153164 -0.0134551 0 125 121 118 255 
0.064327 -0.161878 0.064324 0 -0.00283457 0.0145468 224 221 194 255 
-0.064324 -0.161878 0.064324 0 -0.00283457 0.0145468 224 221 194 255 
-0.042291 -0.27495 0.042291 0 -0.00283457 0.0145468 224 221 194 255 
0.064327 -0.161878 0.064324 0 -0.00186353 0.00956352 224 221 194 255 
-0.042291 -0.27495 0.042291 0 -0.00186353 0.00956352 224 221 194 255 
0.042288 -0.27495 0.042291 0 -0.00186353 0.00956352 224 221 194 255 
-0.064324 -0.161878 0.064324 -0.0145457 -0.00283435 -0 224 221 194 255 
-0.064324 -0.161878 -0.064317 -0.0145457 -0.00283435 -0 224 221 194 255 
-0.042291 -0.27495 -0.042288 -0.0145457 -0.00283435 -0 224 221 194 255 
-0.064324 -0.161878 0.064324 -0.00956352 -0.00186353 0 224 221 194 255 
-0.042291 -0.27495 -0.042288 -0.00956352 -0.00186353 0 224 221 194 255 
-0.042291 -0.27495 0.042291 -0.00956352 -0.00186353 0 224 221 194 255 
-0.064324 -0.161878 -0.064317 0 -0.00283405 -0.0145468 224 221 194 255 
0.064327 -0.161878 -0.064317 0 -0.00283405 -0.0145468 224 221 194 255 
0.042288 -0.27495 -0.042288 0 -0.00283405 -0.0145468 224 221 194 255 
-0.064324 -0.161878 -0.064317 0 -0.00186319 -0.00956352 224 221 194 255 
0.042288 -0.27495 -0.042288 0 -0.00186319 -0.00956352 224 221 194 255 
-0.042291 -0.27495 -0.042288 0 -0.00186319 -0.00956352 224 221 194 255 
0.064327 -0.161878 -0.064317 0.0145457 -0.00283512 0 224 221 194 255 
0.064327 -0.161878 0.064324 0.0145457 -0.00283512 0 224 221 194 255 
0.042288 -0.27495 0.042291 0.0145457 -0.00283512 0 224 221 194 255 
0.064327 -0.161878 -0.064317 0.00956352 -0.00186404 0 224 221 194 255 
0.042288 -0.27495 0.042291 0.00956352 -0.00186404 0 224 221 194 255 
0.042288 -0.27495 -0.042288 0.00956352 -0.00186404 0 224 221 194 255 
3 0 1 2
3 3 4 5
3 6 7 8
3 9 10 11
3 12 13 14
3 15 16 17
3 18 19 20
3 21 22 23
3 24 25 26
3 27 28 29
3 30 31 32
3 33 34 35
3 36 37 38
3 39 40 41
3 42 43 44
3 45 46 47
3 48 49 50
3 51 52 53
3 54 55 56
3 57 58 59
3 60 61 62
3 63 64 65
3 66 67 68
3 69 70 71
3 72 73 74
3 75 76 77
3 78 79 80
3 81 82 83
3 84 85 86
3 87 88 89
3 90 91 92
3 93 94 95
3 96 97 98
3 99 100 101
3 102 103 104
3 105 106 107
3 108 109 110
3 111 112 113
3 114 115 116
3 117 118 119
3 120 121 122
3 123 124 125
3 126 127 128
3 129 130 131
3 132 133 134
3 135 136 137
3 138 139 140
3 141 142 143
3 144 145 146
3 147 148 149
