ply
format ascii 1.0
comment Feeney's Flatenator generated
comment TextureFile SpaceInteriors_Texture.png
element vertex 132
property float x
property float y
property float z
property float nx
property float ny
property float nz
property uchar red
property uchar green
property uchar blue
property uchar alpha
element face 44
property list uchar int vertex_indices
end_header
-0.151385 0 0.151382 0 0 0.0148445 153 162 173 255 
0.151385 0 0.151382 0 0 0.0148445 153 162 173 255 
0.151385 0.049029 0.151382 0 0 0.0148445 153 162 173 255 
-0.151385 0 0.151382 0 0 0.0148445 153 162 173 255 
0.151385 0.049029 0.151382 0 0 0.0148445 153 162 173 255 
-0.151385 0.049029 0.151382 0 0 0.0148445 153 162 173 255 
-0.067038 0.972503 0.067039 -0 0.0179766 0 105 111 119 255 
0.067038 0.972503 0.067039 -0 0.0179766 0 105 111 119 255 
0.067038 0.972503 -0.067039 -0 0.0179766 0 105 111 119 255 
-0.067038 0.972503 0.067039 0 0.0179766 0 105 111 119 255 
0.067038 0.972503 -0.067039 0 0.0179766 0 105 111 119 255 
-0.067038 0.972503 -0.067039 0 0.0179766 0 105 111 119 255 
-0.151385 0.049029 -0.151382 0 0 -0.0148445 153 162 173 255 
0.151385 0.049029 -0.151382 0 0 -0.0148445 153 162 173 255 
0.151385 0 -0.151382 0 0 -0.0148445 153 162 173 255 
-0.151385 0.049029 -0.151382 0 0 -0.0148445 153 162 173 255 
0.151385 0 -0.151382 0 0 -0.0148445 153 162 173 255 
-0.151385 0 -0.151382 0 0 -0.0148445 153 162 173 255 
-0.151385 0 -0.151382 0 -0.0916679 0 153 162 173 255 
0.151385 0 -0.151382 0 -0.0916679 0 153 162 173 255 
0.151385 0 0.151382 0 -0.0916679 0 153 162 173 255 
-0.151385 0 -0.151382 0 -0.0916679 0 153 162 173 255 
0.151385 0 0.151382 0 -0.0916679 0 153 162 173 255 
-0.151385 0 0.151382 0 -0.0916679 0 153 162 173 255 
0.151385 0 0.151382 0.0148442 0 0 138 145 155 255 
0.151385 0 -0.151382 0.0148442 0 0 138 145 155 255 
0.151385 0.049029 -0.151382 0.0148442 0 0 138 145 155 255 
0.151385 0 0.151382 0.0148442 -0 0 138 145 155 255 
0.151385 0.049029 -0.151382 0.0148442 -0 0 138 145 155 255 
0.151385 0.049029 0.151382 0.0148442 -0 0 138 145 155 255 
-0.151385 0 -0.151382 -0.0148442 0 0 138 145 155 255 
-0.151385 0 0.151382 -0.0148442 0 0 138 145 155 255 
-0.151385 0.049029 0.151382 -0.0148442 0 0 138 145 155 255 
-0.151385 0 -0.151382 -0.0148442 0 0 138 145 155 255 
-0.151385 0.049029 0.151382 -0.0148442 0 0 138 145 155 255 
-0.151385 0.049029 -0.151382 -0.0148442 0 0 138 145 155 255 
-0.151385 0.049029 0.151382 -0 0.0183249 0 168 177 190 255 
0.151385 0.049029 0.151382 -0 0.0183249 0 168 177 190 255 
0.090857 0.049029 0.090858 -0 0.0183249 0 168 177 190 255 
-0.151385 0.049029 0.151382 0 0.0109981 0 168 177 190 255 
0.090857 0.049029 0.090858 0 0.0109981 0 168 177 190 255 
-0.090857 0.049029 0.090858 0 0.0109981 0 168 177 190 255 
0.151385 0.049029 0.151382 0 0.0183257 0 168 177 190 255 
0.151385 0.049029 -0.151382 0 0.0183257 0 168 177 190 255 
0.090857 0.049029 -0.090858 0 0.0183257 0 168 177 190 255 
0.151385 0.049029 0.151382 0 0.0109989 0 168 177 190 255 
0.090857 0.049029 -0.090858 0 0.0109989 0 168 177 190 255 
0.090857 0.049029 0.090858 0 0.0109989 0 168 177 190 255 
0.151385 0.049029 -0.151382 0 0.0183249 0 168 177 190 255 
-0.151385 0.049029 -0.151382 0 0.0183249 0 168 177 190 255 
-0.090857 0.049029 -0.090858 0 0.0183249 0 168 177 190 255 
0.151385 0.049029 -0.151382 0 0.0109981 0 168 177 190 255 
-0.090857 0.049029 -0.090858 0 0.0109981 0 168 177 190 255 
0.090857 0.049029 -0.090858 0 0.0109981 0 168 177 190 255 
-0.151385 0.049029 -0.151382 0 0.0183257 0 168 177 190 255 
-0.151385 0.049029 0.151382 0 0.0183257 0 168 177 190 255 
-0.090857 0.049029 0.090858 0 0.0183257 0 168 177 190 255 
-0.151385 0.049029 -0.151382 0 0.0109989 0 168 177 190 255 
-0.090857 0.049029 0.090858 0 0.0109989 0 168 177 190 255 
-0.090857 0.049029 -0.090858 0 0.0109989 0 168 177 190 255 
-0.090857 0.049029 0.090858 0 0 0.0839041 27 120 87 255 
0.090857 0.049029 0.090858 0 0 0.0839041 27 120 87 255 
0.090857 0.510766 0.090858 0 0 0.0839041 27 120 87 255 
-0.090857 0.049029 0.090858 0 0 0.0839041 27 120 87 255 
0.090857 0.510766 0.090858 0 0 0.0839041 27 120 87 255 
-0.090857 0.510766 0.090858 0 0 0.0839041 27 120 87 255 
0.090857 0.049029 0.090858 0.083905 0 0 26 108 78 255 
0.090857 0.049029 -0.090858 0.083905 0 0 26 108 78 255 
0.090857 0.510766 -0.090858 0.083905 0 0 26 108 78 255 
0.090857 0.049029 0.090858 0.083905 -0 0 26 108 78 255 
0.090857 0.510766 -0.090858 0.083905 -0 0 26 108 78 255 
0.090857 0.510766 0.090858 0.083905 -0 0 26 108 78 255 
0.090857 0.049029 -0.090858 0 0 -0.0839041 27 120 87 255 
-0.090857 0.049029 -0.090858 0 0 -0.0839041 27 120 87 255 
-0.090857 0.510766 -0.090858 0 0 -0.0839041 27 120 87 255 
0.090857 0.049029 -0.090858 0 0 -0.0839041 27 120 87 255 
-0.090857 0.510766 -0.090858 0 0 -0.0839041 27 120 87 255 
0.090857 0.510766 -0.090858 0 0 -0.0839041 27 120 87 255 
-0.090857 0.049029 -0.090858 -0.083905 0 0 26 108 78 255 
-0.090857 0.049029 0.090858 -0.083905 0 0 26 108 78 255 
-0.090857 0.510766 0.090858 -0.083905 0 0 26 108 78 255 
-0.090857 0.049029 -0.090858 -0.083905 0 0 26 108 78 255 
-0.090857 0.510766 0.090858 -0.083905 0 0 26 108 78 255 
-0.090857 0.510766 -0.090858 -0.083905 0 0 26 108 78 255 
-0.090857 0.972503 0.090858 -0 0.00432825 0 168 177 190 255 
0.090857 0.972503 0.090858 -0 0.00432825 0 168 177 190 255 
0.067038 0.972503 0.067039 -0 0.00432825 0 168 177 190 255 
-0.090857 0.972503 0.090858 0 0.00319356 0 168 177 190 255 
0.067038 0.972503 0.067039 0 0.00319356 0 168 177 190 255 
-0.067038 0.972503 0.067039 0 0.00319356 0 168 177 190 255 
0.090857 0.972503 0.090858 0 0.00432829 0 168 177 190 255 
0.090857 0.972503 -0.090858 0 0.00432829 0 168 177 190 255 
0.067038 0.972503 -0.067039 0 0.00432829 0 168 177 190 255 
0.090857 0.972503 0.090858 0 0.0031936 0 168 177 190 255 
0.067038 0.972503 -0.067039 0 0.0031936 0 168 177 190 255 
0.067038 0.972503 0.067039 0 0.0031936 0 168 177 190 255 
0.090857 0.972503 -0.090858 0 0.00432825 0 168 177 190 255 
-0.090857 0.972503 -0.090858 0 0.00432825 0 168 177 190 255 
-0.067038 0.972503 -0.067039 0 0.00432825 0 168 177 190 255 
0.090857 0.972503 -0.090858 0 0.00319356 0 168 177 190 255 
-0.067038 0.972503 -0.067039 0 0.00319356 0 168 177 190 255 
0.067038 0.972503 -0.067039 0 0.00319356 0 168 177 190 255 
-0.090857 0.972503 -0.090858 0 0.00432829 0 168 177 190 255 
-0.090857 0.972503 0.090858 0 0.00432829 0 168 177 190 255 
-0.067038 0.972503 0.067039 0 0.00432829 0 168 177 190 255 
-0.090857 0.972503 -0.090858 0 0.0031936 0 168 177 190 255 
-0.067038 0.972503 0.067039 0 0.0031936 0 168 177 190 255 
-0.067038 0.972503 -0.067039 0 0.0031936 0 168 177 190 255 
-0.090857 0.510766 -0.090858 -0.083905 0 0 138 145 155 255 
-0.090857 0.510766 0.090858 -0.083905 0 0 138 145 155 255 
-0.090857 0.972503 0.090858 -0.083905 0 0 138 145 155 255 
-0.090857 0.510766 -0.090858 -0.083905 0 0 138 145 155 255 
-0.090857 0.972503 0.090858 -0.083905 0 0 138 145 155 255 
-0.090857 0.972503 -0.090858 -0.083905 0 0 138 145 155 255 
0.090857 0.510766 -0.090858 0 0 -0.0839041 153 162 173 255 
-0.090857 0.510766 -0.090858 0 0 -0.0839041 153 162 173 255 
-0.090857 0.972503 -0.090858 0 0 -0.0839041 153 162 173 255 
0.090857 0.510766 -0.090858 0 0 -0.0839041 153 162 173 255 
-0.090857 0.972503 -0.090858 0 0 -0.0839041 153 162 173 255 
0.090857 0.972503 -0.090858 0 0 -0.0839041 153 162 173 255 
0.090857 0.510766 0.090858 0.083905 0 0 138 145 155 255 
0.090857 0.510766 -0.090858 0.083905 0 0 138 145 155 255 
0.090857 0.972503 -0.090858 0.083905 0 0 138 145 155 255 
0.090857 0.510766 0.090858 0.083905 -0 0 138 145 155 255 
0.090857 0.972503 -0.090858 0.083905 -0 0 138 145 155 255 
0.090857 0.972503 0.090858 0.083905 -0 0 138 145 155 255 
-0.090857 0.510766 0.090858 0 0 0.0839041 153 162 173 255 
0.090857 0.510766 0.090858 0 0 0.0839041 153 162 173 255 
0.090857 0.972503 0.090858 0 0 0.0839041 153 162 173 255 
-0.090857 0.510766 0.090858 0 0 0.0839041 153 162 173 255 
0.090857 0.972503 0.090858 0 0 0.0839041 153 162 173 255 
-0.090857 0.972503 0.090858 0 0 0.0839041 153 162 173 255 
3 0 1 2
3 3 4 5
3 6 7 8
3 9 10 11
3 12 13 14
3 15 16 17
3 18 19 20
3 21 22 23
3 24 25 26
3 27 28 29
3 30 31 32
3 33 34 35
3 36 37 38
3 39 40 41
3 42 43 44
3 45 46 47
3 48 49 50
3 51 52 53
3 54 55 56
3 57 58 59
3 60 61 62
3 63 64 65
3 66 67 68
3 69 70 71
3 72 73 74
3 75 76 77
3 78 79 80
3 81 82 83
3 84 85 86
3 87 88 89
3 90 91 92
3 93 94 95
3 96 97 98
3 99 100 101
3 102 103 104
3 105 106 107
3 108 109 110
3 111 112 113
3 114 115 116
3 117 118 119
3 120 121 122
3 123 124 125
3 126 127 128
3 129 130 131
