ply
format ascii 1.0
comment Feeney's Flatenator generated
comment TextureFile SpaceInteriors_Texture.png
element vertex 648
property float x
property float y
property float z
property float nx
property float ny
property float nz
property uchar red
property uchar green
property uchar blue
property uchar alpha
element face 216
property list uchar int vertex_indices
end_header
-0.564344 1.39505 -0.342151 -0.0351065 0 0 53 78 118 255 
-0.564344 1.39505 0.198033 -0.0351065 0 0 53 78 118 255 
-0.564344 1.46004 0.198033 -0.0351065 0 0 53 78 118 255 
-0.564344 1.39505 -0.342151 -0.0351065 0 0 53 78 118 255 
-0.564344 1.46004 0.198033 -0.0351065 0 0 53 78 118 255 
-0.564344 1.46004 -0.342151 -0.0351065 0 0 53 78 118 255 
-0.564344 1.46004 -0.342151 0 0.0782267 0 65 97 146 255 
-0.564344 1.46004 0.198033 0 0.0782267 0 65 97 146 255 
-0.419529 1.46004 0.198033 0 0.0782267 0 65 97 146 255 
-0.564344 1.46004 -0.342151 0 0.0782267 0 65 97 146 255 
-0.419529 1.46004 0.198033 0 0.0782267 0 65 97 146 255 
-0.419529 1.46004 -0.342151 0 0.0782267 0 65 97 146 255 
-0.419529 1.46004 -0.342151 0.0351065 0 -0 53 78 118 255 
-0.419529 1.46004 0.198033 0.0351065 0 -0 53 78 118 255 
-0.419529 1.39505 0.198033 0.0351065 0 -0 53 78 118 255 
-0.419529 1.46004 -0.342151 0.0351065 0 0 53 78 118 255 
-0.419529 1.39505 0.198033 0.0351065 0 0 53 78 118 255 
-0.419529 1.39505 -0.342151 0.0351065 0 0 53 78 118 255 
-0.419529 1.39505 -0.342151 0 -0.0782267 0 48 70 107 255 
-0.419529 1.39505 0.198033 0 -0.0782267 0 48 70 107 255 
-0.564344 1.39505 0.198033 0 -0.0782267 0 48 70 107 255 
-0.419529 1.39505 -0.342151 0 -0.0782267 0 48 70 107 255 
-0.564344 1.39505 0.198033 0 -0.0782267 0 48 70 107 255 
-0.564344 1.39505 -0.342151 0 -0.0782267 0 48 70 107 255 
-0.564344 1.39505 0.198033 0 0 0.00941152 60 87 134 255 
-0.419529 1.39505 0.198033 0 0 0.00941152 60 87 134 255 
-0.419529 1.46004 0.198033 0 0 0.00941152 60 87 134 255 
-0.564344 1.39505 0.198033 0 0 0.00941152 60 87 134 255 
-0.419529 1.46004 0.198033 0 0 0.00941152 60 87 134 255 
-0.564344 1.46004 0.198033 0 0 0.00941152 60 87 134 255 
-0.419529 1.39505 -0.342151 0 0 -0.00941152 60 87 134 255 
-0.564344 1.39505 -0.342151 0 0 -0.00941152 60 87 134 255 
-0.564344 1.46004 -0.342151 0 0 -0.00941152 60 87 134 255 
-0.419529 1.39505 -0.342151 0 0 -0.00941152 60 87 134 255 
-0.564344 1.46004 -0.342151 0 0 -0.00941152 60 87 134 255 
-0.419529 1.46004 -0.342151 0 0 -0.00941152 60 87 134 255 
0.419529 1.39505 -0.342151 -0.0351065 0 0 53 78 118 255 
0.419529 1.39505 0.198033 -0.0351065 0 0 53 78 118 255 
0.419529 1.46004 0.198033 -0.0351065 0 0 53 78 118 255 
0.419529 1.39505 -0.342151 -0.0351065 0 0 53 78 118 255 
0.419529 1.46004 0.198033 -0.0351065 0 0 53 78 118 255 
0.419529 1.46004 -0.342151 -0.0351065 0 0 53 78 118 255 
0.419529 1.46004 -0.342151 0 0.0782267 0 65 97 146 255 
0.419529 1.46004 0.198033 0 0.0782267 0 65 97 146 255 
0.564344 1.46004 0.198033 0 0.0782267 0 65 97 146 255 
0.419529 1.46004 -0.342151 0 0.0782267 0 65 97 146 255 
0.564344 1.46004 0.198033 0 0.0782267 0 65 97 146 255 
0.564344 1.46004 -0.342151 0 0.0782267 0 65 97 146 255 
0.564344 1.46004 -0.342151 0.0351065 0 -0 53 78 118 255 
0.564344 1.46004 0.198033 0.0351065 0 -0 53 78 118 255 
0.564344 1.39505 0.198033 0.0351065 0 -0 53 78 118 255 
0.564344 1.46004 -0.342151 0.0351065 0 0 53 78 118 255 
0.564344 1.39505 0.198033 0.0351065 0 0 53 78 118 255 
0.564344 1.39505 -0.342151 0.0351065 0 0 53 78 118 255 
0.564344 1.39505 -0.342151 0 -0.0782267 0 48 70 107 255 
0.564344 1.39505 0.198033 0 -0.0782267 0 48 70 107 255 
0.419529 1.39505 0.198033 0 -0.0782267 0 48 70 107 255 
0.564344 1.39505 -0.342151 0 -0.0782267 0 48 70 107 255 
0.419529 1.39505 0.198033 0 -0.0782267 0 48 70 107 255 
0.419529 1.39505 -0.342151 0 -0.0782267 0 48 70 107 255 
0.419529 1.39505 0.198033 0 0 0.00941152 60 87 134 255 
0.564344 1.39505 0.198033 0 0 0.00941152 60 87 134 255 
0.564344 1.46004 0.198033 0 0 0.00941152 60 87 134 255 
0.419529 1.39505 0.198033 0 0 0.00941152 60 87 134 255 
0.564344 1.46004 0.198033 0 0 0.00941152 60 87 134 255 
0.419529 1.46004 0.198033 0 0 0.00941152 60 87 134 255 
0.564344 1.39505 -0.342151 0 0 -0.00941152 60 87 134 255 
0.419529 1.39505 -0.342151 0 0 -0.00941152 60 87 134 255 
0.419529 1.46004 -0.342151 0 0 -0.00941152 60 87 134 255 
0.564344 1.39505 -0.342151 0 0 -0.00941152 60 87 134 255 
0.419529 1.46004 -0.342151 0 0 -0.00941152 60 87 134 255 
0.564344 1.46004 -0.342151 0 0 -0.00941152 60 87 134 255 
-0.052572 0.629048 -0.05403 -0.0380143 0 0 58 57 55 255 
-0.052572 0.629048 0.051116 -0.0380143 0 0 58 57 55 255 
-0.052572 0.990586 0.051116 -0.0380143 0 0 58 57 55 255 
-0.052572 0.629048 -0.05403 -0.0380143 0 0 58 57 55 255 
-0.052572 0.990586 0.051116 -0.0380143 0 0 58 57 55 255 
-0.052572 0.990586 -0.05403 -0.0380143 0 0 58 57 55 255 
-0.052572 0.990586 -0.05403 0 0.0110555 0 91 88 86 255 
-0.052572 0.990586 0.051116 0 0.0110555 0 91 88 86 255 
0.052572 0.990586 0.051116 0 0.0110555 0 91 88 86 255 
-0.052572 0.990586 -0.05403 0 0.0110555 0 91 88 86 255 
0.052572 0.990586 0.051116 0 0.0110555 0 91 88 86 255 
0.052572 0.990586 -0.05403 0 0.0110555 0 91 88 86 255 
0.052572 0.990586 -0.05403 0.0380143 0 -0 58 57 55 255 
0.052572 0.990586 0.051116 0.0380143 0 -0 58 57 55 255 
0.052572 0.629048 0.051116 0.0380143 0 -0 58 57 55 255 
0.052572 0.990586 -0.05403 0.0380143 0 0 58 57 55 255 
0.052572 0.629048 0.051116 0.0380143 0 0 58 57 55 255 
0.052572 0.629048 -0.05403 0.0380143 0 0 58 57 55 255 
0.078846 0.238665 -0.080302 0 -0.0248665 0 44 43 42 255 
0.078846 0.238665 0.077388 0 -0.0248665 0 44 43 42 255 
-0.078846 0.238665 0.077388 0 -0.0248665 0 44 43 42 255 
0.078846 0.238665 -0.080302 0 -0.0248665 0 44 43 42 255 
-0.078846 0.238665 0.077388 0 -0.0248665 0 44 43 42 255 
-0.078846 0.238665 -0.080302 0 -0.0248665 0 44 43 42 255 
-0.052572 0.629048 0.051116 0 0 0.0380136 75 72 70 255 
0.052572 0.629048 0.051116 0 0 0.0380136 75 72 70 255 
0.052572 0.990586 0.051116 0 0 0.0380136 75 72 70 255 
-0.052572 0.629048 0.051116 0 0 0.0380136 75 72 70 255 
0.052572 0.990586 0.051116 0 0 0.0380136 75 72 70 255 
-0.052572 0.990586 0.051116 0 0 0.0380136 75 72 70 255 
0.052572 0.629048 -0.05403 0 0 -0.0380136 75 72 70 255 
-0.052572 0.629048 -0.05403 0 0 -0.0380136 75 72 70 255 
-0.052572 0.990586 -0.05403 0 0 -0.0380136 75 72 70 255 
0.052572 0.629048 -0.05403 0 0 -0.0380136 75 72 70 255 
-0.052572 0.990586 -0.05403 0 0 -0.0380136 75 72 70 255 
0.052572 0.990586 -0.05403 0 0 -0.0380136 75 72 70 255 
-0.078846 0.238665 -0.080302 -0.0615595 0 0 58 57 55 255 
-0.078846 0.238665 0.077388 -0.0615595 0 0 58 57 55 255 
-0.078846 0.629048 0.077388 -0.0615595 0 0 58 57 55 255 
-0.078846 0.238665 -0.080302 -0.0615595 0 0 58 57 55 255 
-0.078846 0.629048 0.077388 -0.0615595 0 0 58 57 55 255 
-0.078846 0.629048 -0.080302 -0.0615595 0 0 58 57 55 255 
-0.078846 0.238665 0.077388 0 0 0.0615603 75 72 70 255 
0.078846 0.238665 0.077388 0 0 0.0615603 75 72 70 255 
0.078846 0.629048 0.077388 0 0 0.0615603 75 72 70 255 
-0.078846 0.238665 0.077388 0 0 0.0615603 75 72 70 255 
0.078846 0.629048 0.077388 0 0 0.0615603 75 72 70 255 
-0.078846 0.629048 0.077388 0 0 0.0615603 75 72 70 255 
0.078846 0.629048 -0.080302 0.0615595 0 -0 58 57 55 255 
0.078846 0.629048 0.077388 0.0615595 0 -0 58 57 55 255 
0.078846 0.238665 0.077388 0.0615595 0 -0 58 57 55 255 
0.078846 0.629048 -0.080302 0.0615595 0 0 58 57 55 255 
0.078846 0.238665 0.077388 0.0615595 0 0 58 57 55 255 
0.078846 0.238665 -0.080302 0.0615595 0 0 58 57 55 255 
0.078846 0.238665 -0.080302 0 0 -0.0615603 75 72 70 255 
-0.078846 0.238665 -0.080302 0 0 -0.0615603 75 72 70 255 
-0.078846 0.629048 -0.080302 0 0 -0.0615603 75 72 70 255 
0.078846 0.238665 -0.080302 0 0 -0.0615603 75 72 70 255 
-0.078846 0.629048 -0.080302 0 0 -0.0615603 75 72 70 255 
0.078846 0.629048 -0.080302 0 0 -0.0615603 75 72 70 255 
-0.078846 0.629048 -0.080302 0 0.00414315 0 58 57 55 255 
-0.078846 0.629048 0.077388 0 0.00414315 0 58 57 55 255 
-0.052572 0.629048 0.051116 0 0.00414315 0 58 57 55 255 
-0.078846 0.629048 -0.080302 0 0.00276261 0 58 57 55 255 
-0.052572 0.629048 0.051116 0 0.00276261 0 58 57 55 255 
-0.052572 0.629048 -0.05403 0 0.00276261 0 58 57 55 255 
0.078846 0.629048 0.077388 0 0.00414315 0 58 57 55 255 
0.078846 0.629048 -0.080302 0 0.00414315 0 58 57 55 255 
0.052572 0.629048 -0.05403 0 0.00414315 0 58 57 55 255 
0.078846 0.629048 0.077388 0 0.00276261 0 58 57 55 255 
0.052572 0.629048 -0.05403 0 0.00276261 0 58 57 55 255 
0.052572 0.629048 0.051116 0 0.00276261 0 58 57 55 255 
-0.078846 0.629048 0.077388 -0 0.00414288 0 75 72 70 255 
0.078846 0.629048 0.077388 -0 0.00414288 0 75 72 70 255 
0.052572 0.629048 0.051116 -0 0.00414288 0 75 72 70 255 
-0.078846 0.629048 0.077388 0 0.00276234 0 75 72 70 255 
0.052572 0.629048 0.051116 0 0.00276234 0 75 72 70 255 
-0.052572 0.629048 0.051116 0 0.00276234 0 75 72 70 255 
0.078846 0.629048 -0.080302 0 0.00414288 0 75 72 70 255 
-0.078846 0.629048 -0.080302 0 0.00414288 0 75 72 70 255 
-0.052572 0.629048 -0.05403 0 0.00414288 0 75 72 70 255 
0.078846 0.629048 -0.080302 0 0.00276234 0 75 72 70 255 
-0.052572 0.629048 -0.05403 0 0.00276234 0 75 72 70 255 
0.052572 0.629048 -0.05403 0 0.00276234 0 75 72 70 255 
-0.433332 0.981786 -0.441855 -0.144052 0 0 48 70 107 255 
-0.433332 0.981786 0.424809 -0.144052 0 0 48 70 107 255 
-0.433332 1.148 0.424809 -0.144052 0 0 48 70 107 255 
-0.433332 0.981786 -0.441855 -0.119963 0 0 48 70 107 255 
-0.433332 1.148 0.424809 -0.119963 0 0 48 70 107 255 
-0.433332 1.148 -0.29693 -0.119963 0 0 48 70 107 255 
0.433332 1.148 -0.29693 0 0.625505 0 60 87 134 255 
-0.433332 1.148 -0.29693 0 0.625505 0 60 87 134 255 
-0.433332 1.148 0.424809 0 0.625505 0 60 87 134 255 
0.433332 1.148 -0.29693 0 0.625505 -0 60 87 134 255 
-0.433332 1.148 0.424809 0 0.625505 -0 60 87 134 255 
0.433332 1.148 0.424809 0 0.625505 -0 60 87 134 255 
0.433332 0.981786 -0.441855 0.119963 0 0 48 70 107 255 
0.433332 1.148 -0.29693 0.119963 0 0 48 70 107 255 
0.433332 1.148 0.424809 0.119963 0 0 48 70 107 255 
0.433332 0.981786 -0.441855 0.144052 0 0 48 70 107 255 
0.433332 1.148 0.424809 0.144052 0 0 48 70 107 255 
0.433332 0.981786 0.424809 0.144052 0 0 48 70 107 255 
0.433332 0.981786 -0.441855 0 -0.751107 0 41 61 94 255 
0.433332 0.981786 0.424809 0 -0.751107 0 41 61 94 255 
-0.433332 0.981786 0.424809 0 -0.751107 0 41 61 94 255 
0.433332 0.981786 -0.441855 0 -0.751107 0 41 61 94 255 
-0.433332 0.981786 0.424809 0 -0.751107 0 41 61 94 255 
-0.433332 0.981786 -0.441855 0 -0.751107 0 41 61 94 255 
-0.433332 0.981786 0.424809 0 0 0.144052 53 78 118 255 
0.433332 0.981786 0.424809 0 0 0.144052 53 78 118 255 
0.433332 1.148 0.424809 0 0 0.144052 53 78 118 255 
-0.433332 0.981786 0.424809 0 0 0.144052 53 78 118 255 
0.433332 1.148 0.424809 0 0 0.144052 53 78 118 255 
-0.433332 1.148 0.424809 0 0 0.144052 53 78 118 255 
-0.4 1.80882 -0.402106 -0.134579 0.00544155 -0.000366319 48 70 107 255 
-0.4 1.79783 -0.565359 -0.134579 0.00544155 -0.000366319 48 70 107 255 
-0.433332 0.981786 -0.441855 -0.134579 0.00544155 -0.000366319 48 70 107 255 
-0.4 1.80882 -0.402106 -0.113251 0.00483064 -0.00554024 48 70 107 255 
-0.433332 0.981786 -0.441855 -0.113251 0.00483064 -0.00554024 48 70 107 255 
-0.433332 1.148 -0.29693 -0.113251 0.00483064 -0.00554024 48 70 107 255 
0.4 1.80882 -0.402106 0 0.0841408 0.528656 60 87 134 255 
-0.4 1.80882 -0.402106 0 0.0841408 0.528656 60 87 134 255 
-0.433332 1.148 -0.29693 0 0.0841408 0.528656 60 87 134 255 
0.4 1.80882 -0.402106 0 0.0911523 0.572709 60 87 134 255 
-0.433332 1.148 -0.29693 0 0.0911523 0.572709 60 87 134 255 
0.433332 1.148 -0.29693 0 0.0911523 0.572709 60 87 134 255 
0.4 1.79783 -0.565359 0.109037 0.00544155 -0.000366319 48 70 107 255 
0.4 1.80882 -0.402106 0.109037 0.00544155 -0.000366319 48 70 107 255 
0.433332 1.148 -0.29693 0.109037 0.00544155 -0.000366319 48 70 107 255 
0.4 1.79783 -0.565359 0.138793 0.00483064 -0.00554024 48 70 107 255 
0.433332 1.148 -0.29693 0.138793 0.00483064 -0.00554024 48 70 107 255 
0.433332 0.981786 -0.441855 0.138793 0.00483064 -0.00554024 48 70 107 255 
-0.4 1.79783 -0.565359 0 -0.0988032 -0.652835 41 61 94 255 
0.4 1.79783 -0.565359 0 -0.0988032 -0.652835 41 61 94 255 
0.433332 0.981786 -0.441855 0 -0.0988032 -0.652835 41 61 94 255 
-0.4 1.79783 -0.565359 0 -0.107036 -0.707236 41 61 94 255 
0.433332 0.981786 -0.441855 0 -0.107036 -0.707236 41 61 94 255 
-0.433332 0.981786 -0.441855 0 -0.107036 -0.707236 41 61 94 255 
0.308084 1.96832 -0.569092 0 0.100591 -0.0067717 53 78 118 255 
-0.308084 1.96832 -0.569092 0 0.100591 -0.0067717 53 78 118 255 
-0.308084 1.97931 -0.405839 0 0.100591 -0.0067717 53 78 118 255 
0.308084 1.96832 -0.569092 0 0.100591 -0.0067717 53 78 118 255 
-0.308084 1.97931 -0.405839 0 0.100591 -0.0067717 53 78 118 255 
0.308084 1.97931 -0.405839 0 0.100591 -0.0067717 53 78 118 255 
-0.308084 1.97931 -0.405839 0 0.00298641 0.136392 60 87 134 255 
-0.4 1.80882 -0.402106 0 0.00298641 0.136392 60 87 134 255 
0.4 1.80882 -0.402106 0 0.00298641 0.136392 60 87 134 255 
-0.308084 1.97931 -0.405839 -0 0.00230016 0.105051 60 87 134 255 
0.4 1.80882 -0.402106 -0 0.00230016 0.105051 60 87 134 255 
0.308084 1.97931 -0.405839 -0 0.00230016 0.105051 60 87 134 255 
-0.308084 1.96832 -0.569092 -0.027874 0.0150056 -0.00101016 48 70 107 255 
-0.4 1.79783 -0.565359 -0.027874 0.0150056 -0.00101016 48 70 107 255 
-0.4 1.80882 -0.402106 -0.027874 0.0150056 -0.00101016 48 70 107 255 
-0.308084 1.96832 -0.569092 -0.027874 0.0150056 -0.00101016 48 70 107 255 
-0.4 1.80882 -0.402106 -0.027874 0.0150056 -0.00101016 48 70 107 255 
-0.308084 1.97931 -0.405839 -0.027874 0.0150056 -0.00101016 48 70 107 255 
0.308084 1.96832 -0.569092 0 -0.00298638 -0.136392 41 61 94 255 
0.4 1.79783 -0.565359 0 -0.00298638 -0.136392 41 61 94 255 
-0.4 1.79783 -0.565359 0 -0.00298638 -0.136392 41 61 94 255 
0.308084 1.96832 -0.569092 -0 -0.00230014 -0.105051 41 61 94 255 
-0.4 1.79783 -0.565359 -0 -0.00230014 -0.105051 41 61 94 255 
-0.308084 1.96832 -0.569092 -0 -0.00230014 -0.105051 41 61 94 255 
0.308084 1.97931 -0.405839 0.027874 0.0150056 -0.00101016 48 70 107 255 
0.4 1.80882 -0.402106 0.027874 0.0150056 -0.00101016 48 70 107 255 
0.4 1.79783 -0.565359 0.027874 0.0150056 -0.00101016 48 70 107 255 
0.308084 1.97931 -0.405839 0.027874 0.0150056 -0.00101016 48 70 107 255 
0.4 1.79783 -0.565359 0.027874 0.0150056 -0.00101016 48 70 107 255 
0.308084 1.96832 -0.569092 0.027874 0.0150056 -0.00101016 48 70 107 255 
0.589891 0.099516 0.044641 0.00865638 -0.00231957 0 58 57 55 255 
0.589891 0.099516 -0.052153 0.00865638 -0.00231957 0 58 57 55 255 
0.613855 0.188947 -0.052153 0.00865638 -0.00231957 0 58 57 55 255 
0.589891 0.099516 0.044641 0.00865638 -0.00231957 0 58 57 55 255 
0.613855 0.188947 -0.052153 0.00865638 -0.00231957 0 58 57 55 255 
0.613855 0.188947 0.044641 0.00865638 -0.00231957 0 58 57 55 255 
0.613855 0.188947 0.044641 0.0141576 0.052837 0 91 88 86 255 
0.613855 0.188947 -0.052153 0.0141576 0.052837 0 91 88 86 255 
0.067984 0.335212 -0.052153 0.0141576 0.052837 0 91 88 86 255 
0.613855 0.188947 0.044641 0.0141576 0.052837 0 91 88 86 255 
0.067984 0.335212 -0.052153 0.0141576 0.052837 0 91 88 86 255 
0.067984 0.335212 0.044641 0.0141576 0.052837 0 91 88 86 255 
0.067984 0.335212 0.044641 -0.00865638 0.00231938 0 58 57 55 255 
0.067984 0.335212 -0.052153 -0.00865638 0.00231938 0 58 57 55 255 
0.044022 0.245781 -0.052153 -0.00865638 0.00231938 0 58 57 55 255 
0.067984 0.335212 0.044641 -0.00865638 0.00231938 0 58 57 55 255 
0.044022 0.245781 -0.052153 -0.00865638 0.00231938 0 58 57 55 255 
0.044022 0.245781 0.044641 -0.00865638 0.00231938 0 58 57 55 255 
0.044022 0.245781 0.044641 -0.0141576 -0.0528368 -0 44 43 42 255 
0.044022 0.245781 -0.052153 -0.0141576 -0.0528368 -0 44 43 42 255 
0.589891 0.099516 -0.052153 -0.0141576 -0.0528368 -0 44 43 42 255 
0.044022 0.245781 0.044641 -0.0141576 -0.0528368 0 44 43 42 255 
0.589891 0.099516 -0.052153 -0.0141576 -0.0528368 0 44 43 42 255 
0.589891 0.099516 0.044641 -0.0141576 -0.0528368 0 44 43 42 255 
0.589891 0.099516 -0.052153 0 0 -0.0523224 75 72 70 255 
0.044022 0.245781 -0.052153 0 0 -0.0523224 75 72 70 255 
0.067984 0.335212 -0.052153 0 0 -0.0523224 75 72 70 255 
0.589891 0.099516 -0.052153 0 0 -0.0523229 75 72 70 255 
0.067984 0.335212 -0.052153 0 0 -0.0523229 75 72 70 255 
0.613855 0.188947 -0.052153 0 0 -0.0523229 75 72 70 255 
0.044022 0.245781 0.044641 0 0 0.0523227 75 72 70 255 
0.589891 0.099516 0.044641 0 0 0.0523227 75 72 70 255 
0.613855 0.188947 0.044641 0 0 0.0523227 75 72 70 255 
0.044022 0.245781 0.044641 -0 0 0.0523226 75 72 70 255 
0.613855 0.188947 0.044641 -0 0 0.0523226 75 72 70 255 
0.067984 0.335212 0.044641 -0 0 0.0523226 75 72 70 255 
0.619415 0 0.061977 0.0176255 0 0 58 57 55 255 
0.619415 0 -0.061976 0.0176255 0 0 58 57 55 255 
0.619415 0.142195 -0.061976 0.0176255 0 0 58 57 55 255 
0.619415 0 0.061977 0.0176255 -0 0 58 57 55 255 
0.619415 0.142195 -0.061976 0.0176255 -0 0 58 57 55 255 
0.619415 0.142195 0.061977 0.0176255 -0 0 58 57 55 255 
0.619415 0.142195 0.061977 0 0.0176254 0 91 88 86 255 
0.619415 0.142195 -0.061976 0 0.0176254 0 91 88 86 255 
0.477221 0.142195 -0.061976 0 0.0176254 0 91 88 86 255 
0.619415 0.142195 0.061977 0 0.0176254 0 91 88 86 255 
0.477221 0.142195 -0.061976 0 0.0176254 0 91 88 86 255 
0.477221 0.142195 0.061977 0 0.0176254 0 91 88 86 255 
0.477221 0.142195 0.061977 -0.0176255 0 -0 58 57 55 255 
0.477221 0.142195 -0.061976 -0.0176255 0 -0 58 57 55 255 
0.477221 0 -0.061976 -0.0176255 0 -0 58 57 55 255 
0.477221 0.142195 0.061977 -0.0176255 -0 0 58 57 55 255 
0.477221 0 -0.061976 -0.0176255 -0 0 58 57 55 255 
0.477221 0 0.061977 -0.0176255 -0 0 58 57 55 255 
0.477221 0 0.061977 0 -0.0176254 0 44 43 42 255 
0.477221 0 -0.061976 0 -0.0176254 0 44 43 42 255 
0.619415 0 -0.061976 0 -0.0176254 0 44 43 42 255 
0.477221 0 0.061977 0 -0.0176254 0 44 43 42 255 
0.619415 0 -0.061976 0 -0.0176254 0 44 43 42 255 
0.619415 0 0.061977 0 -0.0176254 0 44 43 42 255 
0.619415 0 -0.061976 0 0 -0.0202193 75 72 70 255 
0.477221 0 -0.061976 0 0 -0.0202193 75 72 70 255 
0.477221 0.142195 -0.061976 0 0 -0.0202193 75 72 70 255 
0.619415 0 -0.061976 0 0 -0.0202193 75 72 70 255 
0.477221 0.142195 -0.061976 0 0 -0.0202193 75 72 70 255 
0.619415 0.142195 -0.061976 0 0 -0.0202193 75 72 70 255 
0.477221 0 0.061977 0 0 0.0202193 75 72 70 255 
0.619415 0 0.061977 0 0 0.0202193 75 72 70 255 
0.619415 0.142195 0.061977 0 0 0.0202193 75 72 70 255 
0.477221 0 0.061977 0 0 0.0202193 75 72 70 255 
0.619415 0.142195 0.061977 0 0 0.0202193 75 72 70 255 
0.477221 0.142195 0.061977 0 0 0.0202193 75 72 70 255 
-0.589891 0.099516 -0.04464 -0.0086563 -0.00231955 0 58 57 55 255 
-0.589891 0.099516 0.052153 -0.0086563 -0.00231955 0 58 57 55 255 
-0.613855 0.188947 0.052153 -0.0086563 -0.00231955 0 58 57 55 255 
-0.589891 0.099516 -0.04464 -0.0086563 -0.00231955 0 58 57 55 255 
-0.613855 0.188947 0.052153 -0.0086563 -0.00231955 0 58 57 55 255 
-0.613855 0.188947 -0.04464 -0.0086563 -0.00231955 0 58 57 55 255 
-0.613855 0.188947 -0.04464 -0.0141574 0.0528365 0 91 88 86 255 
-0.613855 0.188947 0.052153 -0.0141574 0.0528365 0 91 88 86 255 
-0.067984 0.335212 0.052153 -0.0141574 0.0528365 0 91 88 86 255 
-0.613855 0.188947 -0.04464 -0.0141574 0.0528365 0 91 88 86 255 
-0.067984 0.335212 0.052153 -0.0141574 0.0528365 0 91 88 86 255 
-0.067984 0.335212 -0.04464 -0.0141574 0.0528365 0 91 88 86 255 
-0.067984 0.335212 -0.04464 0.00865629 0.00231935 -0 58 57 55 255 
-0.067984 0.335212 0.052153 0.00865629 0.00231935 -0 58 57 55 255 
-0.044022 0.245781 0.052153 0.00865629 0.00231935 -0 58 57 55 255 
-0.067984 0.335212 -0.04464 0.00865629 0.00231935 0 58 57 55 255 
-0.044022 0.245781 0.052153 0.00865629 0.00231935 0 58 57 55 255 
-0.044022 0.245781 -0.04464 0.00865629 0.00231935 0 58 57 55 255 
-0.044022 0.245781 -0.04464 0.0141574 -0.0528363 0 44 43 42 255 
-0.044022 0.245781 0.052153 0.0141574 -0.0528363 0 44 43 42 255 
-0.589891 0.099516 0.052153 0.0141574 -0.0528363 0 44 43 42 255 
-0.044022 0.245781 -0.04464 0.0141574 -0.0528363 0 44 43 42 255 
-0.589891 0.099516 0.052153 0.0141574 -0.0528363 0 44 43 42 255 
-0.589891 0.099516 -0.04464 0.0141574 -0.0528363 0 44 43 42 255 
-0.589891 0.099516 0.052153 0 0 0.0523224 75 72 70 255 
-0.044022 0.245781 0.052153 0 0 0.0523224 75 72 70 255 
-0.067984 0.335212 0.052153 0 0 0.0523224 75 72 70 255 
-0.589891 0.099516 0.052153 0 -0 0.0523229 75 72 70 255 
-0.067984 0.335212 0.052153 0 -0 0.0523229 75 72 70 255 
-0.613855 0.188947 0.052153 0 -0 0.0523229 75 72 70 255 
-0.044022 0.245781 -0.04464 0 0 -0.0523227 75 72 70 255 
-0.589891 0.099516 -0.04464 0 0 -0.0523227 75 72 70 255 
-0.613855 0.188947 -0.04464 0 0 -0.0523227 75 72 70 255 
-0.044022 0.245781 -0.04464 -0 0 -0.0523226 75 72 70 255 
-0.613855 0.188947 -0.04464 -0 0 -0.0523226 75 72 70 255 
-0.067984 0.335212 -0.04464 -0 0 -0.0523226 75 72 70 255 
-0.619415 0 -0.061976 -0.0176255 0 0 58 57 55 255 
-0.619415 0 0.061977 -0.0176255 0 0 58 57 55 255 
-0.619415 0.142195 0.061977 -0.0176255 0 0 58 57 55 255 
-0.619415 0 -0.061976 -0.0176255 0 0 58 57 55 255 
-0.619415 0.142195 0.061977 -0.0176255 0 0 58 57 55 255 
-0.619415 0.142195 -0.061976 -0.0176255 0 0 58 57 55 255 
-0.619415 0.142195 -0.061976 0 0.0176254 0 91 88 86 255 
-0.619415 0.142195 0.061977 0 0.0176254 0 91 88 86 255 
-0.477221 0.142195 0.061977 0 0.0176254 0 91 88 86 255 
-0.619415 0.142195 -0.061976 0 0.0176254 0 91 88 86 255 
-0.477221 0.142195 0.061977 0 0.0176254 0 91 88 86 255 
-0.477221 0.142195 -0.061976 0 0.0176254 0 91 88 86 255 
-0.477221 0.142195 -0.061976 0.0176255 0 -0 58 57 55 255 
-0.477221 0.142195 0.061977 0.0176255 0 -0 58 57 55 255 
-0.477221 0 0.061977 0.0176255 0 -0 58 57 55 255 
-0.477221 0.142195 -0.061976 0.0176255 0 0 58 57 55 255 
-0.477221 0 0.061977 0.0176255 0 0 58 57 55 255 
-0.477221 0 -0.061976 0.0176255 0 0 58 57 55 255 
-0.477221 0 -0.061976 0 -0.0176254 0 44 43 42 255 
-0.477221 0 0.061977 0 -0.0176254 0 44 43 42 255 
-0.619415 0 0.061977 0 -0.0176254 0 44 43 42 255 
-0.477221 0 -0.061976 0 -0.0176254 0 44 43 42 255 
-0.619415 0 0.061977 0 -0.0176254 0 44 43 42 255 
-0.619415 0 -0.061976 0 -0.0176254 0 44 43 42 255 
-0.619415 0 0.061977 0 0 0.0202193 75 72 70 255 
-0.477221 0 0.061977 0 0 0.0202193 75 72 70 255 
-0.477221 0.142195 0.061977 0 0 0.0202193 75 72 70 255 
-0.619415 0 0.061977 0 0 0.0202193 75 72 70 255 
-0.477221 0.142195 0.061977 0 0 0.0202193 75 72 70 255 
-0.619415 0.142195 0.061977 0 0 0.0202193 75 72 70 255 
-0.477221 0 -0.061976 0 0 -0.0202193 75 72 70 255 
-0.619415 0 -0.061976 0 0 -0.0202193 75 72 70 255 
-0.619415 0.142195 -0.061976 0 0 -0.0202193 75 72 70 255 
-0.477221 0 -0.061976 0 0 -0.0202193 75 72 70 255 
-0.619415 0.142195 -0.061976 0 0 -0.0202193 75 72 70 255 
-0.477221 0.142195 -0.061976 0 0 -0.0202193 75 72 70 255 
0.044641 0.099516 -0.589891 -0 -0.00231947 -0.00865638 58 57 55 255 
-0.052153 0.099516 -0.589891 -0 -0.00231947 -0.00865638 58 57 55 255 
-0.052153 0.188947 -0.613854 -0 -0.00231947 -0.00865638 58 57 55 255 
0.044641 0.099516 -0.589891 0 -0.00231947 -0.00865638 58 57 55 255 
-0.052153 0.188947 -0.613854 0 -0.00231947 -0.00865638 58 57 55 255 
0.044641 0.188947 -0.613854 0 -0.00231947 -0.00865638 58 57 55 255 
0.044641 0.188947 -0.613854 0 0.0528368 -0.0141576 91 88 86 255 
-0.052153 0.188947 -0.613854 0 0.0528368 -0.0141576 91 88 86 255 
-0.052153 0.335212 -0.067985 0 0.0528368 -0.0141576 91 88 86 255 
0.044641 0.188947 -0.613854 0 0.0528368 -0.0141576 91 88 86 255 
-0.052153 0.335212 -0.067985 0 0.0528368 -0.0141576 91 88 86 255 
0.044641 0.335212 -0.067985 0 0.0528368 -0.0141576 91 88 86 255 
0.044641 0.335212 -0.067985 0 0.00231947 0.00865638 58 57 55 255 
-0.052153 0.335212 -0.067985 0 0.00231947 0.00865638 58 57 55 255 
-0.052153 0.245781 -0.044022 0 0.00231947 0.00865638 58 57 55 255 
0.044641 0.335212 -0.067985 0 0.00231947 0.00865638 58 57 55 255 
-0.052153 0.245781 -0.044022 0 0.00231947 0.00865638 58 57 55 255 
0.044641 0.245781 -0.044022 0 0.00231947 0.00865638 58 57 55 255 
0.044641 0.245781 -0.044022 0 -0.0528368 0.0141576 44 43 42 255 
-0.052153 0.245781 -0.044022 0 -0.0528368 0.0141576 44 43 42 255 
-0.052153 0.099516 -0.589891 0 -0.0528368 0.0141576 44 43 42 255 
0.044641 0.245781 -0.044022 0 -0.0528368 0.0141576 44 43 42 255 
-0.052153 0.099516 -0.589891 0 -0.0528368 0.0141576 44 43 42 255 
0.044641 0.099516 -0.589891 0 -0.0528368 0.0141576 44 43 42 255 
-0.052153 0.099516 -0.589891 -0.0523225 0 0 75 72 70 255 
-0.052153 0.245781 -0.044022 -0.0523225 0 0 75 72 70 255 
-0.052153 0.335212 -0.067985 -0.0523225 0 0 75 72 70 255 
-0.052153 0.099516 -0.589891 -0.0523226 0 0 75 72 70 255 
-0.052153 0.335212 -0.067985 -0.0523226 0 0 75 72 70 255 
-0.052153 0.188947 -0.613854 -0.0523226 0 0 75 72 70 255 
0.044641 0.245781 -0.044022 0.0523226 0 0 75 72 70 255 
0.044641 0.099516 -0.589891 0.0523226 0 0 75 72 70 255 
0.044641 0.188947 -0.613854 0.0523226 0 0 75 72 70 255 
0.044641 0.245781 -0.044022 0.0523225 0 0 75 72 70 255 
0.044641 0.188947 -0.613854 0.0523225 0 0 75 72 70 255 
0.044641 0.335212 -0.067985 0.0523225 0 0 75 72 70 255 
0.061975 0 -0.619415 0 0 -0.0176251 58 57 55 255 
-0.061975 0 -0.619415 0 0 -0.0176251 58 57 55 255 
-0.061975 0.142195 -0.619415 0 0 -0.0176251 58 57 55 255 
0.061975 0 -0.619415 0 0 -0.0176251 58 57 55 255 
-0.061975 0.142195 -0.619415 0 0 -0.0176251 58 57 55 255 
0.061975 0.142195 -0.619415 0 0 -0.0176251 58 57 55 255 
0.061975 0.142195 -0.619415 0 0.0176249 0 91 88 86 255 
-0.061975 0.142195 -0.619415 0 0.0176249 0 91 88 86 255 
-0.061975 0.142195 -0.477221 0 0.0176249 0 91 88 86 255 
0.061975 0.142195 -0.619415 0 0.0176249 -0 91 88 86 255 
-0.061975 0.142195 -0.477221 0 0.0176249 -0 91 88 86 255 
0.061975 0.142195 -0.477221 0 0.0176249 -0 91 88 86 255 
0.061975 0.142195 -0.477221 0 0 0.0176251 58 57 55 255 
-0.061975 0.142195 -0.477221 0 0 0.0176251 58 57 55 255 
-0.061975 0 -0.477221 0 0 0.0176251 58 57 55 255 
0.061975 0.142195 -0.477221 0 0 0.0176251 58 57 55 255 
-0.061975 0 -0.477221 0 0 0.0176251 58 57 55 255 
0.061975 0 -0.477221 0 0 0.0176251 58 57 55 255 
0.061975 0 -0.477221 -0 -0.0176249 0 44 43 42 255 
-0.061975 0 -0.477221 -0 -0.0176249 0 44 43 42 255 
-0.061975 0 -0.619415 -0 -0.0176249 0 44 43 42 255 
0.061975 0 -0.477221 0 -0.0176249 -0 44 43 42 255 
-0.061975 0 -0.619415 0 -0.0176249 -0 44 43 42 255 
0.061975 0 -0.619415 0 -0.0176249 -0 44 43 42 255 
-0.061975 0 -0.619415 -0.0202193 0 0 75 72 70 255 
-0.061975 0 -0.477221 -0.0202193 0 0 75 72 70 255 
-0.061975 0.142195 -0.477221 -0.0202193 0 0 75 72 70 255 
-0.061975 0 -0.619415 -0.0202193 0 0 75 72 70 255 
-0.061975 0.142195 -0.477221 -0.0202193 0 0 75 72 70 255 
-0.061975 0.142195 -0.619415 -0.0202193 0 0 75 72 70 255 
0.061975 0 -0.477221 0.0202193 0 0 75 72 70 255 
0.061975 0 -0.619415 0.0202193 0 0 75 72 70 255 
0.061975 0.142195 -0.619415 0.0202193 0 0 75 72 70 255 
0.061975 0 -0.477221 0.0202193 -0 0 75 72 70 255 
0.061975 0.142195 -0.619415 0.0202193 -0 0 75 72 70 255 
0.061975 0.142195 -0.477221 0.0202193 -0 0 75 72 70 255 
-0.044641 0.099516 0.589891 0 -0.00231947 0.00865638 58 57 55 255 
0.052153 0.099516 0.589891 0 -0.00231947 0.00865638 58 57 55 255 
0.052153 0.188947 0.613854 0 -0.00231947 0.00865638 58 57 55 255 
-0.044641 0.099516 0.589891 0 -0.00231947 0.00865638 58 57 55 255 
0.052153 0.188947 0.613854 0 -0.00231947 0.00865638 58 57 55 255 
-0.044641 0.188947 0.613854 0 -0.00231947 0.00865638 58 57 55 255 
-0.044641 0.188947 0.613854 -0 0.0528368 0.0141576 91 88 86 255 
0.052153 0.188947 0.613854 -0 0.0528368 0.0141576 91 88 86 255 
0.052153 0.335212 0.067985 -0 0.0528368 0.0141576 91 88 86 255 
-0.044641 0.188947 0.613854 0 0.0528368 0.0141576 91 88 86 255 
0.052153 0.335212 0.067985 0 0.0528368 0.0141576 91 88 86 255 
-0.044641 0.335212 0.067985 0 0.0528368 0.0141576 91 88 86 255 
-0.044641 0.335212 0.067985 0 0.00231947 -0.00865638 58 57 55 255 
0.052153 0.335212 0.067985 0 0.00231947 -0.00865638 58 57 55 255 
0.052153 0.245781 0.044022 0 0.00231947 -0.00865638 58 57 55 255 
-0.044641 0.335212 0.067985 0 0.00231947 -0.00865638 58 57 55 255 
0.052153 0.245781 0.044022 0 0.00231947 -0.00865638 58 57 55 255 
-0.044641 0.245781 0.044022 0 0.00231947 -0.00865638 58 57 55 255 
-0.044641 0.245781 0.044022 0 -0.0528368 -0.0141576 44 43 42 255 
0.052153 0.245781 0.044022 0 -0.0528368 -0.0141576 44 43 42 255 
0.052153 0.099516 0.589891 0 -0.0528368 -0.0141576 44 43 42 255 
-0.044641 0.245781 0.044022 0 -0.0528368 -0.0141576 44 43 42 255 
0.052153 0.099516 0.589891 0 -0.0528368 -0.0141576 44 43 42 255 
-0.044641 0.099516 0.589891 0 -0.0528368 -0.0141576 44 43 42 255 
0.052153 0.099516 0.589891 0.0523225 0 0 75 72 70 255 
0.052153 0.245781 0.044022 0.0523225 0 0 75 72 70 255 
0.052153 0.335212 0.067985 0.0523225 0 0 75 72 70 255 
0.052153 0.099516 0.589891 0.0523226 -0 0 75 72 70 255 
0.052153 0.335212 0.067985 0.0523226 -0 0 75 72 70 255 
0.052153 0.188947 0.613854 0.0523226 -0 0 75 72 70 255 
-0.044641 0.245781 0.044022 -0.0523226 0 0 75 72 70 255 
-0.044641 0.099516 0.589891 -0.0523226 0 0 75 72 70 255 
-0.044641 0.188947 0.613854 -0.0523226 0 0 75 72 70 255 
-0.044641 0.245781 0.044022 -0.0523225 0 0 75 72 70 255 
-0.044641 0.188947 0.613854 -0.0523225 0 0 75 72 70 255 
-0.044641 0.335212 0.067985 -0.0523225 0 0 75 72 70 255 
-0.061977 0 0.619415 0 0 0.0176254 58 57 55 255 
0.061975 0 0.619415 0 0 0.0176254 58 57 55 255 
0.061975 0.142195 0.619415 0 0 0.0176254 58 57 55 255 
-0.061977 0 0.619415 0 0 0.0176254 58 57 55 255 
0.061975 0.142195 0.619415 0 0 0.0176254 58 57 55 255 
-0.061977 0.142195 0.619415 0 0 0.0176254 58 57 55 255 
-0.061977 0.142195 0.619415 -0 0.0176254 0 91 88 86 255 
0.061975 0.142195 0.619415 -0 0.0176254 0 91 88 86 255 
0.061975 0.142195 0.47722 -0 0.0176254 0 91 88 86 255 
-0.061977 0.142195 0.619415 0 0.0176254 0 91 88 86 255 
0.061975 0.142195 0.47722 0 0.0176254 0 91 88 86 255 
-0.061977 0.142195 0.47722 0 0.0176254 0 91 88 86 255 
-0.061977 0.142195 0.47722 0 0 -0.0176254 58 57 55 255 
0.061975 0.142195 0.47722 0 0 -0.0176254 58 57 55 255 
0.061975 0 0.47722 0 0 -0.0176254 58 57 55 255 
-0.061977 0.142195 0.47722 0 0 -0.0176254 58 57 55 255 
0.061975 0 0.47722 0 0 -0.0176254 58 57 55 255 
-0.061977 0 0.47722 0 0 -0.0176254 58 57 55 255 
-0.061977 0 0.47722 0 -0.0176254 0 44 43 42 255 
0.061975 0 0.47722 0 -0.0176254 0 44 43 42 255 
0.061975 0 0.619415 0 -0.0176254 0 44 43 42 255 
-0.061977 0 0.47722 0 -0.0176254 0 44 43 42 255 
0.061975 0 0.619415 0 -0.0176254 0 44 43 42 255 
-0.061977 0 0.619415 0 -0.0176254 0 44 43 42 255 
0.061975 0 0.619415 0.0202194 0 0 75 72 70 255 
0.061975 0 0.47722 0.0202194 0 0 75 72 70 255 
0.061975 0.142195 0.47722 0.0202194 0 0 75 72 70 255 
0.061975 0 0.619415 0.0202194 -0 0 75 72 70 255 
0.061975 0.142195 0.47722 0.0202194 -0 0 75 72 70 255 
0.061975 0.142195 0.619415 0.0202194 -0 0 75 72 70 255 
-0.061977 0 0.47722 -0.0202194 0 0 75 72 70 255 
-0.061977 0 0.619415 -0.0202194 0 0 75 72 70 255 
-0.061977 0.142195 0.619415 -0.0202194 0 0 75 72 70 255 
-0.061977 0 0.47722 -0.0202194 0 0 75 72 70 255 
-0.061977 0.142195 0.619415 -0.0202194 0 0 75 72 70 255 
-0.061977 0.142195 0.47722 -0.0202194 0 0 75 72 70 255 
0.499973 1.42164 0.156997 0 0.0304732 0 125 121 118 255 
0.499973 1.42164 -0.301012 0 0.0304732 0 125 121 118 255 
0.433439 1.42164 -0.301012 0 0.0304732 0 125 121 118 255 
0.499973 1.42164 0.156997 0 0.0304732 0 125 121 118 255 
0.433439 1.42164 -0.301012 0 0.0304732 0 125 121 118 255 
0.433439 1.42164 0.156997 0 0.0304732 0 125 121 118 255 
0.433439 1.06654 -0.350993 0 0.00332544 -0.0236262 75 72 70 255 
0.433439 1.42164 -0.301012 0 0.00332544 -0.0236262 75 72 70 255 
0.499973 1.42164 -0.301012 0 0.00332544 -0.0236262 75 72 70 255 
0.433439 1.06654 -0.350993 0 0.00332544 -0.0236262 75 72 70 255 
0.499973 1.42164 -0.301012 0 0.00332544 -0.0236262 75 72 70 255 
0.499973 1.06654 -0.350993 0 0.00332544 -0.0236262 75 72 70 255 
0.499973 1.06654 -0.350993 0.0219234 0 0 91 88 86 255 
0.499973 1.42164 -0.301012 0.0219234 0 0 91 88 86 255 
0.499973 1.34727 -0.249741 0.0219234 0 0 91 88 86 255 
0.499973 1.06654 -0.350993 0.0272274 0 0 91 88 86 255 
0.499973 1.34727 -0.249741 0.0272274 0 0 91 88 86 255 
0.499973 1.06654 -0.254005 0.0272274 0 0 91 88 86 255 
0.499973 1.42164 -0.301012 0.0340621 0 -0 91 88 86 255 
0.499973 1.42164 0.156997 0.0340621 0 -0 91 88 86 255 
0.499973 1.34727 0.105726 0.0340621 0 -0 91 88 86 255 
0.499973 1.42164 -0.301012 0.0264361 0 0 91 88 86 255 
0.499973 1.34727 0.105726 0.0264361 0 0 91 88 86 255 
0.499973 1.34727 -0.249741 0.0264361 0 0 91 88 86 255 
0.433439 1.42164 0.156997 -0.0340621 0 -0 44 43 42 255 
0.433439 1.42164 -0.301012 -0.0340621 0 -0 44 43 42 255 
0.433439 1.34727 -0.249741 -0.0340621 0 -0 44 43 42 255 
0.433439 1.42164 0.156997 -0.0264361 0 0 44 43 42 255 
0.433439 1.34727 -0.249741 -0.0264361 0 0 44 43 42 255 
0.433439 1.34727 0.105726 -0.0264361 0 0 44 43 42 255 
0.433439 1.42164 -0.301012 -0.0344404 -0 0 44 43 42 255 
0.433439 1.06654 -0.350993 -0.0344404 -0 0 44 43 42 255 
0.433439 1.06654 -0.254005 -0.0344404 -0 0 44 43 42 255 
0.433439 1.42164 -0.301012 -0.0147104 0 0 44 43 42 255 
0.433439 1.06654 -0.254005 -0.0147104 0 0 44 43 42 255 
0.433439 1.34727 -0.249741 -0.0147104 0 0 44 43 42 255 
0.499973 1.34727 -0.249741 0 -0.0236506 0 58 57 55 255 
0.499973 1.34727 0.105726 0 -0.0236506 0 58 57 55 255 
0.433439 1.34727 0.105726 0 -0.0236506 0 58 57 55 255 
0.499973 1.34727 -0.249741 0 -0.0236506 0 58 57 55 255 
0.433439 1.34727 0.105726 0 -0.0236506 0 58 57 55 255 
0.433439 1.34727 -0.249741 0 -0.0236506 0 58 57 55 255 
0.499973 1.34727 -0.249741 0 -0.000283702 0.0186781 58 57 55 255 
0.433439 1.34727 -0.249741 0 -0.000283702 0.0186781 58 57 55 255 
0.433439 1.06654 -0.254005 0 -0.000283702 0.0186781 58 57 55 255 
0.499973 1.34727 -0.249741 0 -0.000283702 0.0186781 58 57 55 255 
0.433439 1.06654 -0.254005 0 -0.000283702 0.0186781 58 57 55 255 
0.499973 1.06654 -0.254005 0 -0.000283702 0.0186781 58 57 55 255 
-0.499973 1.42164 -0.301012 0 0.0304732 0 125 121 118 255 
-0.499973 1.42164 0.156997 0 0.0304732 0 125 121 118 255 
-0.433439 1.42164 0.156997 0 0.0304732 0 125 121 118 255 
-0.499973 1.42164 -0.301012 0 0.0304732 0 125 121 118 255 
-0.433439 1.42164 0.156997 0 0.0304732 0 125 121 118 255 
-0.433439 1.42164 -0.301012 0 0.0304732 0 125 121 118 255 
-0.433439 1.42164 -0.301012 0 0.00332544 -0.0236262 75 72 70 255 
-0.433439 1.06654 -0.350993 0 0.00332544 -0.0236262 75 72 70 255 
-0.499973 1.06654 -0.350993 0 0.00332544 -0.0236262 75 72 70 255 
-0.433439 1.42164 -0.301012 0 0.00332544 -0.0236262 75 72 70 255 
-0.499973 1.06654 -0.350993 0 0.00332544 -0.0236262 75 72 70 255 
-0.499973 1.42164 -0.301012 0 0.00332544 -0.0236262 75 72 70 255 
-0.499973 1.42164 0.156997 -0.0340621 0 -0 91 88 86 255 
-0.499973 1.42164 -0.301012 -0.0340621 0 -0 91 88 86 255 
-0.499973 1.34727 -0.249741 -0.0340621 0 -0 91 88 86 255 
-0.499973 1.42164 0.156997 -0.0264361 0 0 91 88 86 255 
-0.499973 1.34727 -0.249741 -0.0264361 0 0 91 88 86 255 
-0.499973 1.34727 0.105726 -0.0264361 0 0 91 88 86 255 
-0.499973 1.42164 -0.301012 -0.0344401 -0 0 91 88 86 255 
-0.499973 1.06654 -0.350993 -0.0344401 -0 0 91 88 86 255 
-0.499973 1.06654 -0.254006 -0.0344401 -0 0 91 88 86 255 
-0.499973 1.42164 -0.301012 -0.0147105 0 0 91 88 86 255 
-0.499973 1.06654 -0.254006 -0.0147105 0 0 91 88 86 255 
-0.499973 1.34727 -0.249741 -0.0147105 0 0 91 88 86 255 
-0.433439 1.42164 -0.301012 0.0340621 0 -0 44 43 42 255 
-0.433439 1.42164 0.156997 0.0340621 0 -0 44 43 42 255 
-0.433439 1.34727 0.105726 0.0340621 0 -0 44 43 42 255 
-0.433439 1.42164 -0.301012 0.0264361 0 0 44 43 42 255 
-0.433439 1.34727 0.105726 0.0264361 0 0 44 43 42 255 
-0.433439 1.34727 -0.249741 0.0264361 0 0 44 43 42 255 
-0.433439 1.06654 -0.350993 0.0219234 0 0 44 43 42 255 
-0.433439 1.42164 -0.301012 0.0219234 0 0 44 43 42 255 
-0.433439 1.34727 -0.249741 0.0219234 0 0 44 43 42 255 
-0.433439 1.06654 -0.350993 0.0272272 0 0 44 43 42 255 
-0.433439 1.34727 -0.249741 0.0272272 0 0 44 43 42 255 
-0.433439 1.06654 -0.254006 0.0272272 0 0 44 43 42 255 
-0.499973 1.34727 0.105726 0 -0.0236506 0 58 57 55 255 
-0.499973 1.34727 -0.249741 0 -0.0236506 0 58 57 55 255 
-0.433439 1.34727 -0.249741 0 -0.0236506 0 58 57 55 255 
-0.499973 1.34727 0.105726 0 -0.0236506 0 58 57 55 255 
-0.433439 1.34727 -0.249741 0 -0.0236506 0 58 57 55 255 
-0.433439 1.34727 0.105726 0 -0.0236506 0 58 57 55 255 
-0.499973 1.34727 -0.249741 0 -0.000283767 0.0186781 58 57 55 255 
-0.499973 1.06654 -0.254006 0 -0.000283767 0.0186781 58 57 55 255 
-0.433439 1.06654 -0.254006 0 -0.000283767 0.0186781 58 57 55 255 
-0.499973 1.34727 -0.249741 0 -0.000283767 0.0186781 58 57 55 255 
-0.433439 1.06654 -0.254006 0 -0.000283767 0.0186781 58 57 55 255 
-0.433439 1.34727 -0.249741 0 -0.000283767 0.0186781 58 57 55 255 
0.433439 1.06654 -0.254005 0 -0.006453 0 75 72 70 255 
0.433439 1.06654 -0.350993 0 -0.006453 0 75 72 70 255 
0.499973 1.06654 -0.350993 0 -0.006453 0 75 72 70 255 
0.433439 1.06654 -0.254005 0 -0.006453 0 75 72 70 255 
0.499973 1.06654 -0.350993 0 -0.006453 0 75 72 70 255 
0.499973 1.06654 -0.254005 0 -0.006453 0 75 72 70 255 
-0.433439 1.06654 -0.350993 0 -0.00645293 0 75 72 70 255 
-0.433439 1.06654 -0.254006 0 -0.00645293 0 75 72 70 255 
-0.499973 1.06654 -0.254006 0 -0.00645293 0 75 72 70 255 
-0.433439 1.06654 -0.350993 0 -0.00645293 0 75 72 70 255 
-0.499973 1.06654 -0.254006 0 -0.00645293 0 75 72 70 255 
-0.499973 1.06654 -0.350993 0 -0.00645293 0 75 72 70 255 
-0.499973 1.42164 0.156997 0 -0.00341126 0.00494814 75 72 70 255 
-0.499973 1.34727 0.105726 0 -0.00341126 0.00494814 75 72 70 255 
-0.433439 1.34727 0.105726 0 -0.00341126 0.00494814 75 72 70 255 
-0.499973 1.42164 0.156997 0 -0.00341126 0.00494814 75 72 70 255 
-0.433439 1.34727 0.105726 0 -0.00341126 0.00494814 75 72 70 255 
-0.433439 1.42164 0.156997 0 -0.00341126 0.00494814 75 72 70 255 
0.433439 1.42164 0.156997 0 -0.00341126 0.00494814 75 72 70 255 
0.433439 1.34727 0.105726 0 -0.00341126 0.00494814 75 72 70 255 
0.499973 1.34727 0.105726 0 -0.00341126 0.00494814 75 72 70 255 
0.433439 1.42164 0.156997 0 -0.00341126 0.00494814 75 72 70 255 
0.499973 1.34727 0.105726 0 -0.00341126 0.00494814 75 72 70 255 
0.499973 1.42164 0.156997 0 -0.00341126 0.00494814 75 72 70 255 
3 0 1 2
3 3 4 5
3 6 7 8
3 9 10 11
3 12 13 14
3 15 16 17
3 18 19 20
3 21 22 23
3 24 25 26
3 27 28 29
3 30 31 32
3 33 34 35
3 36 37 38
3 39 40 41
3 42 43 44
3 45 46 47
3 48 49 50
3 51 52 53
3 54 55 56
3 57 58 59
3 60 61 62
3 63 64 65
3 66 67 68
3 69 70 71
3 72 73 74
3 75 76 77
3 78 79 80
3 81 82 83
3 84 85 86
3 87 88 89
3 90 91 92
3 93 94 95
3 96 97 98
3 99 100 101
3 102 103 104
3 105 106 107
3 108 109 110
3 111 112 113
3 114 115 116
3 117 118 119
3 120 121 122
3 123 124 125
3 126 127 128
3 129 130 131
3 132 133 134
3 135 136 137
3 138 139 140
3 141 142 143
3 144 145 146
3 147 148 149
3 150 151 152
3 153 154 155
3 156 157 158
3 159 160 161
3 162 163 164
3 165 166 167
3 168 169 170
3 171 172 173
3 174 175 176
3 177 178 179
3 180 181 182
3 183 184 185
3 186 187 188
3 189 190 191
3 192 193 194
3 195 196 197
3 198 199 200
3 201 202 203
3 204 205 206
3 207 208 209
3 210 211 212
3 213 214 215
3 216 217 218
3 219 220 221
3 222 223 224
3 225 226 227
3 228 229 230
3 231 232 233
3 234 235 236
3 237 238 239
3 240 241 242
3 243 244 245
3 246 247 248
3 249 250 251
3 252 253 254
3 255 256 257
3 258 259 260
3 261 262 263
3 264 265 266
3 267 268 269
3 270 271 272
3 273 274 275
3 276 277 278
3 279 280 281
3 282 283 284
3 285 286 287
3 288 289 290
3 291 292 293
3 294 295 296
3 297 298 299
3 300 301 302
3 303 304 305
3 306 307 308
3 309 310 311
3 312 313 314
3 315 316 317
3 318 319 320
3 321 322 323
3 324 325 326
3 327 328 329
3 330 331 332
3 333 334 335
3 336 337 338
3 339 340 341
3 342 343 344
3 345 346 347
3 348 349 350
3 351 352 353
3 354 355 356
3 357 358 359
3 360 361 362
3 363 364 365
3 366 367 368
3 369 370 371
3 372 373 374
3 375 376 377
3 378 379 380
3 381 382 383
3 384 385 386
3 387 388 389
3 390 391 392
3 393 394 395
3 396 397 398
3 399 400 401
3 402 403 404
3 405 406 407
3 408 409 410
3 411 412 413
3 414 415 416
3 417 418 419
3 420 421 422
3 423 424 425
3 426 427 428
3 429 430 431
3 432 433 434
3 435 436 437
3 438 439 440
3 441 442 443
3 444 445 446
3 447 448 449
3 450 451 452
3 453 454 455
3 456 457 458
3 459 460 461
3 462 463 464
3 465 466 467
3 468 469 470
3 471 472 473
3 474 475 476
3 477 478 479
3 480 481 482
3 483 484 485
3 486 487 488
3 489 490 491
3 492 493 494
3 495 496 497
3 498 499 500
3 501 502 503
3 504 505 506
3 507 508 509
3 510 511 512
3 513 514 515
3 516 517 518
3 519 520 521
3 522 523 524
3 525 526 527
3 528 529 530
3 531 532 533
3 534 535 536
3 537 538 539
3 540 541 542
3 543 544 545
3 546 547 548
3 549 550 551
3 552 553 554
3 555 556 557
3 558 559 560
3 561 562 563
3 564 565 566
3 567 568 569
3 570 571 572
3 573 574 575
3 576 577 578
3 579 580 581
3 582 583 584
3 585 586 587
3 588 589 590
3 591 592 593
3 594 595 596
3 597 598 599
3 600 601 602
3 603 604 605
3 606 607 608
3 609 610 611
3 612 613 614
3 615 616 617
3 618 619 620
3 621 622 623
3 624 625 626
3 627 628 629
3 630 631 632
3 633 634 635
3 636 637 638
3 639 640 641
3 642 643 644
3 645 646 647
