ply
format ascii 1.0
comment Feeney's Flatenator generated
comment TextureFile SpaceInteriors_Texture.png
element vertex 300
property float x
property float y
property float z
property float nx
property float ny
property float nz
property uchar red
property uchar green
property uchar blue
property uchar alpha
element face 100
property list uchar int vertex_indices
end_header
-1.76199 1.25066 0.035103 0 0 0.0481092 35 35 35 255 
-1.51189 1.25066 0.035103 0 0 0.0481092 35 35 35 255 
-1.51189 1.44302 0.035103 0 0 0.0481092 35 35 35 255 
-1.76199 1.25066 0.035103 0 0 0.0481092 35 35 35 255 
-1.51189 1.44302 0.035103 0 0 0.0481092 35 35 35 255 
-1.76199 1.44302 0.035103 0 0 0.0481092 35 35 35 255 
-1.76199 1.44302 0.035103 -0 0.0175585 0 52 52 52 255 
-1.51189 1.44302 0.035103 -0 0.0175585 0 52 52 52 255 
-1.51189 1.44302 -0.035103 -0 0.0175585 0 52 52 52 255 
-1.76199 1.44302 0.035103 0 0.0175585 0 52 52 52 255 
-1.51189 1.44302 -0.035103 0 0.0175585 0 52 52 52 255 
-1.76199 1.44302 -0.035103 0 0.0175585 0 52 52 52 255 
-1.76199 1.44302 -0.035103 0 0 -0.0481092 35 35 35 255 
-1.51189 1.44302 -0.035103 0 0 -0.0481092 35 35 35 255 
-1.51189 1.25066 -0.035103 0 0 -0.0481092 35 35 35 255 
-1.76199 1.44302 -0.035103 0 0 -0.0481092 35 35 35 255 
-1.51189 1.25066 -0.035103 0 0 -0.0481092 35 35 35 255 
-1.76199 1.25066 -0.035103 0 0 -0.0481092 35 35 35 255 
-1.76199 1.25066 -0.035103 0 -0.0175585 0 35 35 35 255 
-1.51189 1.25066 -0.035103 0 -0.0175585 0 35 35 35 255 
-1.51189 1.25066 0.035103 0 -0.0175585 0 35 35 35 255 
-1.76199 1.25066 -0.035103 0 -0.0175585 0 35 35 35 255 
-1.51189 1.25066 0.035103 0 -0.0175585 0 35 35 35 255 
-1.76199 1.25066 0.035103 0 -0.0175585 0 35 35 35 255 
-1.76199 1.25066 -0.035103 -0.0135048 0 0 35 35 35 255 
-1.76199 1.25066 0.035103 -0.0135048 0 0 35 35 35 255 
-1.76199 1.44302 0.035103 -0.0135048 0 0 35 35 35 255 
-1.76199 1.25066 -0.035103 -0.0135048 0 0 35 35 35 255 
-1.76199 1.44302 0.035103 -0.0135048 0 0 35 35 35 255 
-1.76199 1.44302 -0.035103 -0.0135048 0 0 35 35 35 255 
-1.51189 1.25066 0.035103 0.00158034 0 0 35 35 35 255 
-1.51189 1.25066 -0.035103 0.00158034 0 0 35 35 35 255 
-1.51189 1.27317 -0.020805 0.00158034 0 0 35 35 35 255 
-1.51189 1.25066 0.035103 0.000936823 0 0 35 35 35 255 
-1.51189 1.27317 -0.020805 0.000936823 0 0 35 35 35 255 
-1.51189 1.27317 0.020813 0.000936823 0 0 35 35 35 255 
-1.51189 1.25066 -0.035103 0.00275036 0 0 35 35 35 255 
-1.51189 1.44302 -0.035103 0.00275036 0 0 35 35 35 255 
-1.51189 1.42051 -0.020805 0.00275036 0 0 35 35 35 255 
-1.51189 1.25066 -0.035103 0.00210667 0 0 35 35 35 255 
-1.51189 1.42051 -0.020805 0.00210667 0 0 35 35 35 255 
-1.51189 1.27317 -0.020805 0.00210667 0 0 35 35 35 255 
-1.51189 1.44302 -0.035103 0.00158033 0 -0 35 35 35 255 
-1.51189 1.44302 0.035103 0.00158033 0 -0 35 35 35 255 
-1.51189 1.42051 0.020813 0.00158033 0 -0 35 35 35 255 
-1.51189 1.44302 -0.035103 0.000936818 0 0 35 35 35 255 
-1.51189 1.42051 0.020813 0.000936818 0 0 35 35 35 255 
-1.51189 1.42051 -0.020805 0.000936818 0 0 35 35 35 255 
-1.51189 1.44302 0.035103 0.00274883 0 0 35 35 35 255 
-1.51189 1.25066 0.035103 0.00274883 0 0 35 35 35 255 
-1.51189 1.27317 0.020813 0.00274883 0 0 35 35 35 255 
-1.51189 1.44302 0.035103 0.00210549 0 0 35 35 35 255 
-1.51189 1.27317 0.020813 0.00210549 0 0 35 35 35 255 
-1.51189 1.42051 0.020813 0.00210549 0 0 35 35 35 255 
-1.51189 1.27317 0.020813 0 -0.125844 0 185 61 58 255 
-1.51189 1.27317 -0.020805 0 -0.125844 0 185 61 58 255 
1.51189 1.27317 -0.020805 0 -0.125844 0 185 61 58 255 
-1.51189 1.27317 0.020813 0 -0.125844 0 185 61 58 255 
1.51189 1.27317 -0.020805 0 -0.125844 0 185 61 58 255 
1.51189 1.27317 0.020813 0 -0.125844 0 185 61 58 255 
-1.51189 1.27317 -0.020805 0 0 -0.445524 185 61 58 255 
-1.51189 1.42051 -0.020805 0 0 -0.445524 185 61 58 255 
1.51189 1.42051 -0.020805 0 0 -0.445524 185 61 58 255 
-1.51189 1.27317 -0.020805 0 0 -0.445524 185 61 58 255 
1.51189 1.42051 -0.020805 0 0 -0.445524 185 61 58 255 
1.51189 1.27317 -0.020805 0 0 -0.445524 185 61 58 255 
-1.51189 1.42051 -0.020805 0 0.125844 0 198 68 65 255 
-1.51189 1.42051 0.020813 0 0.125844 0 198 68 65 255 
1.51189 1.42051 0.020813 0 0.125844 0 198 68 65 255 
-1.51189 1.42051 -0.020805 0 0.125844 0 198 68 65 255 
1.51189 1.42051 0.020813 0 0.125844 0 198 68 65 255 
1.51189 1.42051 -0.020805 0 0.125844 0 198 68 65 255 
-1.51189 1.42051 0.020813 0 0 0.445524 185 61 58 255 
-1.51189 1.27317 0.020813 0 0 0.445524 185 61 58 255 
1.51189 1.27317 0.020813 0 0 0.445524 185 61 58 255 
-1.51189 1.42051 0.020813 -0 0 0.445524 185 61 58 255 
1.51189 1.27317 0.020813 -0 0 0.445524 185 61 58 255 
1.51189 1.42051 0.020813 -0 0 0.445524 185 61 58 255 
-1.70956 0.154468 0.072624 0 0 0.196931 153 162 173 255 
-1.56432 0.154468 0.072624 0 0 0.196931 153 162 173 255 
-1.56432 1.51037 0.072624 0 0 0.196931 153 162 173 255 
-1.70956 0.154468 0.072624 0 0 0.196931 153 162 173 255 
-1.56432 1.51037 0.072624 0 0 0.196931 153 162 173 255 
-1.70956 1.51037 0.072624 0 0 0.196931 153 162 173 255 
-1.70956 1.51037 0.072624 -0 0.0210948 0 181 191 205 255 
-1.56432 1.51037 0.072624 -0 0.0210948 0 181 191 205 255 
-1.56432 1.51037 -0.072617 -0 0.0210948 0 181 191 205 255 
-1.70956 1.51037 0.072624 0 0.0210948 0 181 191 205 255 
-1.56432 1.51037 -0.072617 0 0.0210948 0 181 191 205 255 
-1.70956 1.51037 -0.072617 0 0.0210948 0 181 191 205 255 
-1.70956 1.51037 -0.072617 0 0 -0.196931 153 162 173 255 
-1.56432 1.51037 -0.072617 0 0 -0.196931 153 162 173 255 
-1.56432 0.154468 -0.072617 0 0 -0.196931 153 162 173 255 
-1.70956 1.51037 -0.072617 0 0 -0.196931 153 162 173 255 
-1.56432 0.154468 -0.072617 0 0 -0.196931 153 162 173 255 
-1.70956 0.154468 -0.072617 0 0 -0.196931 153 162 173 255 
-1.92971 0 -0.292778 0 -0.342866 0 168 177 190 255 
-1.34417 0 -0.292778 0 -0.342866 0 168 177 190 255 
-1.34417 0 0.292778 0 -0.342866 0 168 177 190 255 
-1.92971 0 -0.292778 0 -0.342866 0 168 177 190 255 
-1.34417 0 0.292778 0 -0.342866 0 168 177 190 255 
-1.92971 0 0.292778 0 -0.342866 0 168 177 190 255 
-1.56432 0.154468 0.072624 0.196933 0 0 168 177 190 255 
-1.56432 0.154468 -0.072617 0.196933 0 0 168 177 190 255 
-1.56432 1.51037 -0.072617 0.196933 0 0 168 177 190 255 
-1.56432 0.154468 0.072624 0.196933 -0 0 168 177 190 255 
-1.56432 1.51037 -0.072617 0.196933 -0 0 168 177 190 255 
-1.56432 1.51037 0.072624 0.196933 -0 0 168 177 190 255 
-1.70956 0.154468 -0.072617 -0.196933 0 0 168 177 190 255 
-1.70956 0.154468 0.072624 -0.196933 0 0 168 177 190 255 
-1.70956 1.51037 0.072624 -0.196933 0 0 168 177 190 255 
-1.70956 0.154468 -0.072617 -0.196933 0 0 168 177 190 255 
-1.70956 1.51037 0.072624 -0.196933 0 0 168 177 190 255 
-1.70956 1.51037 -0.072617 -0.196933 0 0 168 177 190 255 
-1.70956 0.154468 -0.072617 -0 0.0319762 0 181 191 205 255 
-1.56432 0.154468 -0.072617 -0 0.0319762 0 181 191 205 255 
-1.34417 0.154468 -0.292778 -0 0.0319762 0 181 191 205 255 
-1.70956 0.154468 -0.072617 0 0.128913 0 181 191 205 255 
-1.34417 0.154468 -0.292778 0 0.128913 0 181 191 205 255 
-1.92971 0.154468 -0.292778 0 0.128913 0 181 191 205 255 
-1.56432 0.154468 -0.072617 0 0.0319748 0 181 191 205 255 
-1.56432 0.154468 0.072624 0 0.0319748 0 181 191 205 255 
-1.34417 0.154468 0.292778 0 0.0319748 0 181 191 205 255 
-1.56432 0.154468 -0.072617 -0 0.12891 0 181 191 205 255 
-1.34417 0.154468 0.292778 -0 0.12891 0 181 191 205 255 
-1.34417 0.154468 -0.292778 -0 0.12891 0 181 191 205 255 
-1.56432 0.154468 0.072624 0 0.0319752 0 181 191 205 255 
-1.70956 0.154468 0.072624 0 0.0319752 0 181 191 205 255 
-1.92971 0.154468 0.292778 0 0.0319752 0 181 191 205 255 
-1.56432 0.154468 0.072624 0 0.128909 -0 181 191 205 255 
-1.92971 0.154468 0.292778 0 0.128909 -0 181 191 205 255 
-1.34417 0.154468 0.292778 0 0.128909 -0 181 191 205 255 
-1.70956 0.154468 0.072624 0 0.0319748 0 181 191 205 255 
-1.70956 0.154468 -0.072617 0 0.0319748 0 181 191 205 255 
-1.92971 0.154468 -0.292778 0 0.0319748 0 181 191 205 255 
-1.70956 0.154468 0.072624 0 0.12891 0 181 191 205 255 
-1.92971 0.154468 -0.292778 0 0.12891 0 181 191 205 255 
-1.92971 0.154468 0.292778 0 0.12891 0 181 191 205 255 
-1.92971 0.154468 -0.292778 0 0 -0.0904472 153 162 173 255 
-1.34417 0.154468 -0.292778 0 0 -0.0904472 153 162 173 255 
-1.34417 0 -0.292778 0 0 -0.0904472 153 162 173 255 
-1.92971 0.154468 -0.292778 0 0 -0.0904472 153 162 173 255 
-1.34417 0 -0.292778 0 0 -0.0904472 153 162 173 255 
-1.92971 0 -0.292778 0 0 -0.0904472 153 162 173 255 
-1.34417 0.154468 -0.292778 0.0904497 0 -0 168 177 190 255 
-1.34417 0.154468 0.292778 0.0904497 0 -0 168 177 190 255 
-1.34417 0 0.292778 0.0904497 0 -0 168 177 190 255 
-1.34417 0.154468 -0.292778 0.0904497 0 0 168 177 190 255 
-1.34417 0 0.292778 0.0904497 0 0 168 177 190 255 
-1.34417 0 -0.292778 0.0904497 0 0 168 177 190 255 
-1.34417 0.154468 0.292778 0 0 0.0904472 153 162 173 255 
-1.92971 0.154468 0.292778 0 0 0.0904472 153 162 173 255 
-1.92971 0 0.292778 0 0 0.0904472 153 162 173 255 
-1.34417 0.154468 0.292778 0 0 0.0904472 153 162 173 255 
-1.92971 0 0.292778 0 0 0.0904472 153 162 173 255 
-1.34417 0 0.292778 0 0 0.0904472 153 162 173 255 
-1.92971 0.154468 0.292778 -0.0904497 0 -0 168 177 190 255 
-1.92971 0.154468 -0.292778 -0.0904497 0 -0 168 177 190 255 
-1.92971 0 -0.292778 -0.0904497 0 -0 168 177 190 255 
-1.92971 0.154468 0.292778 -0.0904497 -0 0 168 177 190 255 
-1.92971 0 -0.292778 -0.0904497 -0 0 168 177 190 255 
-1.92971 0 0.292778 -0.0904497 -0 0 168 177 190 255 
1.76199 1.25066 0.035103 0 -0 0.0481092 35 35 35 255 
1.76199 1.44302 0.035103 0 -0 0.0481092 35 35 35 255 
1.51189 1.44302 0.035103 0 -0 0.0481092 35 35 35 255 
1.76199 1.25066 0.035103 0 0 0.0481092 35 35 35 255 
1.51189 1.44302 0.035103 0 0 0.0481092 35 35 35 255 
1.51189 1.25066 0.035103 0 0 0.0481092 35 35 35 255 
1.76199 1.44302 0.035103 0 0.0175585 0 52 52 52 255 
1.76199 1.44302 -0.035103 0 0.0175585 0 52 52 52 255 
1.51189 1.44302 -0.035103 0 0.0175585 0 52 52 52 255 
1.76199 1.44302 0.035103 0 0.0175585 0 52 52 52 255 
1.51189 1.44302 -0.035103 0 0.0175585 0 52 52 52 255 
1.51189 1.44302 0.035103 0 0.0175585 0 52 52 52 255 
1.76199 1.44302 -0.035103 0 -0 -0.0481092 35 35 35 255 
1.76199 1.25066 -0.035103 0 -0 -0.0481092 35 35 35 255 
1.51189 1.25066 -0.035103 0 -0 -0.0481092 35 35 35 255 
1.76199 1.44302 -0.035103 -0 0 -0.0481092 35 35 35 255 
1.51189 1.25066 -0.035103 -0 0 -0.0481092 35 35 35 255 
1.51189 1.44302 -0.035103 -0 0 -0.0481092 35 35 35 255 
1.76199 1.25066 -0.035103 0 -0.0175585 0 35 35 35 255 
1.76199 1.25066 0.035103 0 -0.0175585 0 35 35 35 255 
1.51189 1.25066 0.035103 0 -0.0175585 0 35 35 35 255 
1.76199 1.25066 -0.035103 0 -0.0175585 0 35 35 35 255 
1.51189 1.25066 0.035103 0 -0.0175585 0 35 35 35 255 
1.51189 1.25066 -0.035103 0 -0.0175585 0 35 35 35 255 
1.76199 1.25066 -0.035103 0.0135048 0 0 35 35 35 255 
1.76199 1.44302 -0.035103 0.0135048 0 0 35 35 35 255 
1.76199 1.44302 0.035103 0.0135048 0 0 35 35 35 255 
1.76199 1.25066 -0.035103 0.0135048 0 0 35 35 35 255 
1.76199 1.44302 0.035103 0.0135048 0 0 35 35 35 255 
1.76199 1.25066 0.035103 0.0135048 0 0 35 35 35 255 
1.51189 1.25066 0.035103 -0.000936823 0 0 35 35 35 255 
1.51189 1.27317 0.020813 -0.000936823 0 0 35 35 35 255 
1.51189 1.27317 -0.020805 -0.000936823 0 0 35 35 35 255 
1.51189 1.25066 0.035103 -0.00158034 0 0 35 35 35 255 
1.51189 1.27317 -0.020805 -0.00158034 0 0 35 35 35 255 
1.51189 1.25066 -0.035103 -0.00158034 0 0 35 35 35 255 
1.51189 1.25066 -0.035103 -0.00210667 0 0 35 35 35 255 
1.51189 1.27317 -0.020805 -0.00210667 0 0 35 35 35 255 
1.51189 1.42051 -0.020805 -0.00210667 0 0 35 35 35 255 
1.51189 1.25066 -0.035103 -0.00275036 0 0 35 35 35 255 
1.51189 1.42051 -0.020805 -0.00275036 0 0 35 35 35 255 
1.51189 1.44302 -0.035103 -0.00275036 0 0 35 35 35 255 
1.51189 1.44302 -0.035103 -0.000936818 0 0 35 35 35 255 
1.51189 1.42051 -0.020805 -0.000936818 0 0 35 35 35 255 
1.51189 1.42051 0.020813 -0.000936818 0 0 35 35 35 255 
1.51189 1.44302 -0.035103 -0.00158033 0 0 35 35 35 255 
1.51189 1.42051 0.020813 -0.00158033 0 0 35 35 35 255 
1.51189 1.44302 0.035103 -0.00158033 0 0 35 35 35 255 
1.51189 1.44302 0.035103 -0.00210549 0 0 35 35 35 255 
1.51189 1.42051 0.020813 -0.00210549 0 0 35 35 35 255 
1.51189 1.27317 0.020813 -0.00210549 0 0 35 35 35 255 
1.51189 1.44302 0.035103 -0.00274883 -0 0 35 35 35 255 
1.51189 1.27317 0.020813 -0.00274883 -0 0 35 35 35 255 
1.51189 1.25066 0.035103 -0.00274883 -0 0 35 35 35 255 
1.70956 0.154468 0.072624 0 -0 0.196931 153 162 173 255 
1.70956 1.51037 0.072624 0 -0 0.196931 153 162 173 255 
1.56432 1.51037 0.072624 0 -0 0.196931 153 162 173 255 
1.70956 0.154468 0.072624 0 0 0.196931 153 162 173 255 
1.56432 1.51037 0.072624 0 0 0.196931 153 162 173 255 
1.56432 0.154468 0.072624 0 0 0.196931 153 162 173 255 
1.70956 1.51037 0.072624 0 0.0210948 0 181 191 205 255 
1.70956 1.51037 -0.072617 0 0.0210948 0 181 191 205 255 
1.56432 1.51037 -0.072617 0 0.0210948 0 181 191 205 255 
1.70956 1.51037 0.072624 0 0.0210948 0 181 191 205 255 
1.56432 1.51037 -0.072617 0 0.0210948 0 181 191 205 255 
1.56432 1.51037 0.072624 0 0.0210948 0 181 191 205 255 
1.70956 1.51037 -0.072617 0 -0 -0.196931 153 162 173 255 
1.70956 0.154468 -0.072617 0 -0 -0.196931 153 162 173 255 
1.56432 0.154468 -0.072617 0 -0 -0.196931 153 162 173 255 
1.70956 1.51037 -0.072617 -0 0 -0.196931 153 162 173 255 
1.56432 0.154468 -0.072617 -0 0 -0.196931 153 162 173 255 
1.56432 1.51037 -0.072617 -0 0 -0.196931 153 162 173 255 
1.92971 0 -0.292778 0 -0.342866 0 168 177 190 255 
1.92971 0 0.292778 0 -0.342866 0 168 177 190 255 
1.34417 0 0.292778 0 -0.342866 0 168 177 190 255 
1.92971 0 -0.292778 0 -0.342866 0 168 177 190 255 
1.34417 0 0.292778 0 -0.342866 0 168 177 190 255 
1.34417 0 -0.292778 0 -0.342866 0 168 177 190 255 
1.56432 0.154468 0.072624 -0.196933 0 0 168 177 190 255 
1.56432 1.51037 0.072624 -0.196933 0 0 168 177 190 255 
1.56432 1.51037 -0.072617 -0.196933 0 0 168 177 190 255 
1.56432 0.154468 0.072624 -0.196933 0 0 168 177 190 255 
1.56432 1.51037 -0.072617 -0.196933 0 0 168 177 190 255 
1.56432 0.154468 -0.072617 -0.196933 0 0 168 177 190 255 
1.70956 0.154468 -0.072617 0.196933 0 0 168 177 190 255 
1.70956 1.51037 -0.072617 0.196933 0 0 168 177 190 255 
1.70956 1.51037 0.072624 0.196933 0 0 168 177 190 255 
1.70956 0.154468 -0.072617 0.196933 0 0 168 177 190 255 
1.70956 1.51037 0.072624 0.196933 0 0 168 177 190 255 
1.70956 0.154468 0.072624 0.196933 0 0 168 177 190 255 
1.70956 0.154468 -0.072617 0 0.128913 0 181 191 205 255 
1.92971 0.154468 -0.292778 0 0.128913 0 181 191 205 255 
1.34417 0.154468 -0.292778 0 0.128913 0 181 191 205 255 
1.70956 0.154468 -0.072617 0 0.0319762 0 181 191 205 255 
1.34417 0.154468 -0.292778 0 0.0319762 0 181 191 205 255 
1.56432 0.154468 -0.072617 0 0.0319762 0 181 191 205 255 
1.56432 0.154468 -0.072617 0 0.12891 0 181 191 205 255 
1.34417 0.154468 -0.292778 0 0.12891 0 181 191 205 255 
1.34417 0.154468 0.292778 0 0.12891 0 181 191 205 255 
1.56432 0.154468 -0.072617 0 0.0319748 -0 181 191 205 255 
1.34417 0.154468 0.292778 0 0.0319748 -0 181 191 205 255 
1.56432 0.154468 0.072624 0 0.0319748 -0 181 191 205 255 
1.56432 0.154468 0.072624 0 0.128909 -0 181 191 205 255 
1.34417 0.154468 0.292778 0 0.128909 -0 181 191 205 255 
1.92971 0.154468 0.292778 0 0.128909 -0 181 191 205 255 
1.56432 0.154468 0.072624 0 0.0319752 0 181 191 205 255 
1.92971 0.154468 0.292778 0 0.0319752 0 181 191 205 255 
1.70956 0.154468 0.072624 0 0.0319752 0 181 191 205 255 
1.70956 0.154468 0.072624 -0 0.12891 0 181 191 205 255 
1.92971 0.154468 0.292778 -0 0.12891 0 181 191 205 255 
1.92971 0.154468 -0.292778 -0 0.12891 0 181 191 205 255 
1.70956 0.154468 0.072624 0 0.0319748 0 181 191 205 255 
1.92971 0.154468 -0.292778 0 0.0319748 0 181 191 205 255 
1.70956 0.154468 -0.072617 0 0.0319748 0 181 191 205 255 
1.92971 0.154468 -0.292778 0 -0 -0.0904472 153 162 173 255 
1.92971 0 -0.292778 0 -0 -0.0904472 153 162 173 255 
1.34417 0 -0.292778 0 -0 -0.0904472 153 162 173 255 
1.92971 0.154468 -0.292778 -0 0 -0.0904472 153 162 173 255 
1.34417 0 -0.292778 -0 0 -0.0904472 153 162 173 255 
1.34417 0.154468 -0.292778 -0 0 -0.0904472 153 162 173 255 
1.34417 0.154468 -0.292778 -0.0904497 0 0 168 177 190 255 
1.34417 0 -0.292778 -0.0904497 0 0 168 177 190 255 
1.34417 0 0.292778 -0.0904497 0 0 168 177 190 255 
1.34417 0.154468 -0.292778 -0.0904497 0 0 168 177 190 255 
1.34417 0 0.292778 -0.0904497 0 0 168 177 190 255 
1.34417 0.154468 0.292778 -0.0904497 0 0 168 177 190 255 
1.34417 0.154468 0.292778 0 0 0.0904472 153 162 173 255 
1.34417 0 0.292778 0 0 0.0904472 153 162 173 255 
1.92971 0 0.292778 0 0 0.0904472 153 162 173 255 
1.34417 0.154468 0.292778 -0 0 0.0904472 153 162 173 255 
1.92971 0 0.292778 -0 0 0.0904472 153 162 173 255 
1.92971 0.154468 0.292778 -0 0 0.0904472 153 162 173 255 
1.92971 0.154468 0.292778 0.0904497 0 0 168 177 190 255 
1.92971 0 0.292778 0.0904497 0 0 168 177 190 255 
1.92971 0 -0.292778 0.0904497 0 0 168 177 190 255 
1.92971 0.154468 0.292778 0.0904497 0 0 168 177 190 255 
1.92971 0 -0.292778 0.0904497 0 0 168 177 190 255 
1.92971 0.154468 -0.292778 0.0904497 0 0 168 177 190 255 
3 0 1 2
3 3 4 5
3 6 7 8
3 9 10 11
3 12 13 14
3 15 16 17
3 18 19 20
3 21 22 23
3 24 25 26
3 27 28 29
3 30 31 32
3 33 34 35
3 36 37 38
3 39 40 41
3 42 43 44
3 45 46 47
3 48 49 50
3 51 52 53
3 54 55 56
3 57 58 59
3 60 61 62
3 63 64 65
3 66 67 68
3 69 70 71
3 72 73 74
3 75 76 77
3 78 79 80
3 81 82 83
3 84 85 86
3 87 88 89
3 90 91 92
3 93 94 95
3 96 97 98
3 99 100 101
3 102 103 104
3 105 106 107
3 108 109 110
3 111 112 113
3 114 115 116
3 117 118 119
3 120 121 122
3 123 124 125
3 126 127 128
3 129 130 131
3 132 133 134
3 135 136 137
3 138 139 140
3 141 142 143
3 144 145 146
3 147 148 149
3 150 151 152
3 153 154 155
3 156 157 158
3 159 160 161
3 162 163 164
3 165 166 167
3 168 169 170
3 171 172 173
3 174 175 176
3 177 178 179
3 180 181 182
3 183 184 185
3 186 187 188
3 189 190 191
3 192 193 194
3 195 196 197
3 198 199 200
3 201 202 203
3 204 205 206
3 207 208 209
3 210 211 212
3 213 214 215
3 216 217 218
3 219 220 221
3 222 223 224
3 225 226 227
3 228 229 230
3 231 232 233
3 234 235 236
3 237 238 239
3 240 241 242
3 243 244 245
3 246 247 248
3 249 250 251
3 252 253 254
3 255 256 257
3 258 259 260
3 261 262 263
3 264 265 266
3 267 268 269
3 270 271 272
3 273 274 275
3 276 277 278
3 279 280 281
3 282 283 284
3 285 286 287
3 288 289 290
3 291 292 293
3 294 295 296
3 297 298 299
