ply
format ascii 1.0
comment Feeney's Flatenator generated
comment TextureFile SpaceInteriors_Texture.png
element vertex 456
property float x
property float y
property float z
property float nx
property float ny
property float nz
property uchar red
property uchar green
property uchar blue
property uchar alpha
element face 152
property list uchar int vertex_indices
end_header
0.582319 0.22676 0.264118 0 0 0.184919 108 105 102 255 
1.06214 0.22676 0.264118 0 0 0.184919 108 105 102 255 
1.06214 0.612152 0.264118 0 0 0.184919 108 105 102 255 
0.582319 0.22676 0.264118 0 0 0.184919 108 105 102 255 
1.06214 0.612152 0.264118 0 0 0.184919 108 105 102 255 
0.582319 0.612152 0.264118 0 0 0.184919 108 105 102 255 
0.410733 2.9772 0.264118 -0 0.513276 0 157 152 148 255 
1.23313 2.9772 0.264118 -0 0.513276 0 157 152 148 255 
1.23313 2.9772 -0.360004 -0 0.513276 0 157 152 148 255 
0.410733 2.9772 0.264118 0 0.513276 0 157 152 148 255 
1.23313 2.9772 -0.360004 0 0.513276 0 157 152 148 255 
0.410733 2.9772 -0.360004 0 0.513276 0 157 152 148 255 
0.410733 1.4886 -0.360004 0 0 -1.22422 141 137 133 255 
1.23313 1.4886 -0.360004 0 0 -1.22422 141 137 133 255 
1.23313 0 -0.360004 0 0 -1.22422 141 137 133 255 
0.410733 1.4886 -0.360004 0 0 -1.22422 141 137 133 255 
1.23313 0 -0.360004 0 0 -1.22422 141 137 133 255 
0.410733 0 -0.360004 0 0 -1.22422 141 137 133 255 
0.410733 0 -0.360004 0 -0.513276 0 141 137 133 255 
1.23313 0 -0.360004 0 -0.513276 0 141 137 133 255 
1.23313 0 0.264118 0 -0.513276 0 141 137 133 255 
0.410733 0 -0.360004 0 -0.513276 0 141 137 133 255 
1.23313 0 0.264118 0 -0.513276 0 141 137 133 255 
0.410733 0 0.264118 0 -0.513276 0 141 137 133 255 
1.23313 0 0.264118 0.929068 0 0 125 121 118 255 
1.23313 0 -0.360004 0.929068 0 0 125 121 118 255 
1.23313 1.4886 -0.360004 0.929068 0 0 125 121 118 255 
1.23313 0 0.264118 0.929068 -0 0 125 121 118 255 
1.23313 1.4886 -0.360004 0.929068 -0 0 125 121 118 255 
1.23313 1.4886 0.264118 0.929068 -0 0 125 121 118 255 
0.410733 0 0.264118 0 0 0.0620326 141 137 133 255 
1.23313 0 0.264118 0 0 0.0620326 141 137 133 255 
1.16266 0.075429 0.264118 0 0 0.0620326 141 137 133 255 
0.410733 0 0.264118 0 0 0.0513564 141 137 133 255 
1.16266 0.075429 0.264118 0 0 0.0513564 141 137 133 255 
0.481802 0.075429 0.264118 0 0 0.0513564 141 137 133 255 
1.23313 0 0.264118 0 -0 0.104902 141 137 133 255 
1.23313 1.4886 0.264118 0 -0 0.104902 141 137 133 255 
1.16266 1.4886 0.264118 0 -0 0.104902 141 137 133 255 
1.23313 0 0.264118 0 0 0.0995861 141 137 133 255 
1.16266 1.4886 0.264118 0 0 0.0995861 141 137 133 255 
1.16266 0.075429 0.264118 0 0 0.0995861 141 137 133 255 
1.23313 2.9772 0.264118 0 0 0.0620333 141 137 133 255 
0.410733 2.9772 0.264118 0 0 0.0620333 141 137 133 255 
0.481802 2.90177 0.264118 0 0 0.0620333 141 137 133 255 
1.23313 2.9772 0.264118 0 0 0.0513571 141 137 133 255 
0.481802 2.90177 0.264118 0 0 0.0513571 141 137 133 255 
1.16266 2.90177 0.264118 0 0 0.0513571 141 137 133 255 
0.410733 1.4886 0.264118 0 0 0.105793 141 137 133 255 
0.410733 0 0.264118 0 0 0.105793 141 137 133 255 
0.481802 0.075429 0.264118 0 0 0.105793 141 137 133 255 
0.410733 1.4886 0.264118 -0 0 0.100433 141 137 133 255 
0.481802 0.075429 0.264118 -0 0 0.100433 141 137 133 255 
0.481802 1.4886 0.264118 -0 0 0.100433 141 137 133 255 
0.481802 0.075429 0.264118 0 0 0.0311111 35 35 35 255 
1.16266 0.075429 0.264118 0 0 0.0311111 35 35 35 255 
1.12308 0.121123 0.264118 0 0 0.0311111 35 35 35 255 
0.481802 0.075429 0.264118 0 0 0.027494 35 35 35 255 
1.12308 0.121123 0.264118 0 0 0.027494 35 35 35 255 
0.521382 0.121123 0.264118 0 0 0.027494 35 35 35 255 
1.16266 0.075429 0.264118 0 -0 0.0559333 35 35 35 255 
1.16266 1.4886 0.264118 0 -0 0.0559333 35 35 35 255 
1.12308 1.4886 0.264118 0 -0 0.0559333 35 35 35 255 
1.16266 0.075429 0.264118 0 0 0.0541247 35 35 35 255 
1.12308 1.4886 0.264118 0 0 0.0541247 35 35 35 255 
1.12308 0.121123 0.264118 0 0 0.0541247 35 35 35 255 
1.16266 2.90177 0.264118 0 0 0.0311084 35 35 35 255 
0.481802 2.90177 0.264118 0 0 0.0311084 35 35 35 255 
0.521382 2.85608 0.264118 0 0 0.0311084 35 35 35 255 
1.16266 2.90177 0.264118 0 0 0.0274916 35 35 35 255 
0.521382 2.85608 0.264118 0 0 0.0274916 35 35 35 255 
1.12308 2.85608 0.264118 0 0 0.0274916 35 35 35 255 
0.481802 1.4886 0.264118 0 0 0.0559333 35 35 35 255 
0.481802 0.075429 0.264118 0 0 0.0559333 35 35 35 255 
0.521382 0.121123 0.264118 0 0 0.0559333 35 35 35 255 
0.481802 1.4886 0.264118 -0 0 0.0541247 35 35 35 255 
0.521382 0.121123 0.264118 -0 0 0.0541247 35 35 35 255 
0.521382 1.4886 0.264118 -0 0 0.0541247 35 35 35 255 
0.521382 0.121123 0.264118 0 0 0.0635616 141 137 133 255 
1.12308 0.121123 0.264118 0 0 0.0635616 141 137 133 255 
1.06214 0.22676 0.264118 0 0 0.0635616 141 137 133 255 
0.521382 0.121123 0.264118 0 0 0.0506868 141 137 133 255 
1.06214 0.22676 0.264118 0 0 0.0506868 141 137 133 255 
0.582319 0.22676 0.264118 0 0 0.0506868 141 137 133 255 
1.12308 0.121123 0.264118 0 -0 0.0833341 141 137 133 255 
1.12308 1.4886 0.264118 0 -0 0.0833341 141 137 133 255 
1.06214 0.612152 0.264118 0 -0 0.0833341 141 137 133 255 
1.12308 0.121123 0.264118 0 0 0.0234858 141 137 133 255 
1.06214 0.612152 0.264118 0 0 0.0234858 141 137 133 255 
1.06214 0.22676 0.264118 0 0 0.0234858 141 137 133 255 
1.12308 2.85608 0.264118 0 0 0.285265 141 137 133 255 
0.521382 2.85608 0.264118 0 0 0.285265 141 137 133 255 
0.582319 2.38198 0.264118 0 0 0.285265 141 137 133 255 
1.12308 2.85608 0.264118 0 0 0.227483 141 137 133 255 
0.582319 2.38198 0.264118 0 0 0.227483 141 137 133 255 
1.06214 2.38198 0.264118 0 0 0.227483 141 137 133 255 
0.521382 1.4886 0.264118 0 0 0.08333 141 137 133 255 
0.521382 0.121123 0.264118 0 0 0.08333 141 137 133 255 
0.582319 0.22676 0.264118 0 0 0.08333 141 137 133 255 
0.521382 1.4886 0.264118 0 0 0.0234846 141 137 133 255 
0.582319 0.22676 0.264118 0 0 0.0234846 141 137 133 255 
0.582319 0.612152 0.264118 0 0 0.0234846 141 137 133 255 
1.23313 1.4886 0.264118 0 -0 0.104902 141 137 133 255 
1.23313 2.9772 0.264118 0 -0 0.104902 141 137 133 255 
1.16266 2.90177 0.264118 0 -0 0.104902 141 137 133 255 
1.23313 1.4886 0.264118 0 0 0.0995861 141 137 133 255 
1.16266 2.90177 0.264118 0 0 0.0995861 141 137 133 255 
1.16266 1.4886 0.264118 0 0 0.0995861 141 137 133 255 
1.12308 1.4886 0.264118 0 0 0.0559333 35 35 35 255 
1.16266 1.4886 0.264118 0 0 0.0559333 35 35 35 255 
1.16266 2.90177 0.264118 0 0 0.0559333 35 35 35 255 
1.12308 1.4886 0.264118 0 0 0.0541248 35 35 35 255 
1.16266 2.90177 0.264118 0 0 0.0541248 35 35 35 255 
1.12308 2.85608 0.264118 0 0 0.0541248 35 35 35 255 
1.06214 1.99659 0.264118 -0 0 0.0833343 141 137 133 255 
1.12308 1.4886 0.264118 -0 0 0.0833343 141 137 133 255 
1.12308 2.85608 0.264118 -0 0 0.0833343 141 137 133 255 
1.06214 1.99659 0.264118 0 0 0.0234857 141 137 133 255 
1.12308 2.85608 0.264118 0 0 0.0234857 141 137 133 255 
1.06214 2.38198 0.264118 0 0 0.0234857 141 137 133 255 
0.669133 2.19023 0.264118 -0 0 0.04956 211 177 41 255 
0.826021 2.03334 0.264118 -0 0 0.04956 211 177 41 255 
0.982543 2.19271 0.264118 -0 0 0.04956 211 177 41 255 
0.669133 2.19023 0.264118 0 0 0.04956 211 177 41 255 
0.982543 2.19271 0.264118 0 0 0.04956 211 177 41 255 
0.825655 2.3496 0.264118 0 0 0.04956 211 177 41 255 
0.521382 2.85608 0.264118 0 0 0.0833302 141 137 133 255 
0.521382 1.4886 0.264118 0 0 0.0833302 141 137 133 255 
0.582319 1.99659 0.264118 0 0 0.0833302 141 137 133 255 
0.521382 2.85608 0.264118 0 0 0.0234845 141 137 133 255 
0.582319 1.99659 0.264118 0 0 0.0234845 141 137 133 255 
0.582319 2.38198 0.264118 0 0 0.0234845 141 137 133 255 
0.481802 2.90177 0.264118 0 0 0.0559333 35 35 35 255 
0.481802 1.4886 0.264118 0 0 0.0559333 35 35 35 255 
0.521382 1.4886 0.264118 0 0 0.0559333 35 35 35 255 
0.481802 2.90177 0.264118 0 0 0.0541248 35 35 35 255 
0.521382 1.4886 0.264118 0 0 0.0541248 35 35 35 255 
0.521382 2.85608 0.264118 0 0 0.0541248 35 35 35 255 
0.410733 2.9772 0.264118 0 0 0.105793 141 137 133 255 
0.410733 1.4886 0.264118 0 0 0.105793 141 137 133 255 
0.481802 1.4886 0.264118 0 0 0.105793 141 137 133 255 
0.410733 2.9772 0.264118 0 0 0.100433 141 137 133 255 
0.481802 1.4886 0.264118 0 0 0.100433 141 137 133 255 
0.481802 2.90177 0.264118 0 0 0.100433 141 137 133 255 
0.410733 2.9772 -0.360004 0 0 -1.22422 141 137 133 255 
1.23313 2.9772 -0.360004 0 0 -1.22422 141 137 133 255 
1.23313 1.4886 -0.360004 0 0 -1.22422 141 137 133 255 
0.410733 2.9772 -0.360004 0 0 -1.22422 141 137 133 255 
1.23313 1.4886 -0.360004 0 0 -1.22422 141 137 133 255 
0.410733 1.4886 -0.360004 0 0 -1.22422 141 137 133 255 
1.23313 1.4886 0.264118 0.929068 0 0 125 121 118 255 
1.23313 1.4886 -0.360004 0.929068 0 0 125 121 118 255 
1.23313 2.9772 -0.360004 0.929068 0 0 125 121 118 255 
1.23313 1.4886 0.264118 0.929068 -0 0 125 121 118 255 
1.23313 2.9772 -0.360004 0.929068 -0 0 125 121 118 255 
1.23313 2.9772 0.264118 0.929068 -0 0 125 121 118 255 
1.06214 0.612152 0.264118 0 0 0.0843677 141 137 133 255 
1.12308 1.4886 0.264118 0 0 0.0843677 141 137 133 255 
1.06214 1.99659 0.264118 0 0 0.0843677 141 137 133 255 
0.582319 0.612152 0.264118 0 0 0.664282 141 137 133 255 
1.06214 0.612152 0.264118 0 0 0.664282 141 137 133 255 
1.06214 1.99659 0.264118 0 0 0.664282 141 137 133 255 
0.582319 0.612152 0.264118 0 0 0.664282 141 137 133 255 
1.06214 1.99659 0.264118 0 0 0.664282 141 137 133 255 
0.582319 1.99659 0.264118 0 0 0.664282 141 137 133 255 
0.521382 1.4886 0.264118 -0 0 0.0843636 141 137 133 255 
0.582319 0.612152 0.264118 -0 0 0.0843636 141 137 133 255 
0.582319 1.99659 0.264118 -0 0 0.0843636 141 137 133 255 
0.579549 1.3172 0.317989 0 0 0.018956 121 131 134 255 
0.633415 1.3172 0.317989 0 0 0.018956 121 131 134 255 
0.633415 1.66911 0.317989 0 0 0.018956 121 131 134 255 
0.579549 1.3172 0.317989 0 0 0.018956 121 131 134 255 
0.633415 1.66911 0.317989 0 0 0.018956 121 131 134 255 
0.579549 1.66911 0.317989 0 0 0.018956 121 131 134 255 
0.579549 1.66911 0.317989 -0 0.00290138 0 128 139 142 255 
0.633415 1.66911 0.317989 -0 0.00290138 0 128 139 142 255 
0.633415 1.66911 0.264126 -0 0.00290138 0 128 139 142 255 
0.579549 1.66911 0.317989 0 0.00290138 0 128 139 142 255 
0.633415 1.66911 0.264126 0 0.00290138 0 128 139 142 255 
0.579549 1.66911 0.264126 0 0.00290138 0 128 139 142 255 
0.579549 1.66911 0.264126 0 0 -0.018956 121 131 134 255 
0.633415 1.66911 0.264126 0 0 -0.018956 121 131 134 255 
0.633415 1.3172 0.264126 0 0 -0.018956 121 131 134 255 
0.579549 1.66911 0.264126 0 0 -0.018956 121 131 134 255 
0.633415 1.3172 0.264126 0 0 -0.018956 121 131 134 255 
0.579549 1.3172 0.264126 0 0 -0.018956 121 131 134 255 
0.579549 1.3172 0.264126 0 -0.00290138 0 121 131 134 255 
0.633415 1.3172 0.264126 0 -0.00290138 0 121 131 134 255 
0.633415 1.3172 0.317989 0 -0.00290138 0 121 131 134 255 
0.579549 1.3172 0.264126 0 -0.00290138 0 121 131 134 255 
0.633415 1.3172 0.317989 0 -0.00290138 0 121 131 134 255 
0.579549 1.3172 0.317989 0 -0.00290138 0 121 131 134 255 
0.633415 1.3172 0.317989 0.0189549 0 0 112 122 125 255 
0.633415 1.3172 0.264126 0.0189549 0 0 112 122 125 255 
0.633415 1.66911 0.264126 0.0189549 0 0 112 122 125 255 
0.633415 1.3172 0.317989 0.0189549 -0 0 112 122 125 255 
0.633415 1.66911 0.264126 0.0189549 -0 0 112 122 125 255 
0.633415 1.66911 0.317989 0.0189549 -0 0 112 122 125 255 
0.579549 1.3172 0.264126 -0.0189549 0 0 112 122 125 255 
0.579549 1.3172 0.317989 -0.0189549 0 0 112 122 125 255 
0.579549 1.66911 0.317989 -0.0189549 0 0 112 122 125 255 
0.579549 1.3172 0.264126 -0.0189549 0 0 112 122 125 255 
0.579549 1.66911 0.317989 -0.0189549 0 0 112 122 125 255 
0.579549 1.66911 0.264126 -0.0189549 0 0 112 122 125 255 
-0.240674 0.22676 0.264118 0 0 0.184919 108 105 102 255 
0.239147 0.22676 0.264118 0 0 0.184919 108 105 102 255 
0.239147 0.612152 0.264118 0 0 0.184919 108 105 102 255 
-0.240674 0.22676 0.264118 0 0 0.184919 108 105 102 255 
0.239147 0.612152 0.264118 0 0 0.184919 108 105 102 255 
-0.240674 0.612152 0.264118 0 0 0.184919 108 105 102 255 
-0.411496 2.9772 0.264118 -0 0.513171 0 157 152 148 255 
0.410733 2.9772 0.264118 -0 0.513171 0 157 152 148 255 
0.410733 2.9772 -0.360004 -0 0.513171 0 157 152 148 255 
-0.411496 2.9772 0.264118 0 0.513171 0 157 152 148 255 
0.410733 2.9772 -0.360004 0 0.513171 0 157 152 148 255 
-0.411496 2.9772 -0.360004 0 0.513171 0 157 152 148 255 
-0.411496 1.4886 -0.360004 0 0 -1.22397 141 137 133 255 
0.410733 1.4886 -0.360004 0 0 -1.22397 141 137 133 255 
0.410733 0 -0.360004 0 0 -1.22397 141 137 133 255 
-0.411496 1.4886 -0.360004 0 0 -1.22397 141 137 133 255 
0.410733 0 -0.360004 0 0 -1.22397 141 137 133 255 
-0.411496 0 -0.360004 0 0 -1.22397 141 137 133 255 
-0.411496 0 -0.360004 0 -0.513171 0 141 137 133 255 
0.410733 0 -0.360004 0 -0.513171 0 141 137 133 255 
0.410733 0 0.264118 0 -0.513171 0 141 137 133 255 
-0.411496 0 -0.360004 0 -0.513171 0 141 137 133 255 
0.410733 0 0.264118 0 -0.513171 0 141 137 133 255 
-0.411496 0 0.264118 0 -0.513171 0 141 137 133 255 
-0.411496 0 0.264118 0 0 0.0620199 141 137 133 255 
0.410733 0 0.264118 0 0 0.0620199 141 137 133 255 
0.339664 0.075429 0.264118 0 0 0.0620199 141 137 133 255 
-0.411496 0 0.264118 0 0 0.0513562 141 137 133 255 
0.339664 0.075429 0.264118 0 0 0.0513562 141 137 133 255 
-0.341191 0.075429 0.264118 0 0 0.0513562 141 137 133 255 
0.410733 0 0.264118 0 -0 0.105793 141 137 133 255 
0.410733 1.4886 0.264118 0 -0 0.105793 141 137 133 255 
0.339664 1.4886 0.264118 0 -0 0.105793 141 137 133 255 
0.410733 0 0.264118 0 0 0.100433 141 137 133 255 
0.339664 1.4886 0.264118 0 0 0.100433 141 137 133 255 
0.339664 0.075429 0.264118 0 0 0.100433 141 137 133 255 
0.410733 2.9772 0.264118 0 0 0.0620207 141 137 133 255 
-0.411496 2.9772 0.264118 0 0 0.0620207 141 137 133 255 
-0.341191 2.90177 0.264118 0 0 0.0620207 141 137 133 255 
0.410733 2.9772 0.264118 0 0 0.0513568 141 137 133 255 
-0.341191 2.90177 0.264118 0 0 0.0513568 141 137 133 255 
0.339664 2.90177 0.264118 0 0 0.0513568 141 137 133 255 
-0.411496 1.4886 0.264118 0 0 0.104656 141 137 133 255 
-0.411496 0 0.264118 0 0 0.104656 141 137 133 255 
-0.341191 0.075429 0.264118 0 0 0.104656 141 137 133 255 
-0.411496 1.4886 0.264118 -0 0 0.099353 141 137 133 255 
-0.341191 0.075429 0.264118 -0 0 0.099353 141 137 133 255 
-0.341191 1.4886 0.264118 -0 0 0.099353 141 137 133 255 
-0.341191 0.075429 0.264118 0 0 0.031111 35 35 35 255 
0.339664 0.075429 0.264118 0 0 0.031111 35 35 35 255 
0.300084 0.121123 0.264118 0 0 0.031111 35 35 35 255 
-0.341191 0.075429 0.264118 0 0 0.0274939 35 35 35 255 
0.300084 0.121123 0.264118 0 0 0.0274939 35 35 35 255 
-0.301611 0.121123 0.264118 0 0 0.0274939 35 35 35 255 
0.339664 0.075429 0.264118 0 -0 0.0559333 35 35 35 255 
0.339664 1.4886 0.264118 0 -0 0.0559333 35 35 35 255 
0.300084 1.4886 0.264118 0 -0 0.0559333 35 35 35 255 
0.339664 0.075429 0.264118 0 0 0.0541248 35 35 35 255 
0.300084 1.4886 0.264118 0 0 0.0541248 35 35 35 255 
0.300084 0.121123 0.264118 0 0 0.0541248 35 35 35 255 
0.339664 2.90177 0.264118 0 0 0.0311083 35 35 35 255 
-0.341191 2.90177 0.264118 0 0 0.0311083 35 35 35 255 
-0.301611 2.85608 0.264118 0 0 0.0311083 35 35 35 255 
0.339664 2.90177 0.264118 0 0 0.0274915 35 35 35 255 
-0.301611 2.85608 0.264118 0 0 0.0274915 35 35 35 255 
0.300084 2.85608 0.264118 0 0 0.0274915 35 35 35 255 
-0.341191 1.4886 0.264118 0 0 0.0559333 35 35 35 255 
-0.341191 0.075429 0.264118 0 0 0.0559333 35 35 35 255 
-0.301611 0.121123 0.264118 0 0 0.0559333 35 35 35 255 
-0.341191 1.4886 0.264118 -0 0 0.0541247 35 35 35 255 
-0.301611 0.121123 0.264118 -0 0 0.0541247 35 35 35 255 
-0.301611 1.4886 0.264118 -0 0 0.0541247 35 35 35 255 
-0.301611 0.121123 0.264118 0 0 0.0635613 141 137 133 255 
0.300084 0.121123 0.264118 0 0 0.0635613 141 137 133 255 
0.239147 0.22676 0.264118 0 0 0.0635613 141 137 133 255 
-0.301611 0.121123 0.264118 0 0 0.0506869 141 137 133 255 
0.239147 0.22676 0.264118 0 0 0.0506869 141 137 133 255 
-0.240674 0.22676 0.264118 0 0 0.0506869 141 137 133 255 
0.300084 0.121123 0.264118 0 -0 0.08333 141 137 133 255 
0.300084 1.4886 0.264118 0 -0 0.08333 141 137 133 255 
0.239147 0.612152 0.264118 0 -0 0.08333 141 137 133 255 
0.300084 0.121123 0.264118 0 0 0.0234846 141 137 133 255 
0.239147 0.612152 0.264118 0 0 0.0234846 141 137 133 255 
0.239147 0.22676 0.264118 0 0 0.0234846 141 137 133 255 
0.300084 2.85608 0.264118 0 0 0.285264 141 137 133 255 
-0.301611 2.85608 0.264118 0 0 0.285264 141 137 133 255 
-0.240674 2.38198 0.264118 0 0 0.285264 141 137 133 255 
0.300084 2.85608 0.264118 0 0 0.227483 141 137 133 255 
-0.240674 2.38198 0.264118 0 0 0.227483 141 137 133 255 
0.239147 2.38198 0.264118 0 0 0.227483 141 137 133 255 
-0.301611 1.4886 0.264118 0 0 0.08333 141 137 133 255 
-0.301611 0.121123 0.264118 0 0 0.08333 141 137 133 255 
-0.240674 0.22676 0.264118 0 0 0.08333 141 137 133 255 
-0.301611 1.4886 0.264118 0 0 0.0234846 141 137 133 255 
-0.240674 0.22676 0.264118 0 0 0.0234846 141 137 133 255 
-0.240674 0.612152 0.264118 0 0 0.0234846 141 137 133 255 
0.410733 1.4886 0.264118 0 -0 0.105793 141 137 133 255 
0.410733 2.9772 0.264118 0 -0 0.105793 141 137 133 255 
0.339664 2.90177 0.264118 0 -0 0.105793 141 137 133 255 
0.410733 1.4886 0.264118 0 0 0.100433 141 137 133 255 
0.339664 2.90177 0.264118 0 0 0.100433 141 137 133 255 
0.339664 1.4886 0.264118 0 0 0.100433 141 137 133 255 
0.300084 1.4886 0.264118 0 0 0.0559333 35 35 35 255 
0.339664 1.4886 0.264118 0 0 0.0559333 35 35 35 255 
0.339664 2.90177 0.264118 0 0 0.0559333 35 35 35 255 
0.300084 1.4886 0.264118 0 0 0.0541249 35 35 35 255 
0.339664 2.90177 0.264118 0 0 0.0541249 35 35 35 255 
0.300084 2.85608 0.264118 0 0 0.0541249 35 35 35 255 
0.239147 1.99659 0.264118 -0 0 0.0833301 141 137 133 255 
0.300084 1.4886 0.264118 -0 0 0.0833301 141 137 133 255 
0.300084 2.85608 0.264118 -0 0 0.0833301 141 137 133 255 
0.239147 1.99659 0.264118 0 0 0.0234845 141 137 133 255 
0.300084 2.85608 0.264118 0 0 0.0234845 141 137 133 255 
0.239147 2.38198 0.264118 0 0 0.0234845 141 137 133 255 
-0.161001 2.18769 0.264118 -0 0 0.0513478 211 177 41 255 
-0.002362 2.02905 0.264118 -0 0 0.0513478 211 177 41 255 
0.159474 2.19089 0.264118 -0 0 0.0513478 211 177 41 255 
-0.161001 2.18769 0.264118 0 0 0.0513446 211 177 41 255 
0.159474 2.19089 0.264118 0 0 0.0513446 211 177 41 255 
0.000836 2.34952 0.264118 0 0 0.0513446 211 177 41 255 
-0.301611 2.85608 0.264118 0 0 0.0833301 141 137 133 255 
-0.301611 1.4886 0.264118 0 0 0.0833301 141 137 133 255 
-0.240674 1.99659 0.264118 0 0 0.0833301 141 137 133 255 
-0.301611 2.85608 0.264118 0 0 0.0234845 141 137 133 255 
-0.240674 1.99659 0.264118 0 0 0.0234845 141 137 133 255 
-0.240674 2.38198 0.264118 0 0 0.0234845 141 137 133 255 
-0.341191 2.90177 0.264118 0 0 0.0559333 35 35 35 255 
-0.341191 1.4886 0.264118 0 0 0.0559333 35 35 35 255 
-0.301611 1.4886 0.264118 0 0 0.0559333 35 35 35 255 
-0.341191 2.90177 0.264118 0 0 0.0541248 35 35 35 255 
-0.301611 1.4886 0.264118 0 0 0.0541248 35 35 35 255 
-0.301611 2.85608 0.264118 0 0 0.0541248 35 35 35 255 
-0.411496 2.9772 0.264118 0 0 0.104656 141 137 133 255 
-0.411496 1.4886 0.264118 0 0 0.104656 141 137 133 255 
-0.341191 1.4886 0.264118 0 0 0.104656 141 137 133 255 
-0.411496 2.9772 0.264118 0 0 0.099353 141 137 133 255 
-0.341191 1.4886 0.264118 0 0 0.099353 141 137 133 255 
-0.341191 2.90177 0.264118 0 0 0.099353 141 137 133 255 
-0.411496 2.9772 -0.360004 0 0 -1.22397 141 137 133 255 
0.410733 2.9772 -0.360004 0 0 -1.22397 141 137 133 255 
0.410733 1.4886 -0.360004 0 0 -1.22397 141 137 133 255 
-0.411496 2.9772 -0.360004 0 0 -1.22397 141 137 133 255 
0.410733 1.4886 -0.360004 0 0 -1.22397 141 137 133 255 
-0.411496 1.4886 -0.360004 0 0 -1.22397 141 137 133 255 
0.239147 0.612152 0.264118 0 0 0.0843635 141 137 133 255 
0.300084 1.4886 0.264118 0 0 0.0843635 141 137 133 255 
0.239147 1.99659 0.264118 0 0 0.0843635 141 137 133 255 
-0.240674 0.612152 0.264118 0 0 0.664282 141 137 133 255 
0.239147 0.612152 0.264118 0 0 0.664282 141 137 133 255 
0.239147 1.99659 0.264118 0 0 0.664282 141 137 133 255 
-0.240674 0.612152 0.264118 0 0 0.664282 141 137 133 255 
0.239147 1.99659 0.264118 0 0 0.664282 141 137 133 255 
-0.240674 1.99659 0.264118 0 0 0.664282 141 137 133 255 
-0.301611 1.4886 0.264118 -0 0 0.0843635 141 137 133 255 
-0.240674 0.612152 0.264118 -0 0 0.0843635 141 137 133 255 
-0.240674 1.99659 0.264118 -0 0 0.0843635 141 137 133 255 
-0.243444 1.3172 0.317989 0 0 0.018956 121 131 134 255 
-0.189578 1.3172 0.317989 0 0 0.018956 121 131 134 255 
-0.189578 1.66911 0.317989 0 0 0.018956 121 131 134 255 
-0.243444 1.3172 0.317989 0 0 0.018956 121 131 134 255 
-0.189578 1.66911 0.317989 0 0 0.018956 121 131 134 255 
-0.243444 1.66911 0.317989 0 0 0.018956 121 131 134 255 
-0.243444 1.66911 0.317989 -0 0.00290138 0 128 139 142 255 
-0.189578 1.66911 0.317989 -0 0.00290138 0 128 139 142 255 
-0.189578 1.66911 0.264126 -0 0.00290138 0 128 139 142 255 
-0.243444 1.66911 0.317989 0 0.00290138 0 128 139 142 255 
-0.189578 1.66911 0.264126 0 0.00290138 0 128 139 142 255 
-0.243444 1.66911 0.264126 0 0.00290138 0 128 139 142 255 
-0.243444 1.66911 0.264126 0 0 -0.018956 121 131 134 255 
-0.189578 1.66911 0.264126 0 0 -0.018956 121 131 134 255 
-0.189578 1.3172 0.264126 0 0 -0.018956 121 131 134 255 
-0.243444 1.66911 0.264126 0 0 -0.018956 121 131 134 255 
-0.189578 1.3172 0.264126 0 0 -0.018956 121 131 134 255 
-0.243444 1.3172 0.264126 0 0 -0.018956 121 131 134 255 
-0.243444 1.3172 0.264126 0 -0.00290138 0 121 131 134 255 
-0.189578 1.3172 0.264126 0 -0.00290138 0 121 131 134 255 
-0.189578 1.3172 0.317989 0 -0.00290138 0 121 131 134 255 
-0.243444 1.3172 0.264126 0 -0.00290138 0 121 131 134 255 
-0.189578 1.3172 0.317989 0 -0.00290138 0 121 131 134 255 
-0.243444 1.3172 0.317989 0 -0.00290138 0 121 131 134 255 
-0.189578 1.3172 0.317989 0.0189549 0 0 112 122 125 255 
-0.189578 1.3172 0.264126 0.0189549 0 0 112 122 125 255 
-0.189578 1.66911 0.264126 0.0189549 0 0 112 122 125 255 
-0.189578 1.3172 0.317989 0.0189549 -0 0 112 122 125 255 
-0.189578 1.66911 0.264126 0.0189549 -0 0 112 122 125 255 
-0.189578 1.66911 0.317989 0.0189549 -0 0 112 122 125 255 
-0.243444 1.3172 0.264126 -0.0189549 0 0 112 122 125 255 
-0.243444 1.3172 0.317989 -0.0189549 0 0 112 122 125 255 
-0.243444 1.66911 0.317989 -0.0189549 0 0 112 122 125 255 
-0.243444 1.3172 0.264126 -0.0189549 0 0 112 122 125 255 
-0.243444 1.66911 0.317989 -0.0189549 0 0 112 122 125 255 
-0.243444 1.66911 0.264126 -0.0189549 0 0 112 122 125 255 
0.582319 1.99659 0.264118 0 0 0.0176334 180 80 63 255 
1.06214 1.99659 0.264118 0 0 0.0176334 180 80 63 255 
0.826021 2.03334 0.264118 0 0 0.0176334 180 80 63 255 
0.582319 1.99659 0.264118 0 0 0.044 180 80 63 255 
0.826021 2.03334 0.264118 0 0 0.044 180 80 63 255 
0.669133 2.19023 0.264118 0 0 0.044 180 80 63 255 
1.06214 1.99659 0.264118 0 -0 0.0306759 180 80 63 255 
1.06214 2.38198 0.264118 0 -0 0.0306759 180 80 63 255 
0.982543 2.19271 0.264118 0 -0 0.0306759 180 80 63 255 
1.06214 1.99659 0.264118 0 0 0.0433824 180 80 63 255 
0.982543 2.19271 0.264118 0 0 0.0433824 180 80 63 255 
0.826021 2.03334 0.264118 0 0 0.0433824 180 80 63 255 
1.06214 2.38198 0.264118 0 0 0.0155365 180 80 63 255 
0.582319 2.38198 0.264118 0 0 0.0155365 180 80 63 255 
0.825655 2.3496 0.264118 0 0 0.0155365 180 80 63 255 
1.06214 2.38198 0.264118 0 0 0.0421822 180 80 63 255 
0.825655 2.3496 0.264118 0 0 0.0421822 180 80 63 255 
0.982543 2.19271 0.264118 0 0 0.0421822 180 80 63 255 
0.582319 2.38198 0.264118 0 0 0.0334572 180 80 63 255 
0.582319 1.99659 0.264118 0 0 0.0334572 180 80 63 255 
0.669133 2.19023 0.264118 0 0 0.0334572 180 80 63 255 
0.582319 2.38198 0.264118 0 0 0.0438487 180 80 63 255 
0.669133 2.19023 0.264118 0 0 0.0438487 180 80 63 255 
0.825655 2.3496 0.264118 0 0 0.0438487 180 80 63 255 
-0.240674 1.99659 0.264118 0 0 0.015575 180 80 63 255 
0.239147 1.99659 0.264118 0 0 0.015575 180 80 63 255 
-0.002362 2.02905 0.264118 0 0 0.015575 180 80 63 255 
-0.240674 1.99659 0.264118 0 0 0.0429552 180 80 63 255 
-0.002362 2.02905 0.264118 0 0 0.0429552 180 80 63 255 
-0.161001 2.18769 0.264118 0 0 0.0429552 180 80 63 255 
0.239147 1.99659 0.264118 0 -0 0.0307052 180 80 63 255 
0.239147 2.38198 0.264118 0 -0 0.0307052 180 80 63 255 
0.159474 2.19089 0.264118 0 -0 0.0307052 180 80 63 255 
0.239147 1.99659 0.264118 0 0 0.044339 180 80 63 255 
0.159474 2.19089 0.264118 0 0 0.044339 180 80 63 255 
-0.002362 2.02905 0.264118 0 0 0.044339 180 80 63 255 
0.239147 2.38198 0.264118 0 0 0.015575 180 80 63 255 
-0.240674 2.38198 0.264118 0 0 0.015575 180 80 63 255 
0.000836 2.34952 0.264118 0 0 0.015575 180 80 63 255 
0.239147 2.38198 0.264118 0 0 0.0429526 180 80 63 255 
0.000836 2.34952 0.264118 0 0 0.0429526 180 80 63 255 
0.159474 2.19089 0.264118 0 0 0.0429526 180 80 63 255 
-0.240674 2.38198 0.264118 0 0 0.0307052 180 80 63 255 
-0.240674 1.99659 0.264118 0 0 0.0307052 180 80 63 255 
-0.161001 2.18769 0.264118 0 0 0.0307052 180 80 63 255 
-0.240674 2.38198 0.264118 0 0 0.0443368 180 80 63 255 
-0.161001 2.18769 0.264118 0 0 0.0443368 180 80 63 255 
0.000836 2.34952 0.264118 0 0 0.0443368 180 80 63 255 
-0.411496 1.4886 0.264118 -0.929068 0 0 141 137 133 255 
-0.411496 2.9772 0.264118 -0.929068 0 0 141 137 133 255 
-0.411496 2.9772 -0.360004 -0.929068 0 0 141 137 133 255 
-0.411496 1.4886 0.264118 -0.929068 0 0 141 137 133 255 
-0.411496 2.9772 -0.360004 -0.929068 0 0 141 137 133 255 
-0.411496 1.4886 -0.360004 -0.929068 0 0 141 137 133 255 
-0.411496 1.4886 -0.360004 -0.929068 0 0 141 137 133 255 
-0.411496 0 -0.360004 -0.929068 0 0 141 137 133 255 
-0.411496 0 0.264118 -0.929068 0 0 141 137 133 255 
-0.411496 1.4886 -0.360004 -0.929068 0 0 141 137 133 255 
-0.411496 0 0.264118 -0.929068 0 0 141 137 133 255 
-0.411496 1.4886 0.264118 -0.929068 0 0 141 137 133 255 
3 0 1 2
3 3 4 5
3 6 7 8
3 9 10 11
3 12 13 14
3 15 16 17
3 18 19 20
3 21 22 23
3 24 25 26
3 27 28 29
3 30 31 32
3 33 34 35
3 36 37 38
3 39 40 41
3 42 43 44
3 45 46 47
3 48 49 50
3 51 52 53
3 54 55 56
3 57 58 59
3 60 61 62
3 63 64 65
3 66 67 68
3 69 70 71
3 72 73 74
3 75 76 77
3 78 79 80
3 81 82 83
3 84 85 86
3 87 88 89
3 90 91 92
3 93 94 95
3 96 97 98
3 99 100 101
3 102 103 104
3 105 106 107
3 108 109 110
3 111 112 113
3 114 115 116
3 117 118 119
3 120 121 122
3 123 124 125
3 126 127 128
3 129 130 131
3 132 133 134
3 135 136 137
3 138 139 140
3 141 142 143
3 144 145 146
3 147 148 149
3 150 151 152
3 153 154 155
3 156 157 158
3 159 160 161
3 162 163 164
3 165 166 167
3 168 169 170
3 171 172 173
3 174 175 176
3 177 178 179
3 180 181 182
3 183 184 185
3 186 187 188
3 189 190 191
3 192 193 194
3 195 196 197
3 198 199 200
3 201 202 203
3 204 205 206
3 207 208 209
3 210 211 212
3 213 214 215
3 216 217 218
3 219 220 221
3 222 223 224
3 225 226 227
3 228 229 230
3 231 232 233
3 234 235 236
3 237 238 239
3 240 241 242
3 243 244 245
3 246 247 248
3 249 250 251
3 252 253 254
3 255 256 257
3 258 259 260
3 261 262 263
3 264 265 266
3 267 268 269
3 270 271 272
3 273 274 275
3 276 277 278
3 279 280 281
3 282 283 284
3 285 286 287
3 288 289 290
3 291 292 293
3 294 295 296
3 297 298 299
3 300 301 302
3 303 304 305
3 306 307 308
3 309 310 311
3 312 313 314
3 315 316 317
3 318 319 320
3 321 322 323
3 324 325 326
3 327 328 329
3 330 331 332
3 333 334 335
3 336 337 338
3 339 340 341
3 342 343 344
3 345 346 347
3 348 349 350
3 351 352 353
3 354 355 356
3 357 358 359
3 360 361 362
3 363 364 365
3 366 367 368
3 369 370 371
3 372 373 374
3 375 376 377
3 378 379 380
3 381 382 383
3 384 385 386
3 387 388 389
3 390 391 392
3 393 394 395
3 396 397 398
3 399 400 401
3 402 403 404
3 405 406 407
3 408 409 410
3 411 412 413
3 414 415 416
3 417 418 419
3 420 421 422
3 423 424 425
3 426 427 428
3 429 430 431
3 432 433 434
3 435 436 437
3 438 439 440
3 441 442 443
3 444 445 446
3 447 448 449
3 450 451 452
3 453 454 455
