ply
format ascii 1.0
comment Feeney's Flatenator generated
comment TextureFile SpaceInteriors_Texture.png
element vertex 156
property float x
property float y
property float z
property float nx
property float ny
property float nz
property uchar red
property uchar green
property uchar blue
property uchar alpha
element face 52
property list uchar int vertex_indices
end_header
-0.079603 0.479997 0.079605 0 0 0.0296623 168 177 190 255 
0.079604 0.479997 0.079605 0 0 0.0296623 168 177 190 255 
0.079604 0.66631 0.079605 0 0 0.0296623 168 177 190 255 
-0.079603 0.479997 0.079605 0 0 0.0296623 168 177 190 255 
0.079604 0.66631 0.079605 0 0 0.0296623 168 177 190 255 
-0.079603 0.66631 0.079605 0 0 0.0296623 168 177 190 255 
-0.06894 0.693189 0.068939 -0 0.0190106 0 122 128 138 255 
0.06894 0.693189 0.068939 -0 0.0190106 0 122 128 138 255 
0.06894 0.693189 -0.068939 -0 0.0190106 0 122 128 138 255 
-0.06894 0.693189 0.068939 0 0.0190106 0 122 128 138 255 
0.06894 0.693189 -0.068939 0 0.0190106 0 122 128 138 255 
-0.06894 0.693189 -0.068939 0 0.0190106 0 122 128 138 255 
-0.079603 0.66631 -0.079605 0 0 -0.0296623 168 177 190 255 
0.079604 0.66631 -0.079605 0 0 -0.0296623 168 177 190 255 
0.079604 0.479997 -0.079605 0 0 -0.0296623 168 177 190 255 
-0.079603 0.66631 -0.079605 0 0 -0.0296623 168 177 190 255 
0.079604 0.479997 -0.079605 0 0 -0.0296623 168 177 190 255 
-0.079603 0.479997 -0.079605 0 0 -0.0296623 168 177 190 255 
-0.148738 0 -0.148735 0 -0.0884902 0 168 177 190 255 
0.148738 0 -0.148735 0 -0.0884902 0 168 177 190 255 
0.148738 0 0.148735 0 -0.0884902 0 168 177 190 255 
-0.148738 0 -0.148735 0 -0.0884902 0 168 177 190 255 
0.148738 0 0.148735 0 -0.0884902 0 168 177 190 255 
-0.148738 0 0.148735 0 -0.0884902 0 168 177 190 255 
0.079604 0.479997 0.079605 0.0296629 0 0 153 162 173 255 
0.079604 0.479997 -0.079605 0.0296629 0 0 153 162 173 255 
0.079604 0.66631 -0.079605 0.0296629 0 0 153 162 173 255 
0.079604 0.479997 0.079605 0.0296629 -0 0 153 162 173 255 
0.079604 0.66631 -0.079605 0.0296629 -0 0 153 162 173 255 
0.079604 0.66631 0.079605 0.0296629 -0 0 153 162 173 255 
-0.079603 0.479997 -0.079605 -0.0296629 0 0 153 162 173 255 
-0.079603 0.479997 0.079605 -0.0296629 0 0 153 162 173 255 
-0.079603 0.66631 0.079605 -0.0296629 0 0 153 162 173 255 
-0.079603 0.479997 -0.079605 -0.0296629 0 0 153 162 173 255 
-0.079603 0.66631 0.079605 -0.0296629 0 0 153 162 173 255 
-0.079603 0.66631 -0.079605 -0.0296629 0 0 153 162 173 255 
-0.079603 0.66631 0.079605 0 -0.00331724 0 168 177 190 255 
0.079604 0.66631 0.079605 0 -0.00331724 0 168 177 190 255 
0.10044 0.66631 0.100441 0 -0.00331724 0 168 177 190 255 
-0.079603 0.66631 0.079605 0 -0.00418554 0 168 177 190 255 
0.10044 0.66631 0.100441 0 -0.00418554 0 168 177 190 255 
-0.10044 0.66631 0.100441 0 -0.00418554 0 168 177 190 255 
0.079604 0.66631 0.079605 0 -0.0033173 0 168 177 190 255 
0.079604 0.66631 -0.079605 0 -0.0033173 0 168 177 190 255 
0.10044 0.66631 -0.100441 0 -0.0033173 0 168 177 190 255 
0.079604 0.66631 0.079605 0 -0.00418558 0 168 177 190 255 
0.10044 0.66631 -0.100441 0 -0.00418558 0 168 177 190 255 
0.10044 0.66631 0.100441 0 -0.00418558 0 168 177 190 255 
0.079604 0.66631 -0.079605 -0 -0.00331724 0 168 177 190 255 
-0.079603 0.66631 -0.079605 -0 -0.00331724 0 168 177 190 255 
-0.10044 0.66631 -0.100441 -0 -0.00331724 0 168 177 190 255 
0.079604 0.66631 -0.079605 0 -0.00418554 -0 168 177 190 255 
-0.10044 0.66631 -0.100441 0 -0.00418554 -0 168 177 190 255 
0.10044 0.66631 -0.100441 0 -0.00418554 -0 168 177 190 255 
-0.079603 0.66631 -0.079605 0 -0.00331746 0 168 177 190 255 
-0.079603 0.66631 0.079605 0 -0.00331746 0 168 177 190 255 
-0.10044 0.66631 0.100441 0 -0.00331746 0 168 177 190 255 
-0.079603 0.66631 -0.079605 -0 -0.00418578 0 168 177 190 255 
-0.10044 0.66631 0.100441 -0 -0.00418578 0 168 177 190 255 
-0.10044 0.66631 -0.100441 -0 -0.00418578 0 168 177 190 255 
-0.10044 0.66631 0.100441 0 0 0.00539946 168 177 190 255 
0.10044 0.66631 0.100441 0 0 0.00539946 168 177 190 255 
0.10044 0.693189 0.100441 0 0 0.00539946 168 177 190 255 
-0.10044 0.66631 0.100441 0 0 0.00539946 168 177 190 255 
0.10044 0.693189 0.100441 0 0 0.00539946 168 177 190 255 
-0.10044 0.693189 0.100441 0 0 0.00539946 168 177 190 255 
0.10044 0.66631 0.100441 0.00539951 0 0 153 162 173 255 
0.10044 0.66631 -0.100441 0.00539951 0 0 153 162 173 255 
0.10044 0.693189 -0.100441 0.00539951 0 0 153 162 173 255 
0.10044 0.66631 0.100441 0.00539951 -0 0 153 162 173 255 
0.10044 0.693189 -0.100441 0.00539951 -0 0 153 162 173 255 
0.10044 0.693189 0.100441 0.00539951 -0 0 153 162 173 255 
0.10044 0.66631 -0.100441 0 0 -0.00539946 168 177 190 255 
-0.10044 0.66631 -0.100441 0 0 -0.00539946 168 177 190 255 
-0.10044 0.693189 -0.100441 0 0 -0.00539946 168 177 190 255 
0.10044 0.66631 -0.100441 0 0 -0.00539946 168 177 190 255 
-0.10044 0.693189 -0.100441 0 0 -0.00539946 168 177 190 255 
0.10044 0.693189 -0.100441 0 0 -0.00539946 168 177 190 255 
-0.10044 0.66631 -0.100441 -0.00539951 0 0 153 162 173 255 
-0.10044 0.66631 0.100441 -0.00539951 0 0 153 162 173 255 
-0.10044 0.693189 0.100441 -0.00539951 0 0 153 162 173 255 
-0.10044 0.66631 -0.100441 -0.00539951 0 0 153 162 173 255 
-0.10044 0.693189 0.100441 -0.00539951 0 0 153 162 173 255 
-0.10044 0.693189 -0.100441 -0.00539951 0 0 153 162 173 255 
-0.10044 0.693189 0.100441 -0 0.00632812 0 181 191 205 255 
0.10044 0.693189 0.100441 -0 0.00632812 0 181 191 205 255 
0.06894 0.693189 0.068939 -0 0.00632812 0 181 191 205 255 
-0.10044 0.693189 0.100441 0 0.0043435 0 181 191 205 255 
0.06894 0.693189 0.068939 0 0.0043435 0 181 191 205 255 
-0.06894 0.693189 0.068939 0 0.0043435 0 181 191 205 255 
0.10044 0.693189 0.100441 0 0.00632778 0 181 191 205 255 
0.10044 0.693189 -0.100441 0 0.00632778 0 181 191 205 255 
0.06894 0.693189 -0.068939 0 0.00632778 0 181 191 205 255 
0.10044 0.693189 0.100441 0 0.00434316 0 181 191 205 255 
0.06894 0.693189 -0.068939 0 0.00434316 0 181 191 205 255 
0.06894 0.693189 0.068939 0 0.00434316 0 181 191 205 255 
0.10044 0.693189 -0.100441 0 0.00632812 0 181 191 205 255 
-0.10044 0.693189 -0.100441 0 0.00632812 0 181 191 205 255 
-0.06894 0.693189 -0.068939 0 0.00632812 0 181 191 205 255 
0.10044 0.693189 -0.100441 0 0.0043435 0 181 191 205 255 
-0.06894 0.693189 -0.068939 0 0.0043435 0 181 191 205 255 
0.06894 0.693189 -0.068939 0 0.0043435 0 181 191 205 255 
-0.10044 0.693189 -0.100441 0 0.00632778 0 181 191 205 255 
-0.10044 0.693189 0.100441 0 0.00632778 0 181 191 205 255 
-0.06894 0.693189 0.068939 0 0.00632778 0 181 191 205 255 
-0.10044 0.693189 -0.100441 0 0.00434316 0 181 191 205 255 
-0.06894 0.693189 0.068939 0 0.00434316 0 181 191 205 255 
-0.06894 0.693189 -0.068939 0 0.00434316 0 181 191 205 255 
-0.079603 0.479997 -0.079605 0 0.0184153 -0.0613316 168 177 190 255 
0.079604 0.479997 -0.079605 0 0.0184153 -0.0613316 168 177 190 255 
0.195272 0.094765 -0.195274 0 0.0184153 -0.0613316 168 177 190 255 
-0.079603 0.479997 -0.079605 0 0.0451738 -0.15045 168 177 190 255 
0.195272 0.094765 -0.195274 0 0.0451738 -0.15045 168 177 190 255 
-0.195272 0.094765 -0.195274 0 0.0451738 -0.15045 168 177 190 255 
0.079604 0.479997 -0.079605 0.0613328 0.0184155 -0 153 162 173 255 
0.079604 0.479997 0.079605 0.0613328 0.0184155 -0 153 162 173 255 
0.195272 0.094765 0.195274 0.0613328 0.0184155 -0 153 162 173 255 
0.079604 0.479997 -0.079605 0.150452 0.0451739 0 153 162 173 255 
0.195272 0.094765 0.195274 0.150452 0.0451739 0 153 162 173 255 
0.195272 0.094765 -0.195274 0.150452 0.0451739 0 153 162 173 255 
0.079604 0.479997 0.079605 0 0.0184153 0.0613316 168 177 190 255 
-0.079603 0.479997 0.079605 0 0.0184153 0.0613316 168 177 190 255 
-0.195272 0.094765 0.195274 0 0.0184153 0.0613316 168 177 190 255 
0.079604 0.479997 0.079605 0 0.0451738 0.15045 168 177 190 255 
-0.195272 0.094765 0.195274 0 0.0451738 0.15045 168 177 190 255 
0.195272 0.094765 0.195274 0 0.0451738 0.15045 168 177 190 255 
-0.079603 0.479997 0.079605 -0.0613328 0.0184157 0 153 162 173 255 
-0.079603 0.479997 -0.079605 -0.0613328 0.0184157 0 153 162 173 255 
-0.195272 0.094765 -0.195274 -0.0613328 0.0184157 0 153 162 173 255 
-0.079603 0.479997 0.079605 -0.150452 0.0451743 0 153 162 173 255 
-0.195272 0.094765 -0.195274 -0.150452 0.0451743 0 153 162 173 255 
-0.195272 0.094765 0.195274 -0.150452 0.0451743 0 153 162 173 255 
-0.195272 0.094765 -0.195274 0 -0.0181755 -0.0370099 168 177 190 255 
0.195272 0.094765 -0.195274 0 -0.0181755 -0.0370099 168 177 190 255 
0.148738 0 -0.148735 0 -0.0181755 -0.0370099 168 177 190 255 
-0.195272 0.094765 -0.195274 0 -0.0138442 -0.0281903 168 177 190 255 
0.148738 0 -0.148735 0 -0.0138442 -0.0281903 168 177 190 255 
-0.148738 0 -0.148735 0 -0.0138442 -0.0281903 168 177 190 255 
0.195272 0.094765 -0.195274 0.0370103 -0.0181738 0 153 162 173 255 
0.195272 0.094765 0.195274 0.0370103 -0.0181738 0 153 162 173 255 
0.148738 0 0.148735 0.0370103 -0.0181738 0 153 162 173 255 
0.195272 0.094765 -0.195274 0.0281897 -0.0138425 0 153 162 173 255 
0.148738 0 0.148735 0.0281897 -0.0138425 0 153 162 173 255 
0.148738 0 -0.148735 0.0281897 -0.0138425 0 153 162 173 255 
0.195272 0.094765 0.195274 0 -0.0181755 0.0370099 168 177 190 255 
-0.195272 0.094765 0.195274 0 -0.0181755 0.0370099 168 177 190 255 
-0.148738 0 0.148735 0 -0.0181755 0.0370099 168 177 190 255 
0.195272 0.094765 0.195274 0 -0.0138442 0.0281903 168 177 190 255 
-0.148738 0 0.148735 0 -0.0138442 0.0281903 168 177 190 255 
0.148738 0 0.148735 0 -0.0138442 0.0281903 168 177 190 255 
-0.195272 0.094765 0.195274 -0.0370103 -0.0181738 -0 153 162 173 255 
-0.195272 0.094765 -0.195274 -0.0370103 -0.0181738 -0 153 162 173 255 
-0.148738 0 -0.148735 -0.0370103 -0.0181738 -0 153 162 173 255 
-0.195272 0.094765 0.195274 -0.0281897 -0.0138425 0 153 162 173 255 
-0.148738 0 -0.148735 -0.0281897 -0.0138425 0 153 162 173 255 
-0.148738 0 0.148735 -0.0281897 -0.0138425 0 153 162 173 255 
3 0 1 2
3 3 4 5
3 6 7 8
3 9 10 11
3 12 13 14
3 15 16 17
3 18 19 20
3 21 22 23
3 24 25 26
3 27 28 29
3 30 31 32
3 33 34 35
3 36 37 38
3 39 40 41
3 42 43 44
3 45 46 47
3 48 49 50
3 51 52 53
3 54 55 56
3 57 58 59
3 60 61 62
3 63 64 65
3 66 67 68
3 69 70 71
3 72 73 74
3 75 76 77
3 78 79 80
3 81 82 83
3 84 85 86
3 87 88 89
3 90 91 92
3 93 94 95
3 96 97 98
3 99 100 101
3 102 103 104
3 105 106 107
3 108 109 110
3 111 112 113
3 114 115 116
3 117 118 119
3 120 121 122
3 123 124 125
3 126 127 128
3 129 130 131
3 132 133 134
3 135 136 137
3 138 139 140
3 141 142 143
3 144 145 146
3 147 148 149
3 150 151 152
3 153 154 155
