ply
format ascii 1.0
comment Feeney's Flatenator generated
comment TextureFile SpaceInteriors_Texture.png
element vertex 588
property float x
property float y
property float z
property float nx
property float ny
property float nz
property uchar red
property uchar green
property uchar blue
property uchar alpha
element face 196
property list uchar int vertex_indices
end_header
-0.988018 0.076337 0 0 -0 0.0821777 23 80 118 255 
-0.988018 0.411726 0 0 -0 0.0821777 23 80 118 255 
-1.23304 0.411726 0 0 -0 0.0821777 23 80 118 255 
-0.988018 0.076337 0 0 0 0.0821777 23 80 118 255 
-1.23304 0.411726 0 0 0 0.0821777 23 80 118 255 
-1.23304 0.076337 0 0 0 0.0821777 23 80 118 255 
-2.04061 0.278218 -0.172706 -0 1.99678 0 104 78 41 255 
-0.180452 0.278218 -0.172706 -0 1.99678 0 104 78 41 255 
-0.180452 0.278218 -1.24615 -0 1.99678 0 104 78 41 255 
-2.04061 0.278218 -0.172706 0 1.99678 0 104 78 41 255 
-0.180452 0.278218 -1.24615 0 1.99678 0 104 78 41 255 
-2.04061 0.278218 -1.24615 0 1.99678 0 104 78 41 255 
-0.988018 0.076337 -1.41886 0 0 -0.0821777 23 80 118 255 
-1.23304 0.076337 -1.41886 0 0 -0.0821777 23 80 118 255 
-1.23304 0.411726 -1.41886 0 0 -0.0821777 23 80 118 255 
-0.988018 0.076337 -1.41886 0 0 -0.0821777 23 80 118 255 
-1.23304 0.411726 -1.41886 0 0 -0.0821777 23 80 118 255 
-0.988018 0.411726 -1.41886 0 0 -0.0821777 23 80 118 255 
-2.22106 0 -1.41886 0 -3.15138 0 17 58 87 255 
2e-06 0 -1.41886 0 -3.15138 0 17 58 87 255 
2e-06 0 0 0 -3.15138 0 17 58 87 255 
-2.22106 0 -1.41886 0 -3.15138 0 17 58 87 255 
2e-06 0 0 0 -3.15138 0 17 58 87 255 
-2.22106 0 0 0 -3.15138 0 17 58 87 255 
2e-06 0 0 0.692493 0 0 23 80 118 255 
2e-06 0 -1.41886 0.692493 0 0 23 80 118 255 
2e-06 0.488063 -1.41886 0.692493 0 0 23 80 118 255 
2e-06 0 0 0.692493 -0 0 23 80 118 255 
2e-06 0.488063 -1.41886 0.692493 -0 0 23 80 118 255 
2e-06 0.488063 0 0.692493 -0 0 23 80 118 255 
-2.22106 0 -1.41886 -0.692493 0 0 23 80 118 255 
-2.22106 0 0 -0.692493 0 0 23 80 118 255 
-2.22106 0.488063 0 -0.692493 0 0 23 80 118 255 
-2.22106 0 -1.41886 -0.692493 0 0 23 80 118 255 
-2.22106 0.488063 0 -0.692493 0 0 23 80 118 255 
-2.22106 0.488063 -1.41886 -0.692493 0 0 23 80 118 255 
-2.22106 0.488063 0 -0 0.383591 0 31 108 159 255 
2e-06 0.488063 0 -0 0.383591 0 31 108 159 255 
-0.180452 0.488063 -0.172706 -0 0.383591 0 31 108 159 255 
-2.22106 0.488063 0 0 0.32126 0 31 108 159 255 
-0.180452 0.488063 -0.172706 0 0.32126 0 31 108 159 255 
-2.04061 0.488063 -0.172706 0 0.32126 0 31 108 159 255 
2e-06 0.488063 0 0 0.256039 0 31 108 159 255 
2e-06 0.488063 -1.41886 0 0.256039 0 31 108 159 255 
-0.180452 0.488063 -1.24615 0 0.256039 0 31 108 159 255 
2e-06 0.488063 0 0 0.193707 0 31 108 159 255 
-0.180452 0.488063 -1.24615 0 0.193707 0 31 108 159 255 
-0.180452 0.488063 -0.172706 0 0.193707 0 31 108 159 255 
2e-06 0.488063 -1.41886 0 0.383599 0 31 108 159 255 
-2.22106 0.488063 -1.41886 0 0.383599 0 31 108 159 255 
-2.04061 0.488063 -1.24615 0 0.383599 0 31 108 159 255 
2e-06 0.488063 -1.41886 0 0.321268 0 31 108 159 255 
-2.04061 0.488063 -1.24615 0 0.321268 0 31 108 159 255 
-0.180452 0.488063 -1.24615 0 0.321268 0 31 108 159 255 
-2.22106 0.488063 -1.41886 0 0.256033 0 31 108 159 255 
-2.22106 0.488063 0 0 0.256033 0 31 108 159 255 
-2.04061 0.488063 -0.172706 0 0.256033 0 31 108 159 255 
-2.22106 0.488063 -1.41886 0 0.193703 0 31 108 159 255 
-2.04061 0.488063 -0.172706 0 0.193703 0 31 108 159 255 
-2.04061 0.488063 -1.24615 0 0.193703 0 31 108 159 255 
-2.04061 0.488063 -0.172706 0 0 -0.390345 23 80 118 255 
-0.180452 0.488063 -0.172706 0 0 -0.390345 23 80 118 255 
-0.180452 0.278218 -0.172706 0 0 -0.390345 23 80 118 255 
-2.04061 0.488063 -0.172706 0 0 -0.390345 23 80 118 255 
-0.180452 0.278218 -0.172706 0 0 -0.390345 23 80 118 255 
-2.04061 0.278218 -0.172706 0 0 -0.390345 23 80 118 255 
-0.180452 0.488063 -0.172706 -0.225257 0 -0 17 58 87 255 
-0.180452 0.488063 -1.24615 -0.225257 0 -0 17 58 87 255 
-0.180452 0.278218 -1.24615 -0.225257 0 -0 17 58 87 255 
-0.180452 0.488063 -0.172706 -0.225257 -0 0 17 58 87 255 
-0.180452 0.278218 -1.24615 -0.225257 -0 0 17 58 87 255 
-0.180452 0.278218 -0.172706 -0.225257 -0 0 17 58 87 255 
-0.180452 0.488063 -1.24615 0 0 0.390345 23 80 118 255 
-2.04061 0.488063 -1.24615 0 0 0.390345 23 80 118 255 
-2.04061 0.278218 -1.24615 0 0 0.390345 23 80 118 255 
-0.180452 0.488063 -1.24615 0 0 0.390345 23 80 118 255 
-2.04061 0.278218 -1.24615 0 0 0.390345 23 80 118 255 
-0.180452 0.278218 -1.24615 0 0 0.390345 23 80 118 255 
-2.04061 0.488063 -1.24615 0.225257 0 -0 17 58 87 255 
-2.04061 0.488063 -0.172706 0.225257 0 -0 17 58 87 255 
-2.04061 0.278218 -0.172706 0.225257 0 -0 17 58 87 255 
-2.04061 0.488063 -1.24615 0.225257 0 0 17 58 87 255 
-2.04061 0.278218 -0.172706 0.225257 0 0 17 58 87 255 
-2.04061 0.278218 -1.24615 0.225257 0 0 17 58 87 255 
-2.22106 0 0 0 0 0.169549 27 94 141 255 
2e-06 0 0 0 0 0.169549 27 94 141 255 
-0.130436 0.076337 0 0 0 0.169549 27 94 141 255 
-2.22106 0 0 0 0 0.0187045 27 94 141 255 
-0.130436 0.076337 0 0 0 0.0187045 27 94 141 255 
-0.375462 0.076337 0 0 0 0.0187045 27 94 141 255 
-2.22106 0 0 0 0 0.0467607 27 94 141 255 
-0.375462 0.076337 0 0 0 0.0467607 27 94 141 255 
-0.988018 0.076337 0 0 0 0.0467607 27 94 141 255 
-2.22106 0 0 0 0 0.0187042 27 94 141 255 
-0.988018 0.076337 0 0 0 0.0187042 27 94 141 255 
-1.23304 0.076337 0 0 0 0.0187042 27 94 141 255 
-2.22106 0 0 0 0 0.046761 27 94 141 255 
-1.23304 0.076337 0 0 0 0.046761 27 94 141 255 
-1.8456 0.076337 0 0 0 0.046761 27 94 141 255 
-2.22106 0 0 0 0 0.0187041 27 94 141 255 
-1.8456 0.076337 0 0 0 0.0187041 27 94 141 255 
-2.09062 0.076337 0 0 0 0.0187041 27 94 141 255 
2e-06 0 0 0 -0 0.063662 27 94 141 255 
2e-06 0.488063 0 0 -0 0.063662 27 94 141 255 
-0.130436 0.411726 0 0 -0 0.063662 27 94 141 255 
2e-06 0 0 0 0 0.0437475 27 94 141 255 
-0.130436 0.411726 0 0 0 0.0437475 27 94 141 255 
-0.130436 0.076337 0 0 0 0.0437475 27 94 141 255 
2e-06 0.488063 0 0 0 0.169549 27 94 141 255 
-2.22106 0.488063 0 0 0 0.169549 27 94 141 255 
-2.09062 0.411726 0 0 0 0.169549 27 94 141 255 
2e-06 0.488063 0 0 0 0.0187041 27 94 141 255 
-2.09062 0.411726 0 0 0 0.0187041 27 94 141 255 
-1.8456 0.411726 0 0 0 0.0187041 27 94 141 255 
2e-06 0.488063 0 0 0 0.046761 27 94 141 255 
-1.8456 0.411726 0 0 0 0.046761 27 94 141 255 
-1.23304 0.411726 0 0 0 0.046761 27 94 141 255 
2e-06 0.488063 0 0 0 0.0187042 27 94 141 255 
-1.23304 0.411726 0 0 0 0.0187042 27 94 141 255 
-0.988018 0.411726 0 0 0 0.0187042 27 94 141 255 
2e-06 0.488063 0 0 0 0.0467607 27 94 141 255 
-0.988018 0.411726 0 0 0 0.0467607 27 94 141 255 
-0.375462 0.411726 0 0 0 0.0467607 27 94 141 255 
2e-06 0.488063 0 0 0 0.0187046 27 94 141 255 
-0.375462 0.411726 0 0 0 0.0187046 27 94 141 255 
-0.130436 0.411726 0 0 0 0.0187046 27 94 141 255 
-2.22106 0.488063 0 0 0 0.0636629 27 94 141 255 
-2.22106 0 0 0 0 0.0636629 27 94 141 255 
-2.09062 0.076337 0 0 0 0.0636629 27 94 141 255 
-2.22106 0.488063 0 0 0 0.0437481 27 94 141 255 
-2.09062 0.076337 0 0 0 0.0437481 27 94 141 255 
-2.09062 0.411726 0 0 0 0.0437481 27 94 141 255 
-2.22106 0.488063 -1.41886 0 0 -0.169549 27 94 141 255 
2e-06 0.488063 -1.41886 0 0 -0.169549 27 94 141 255 
-0.130436 0.411726 -1.41886 0 0 -0.169549 27 94 141 255 
-2.22106 0.488063 -1.41886 0 0 -0.0187046 27 94 141 255 
-0.130436 0.411726 -1.41886 0 0 -0.0187046 27 94 141 255 
-0.375462 0.411726 -1.41886 0 0 -0.0187046 27 94 141 255 
-2.22106 0.488063 -1.41886 0 0 -0.0467607 27 94 141 255 
-0.375462 0.411726 -1.41886 0 0 -0.0467607 27 94 141 255 
-0.988018 0.411726 -1.41886 0 0 -0.0467607 27 94 141 255 
-2.22106 0.488063 -1.41886 0 0 -0.0187042 27 94 141 255 
-0.988018 0.411726 -1.41886 0 0 -0.0187042 27 94 141 255 
-1.23304 0.411726 -1.41886 0 0 -0.0187042 27 94 141 255 
-2.22106 0.488063 -1.41886 0 0 -0.046761 27 94 141 255 
-1.23304 0.411726 -1.41886 0 0 -0.046761 27 94 141 255 
-1.8456 0.411726 -1.41886 0 0 -0.046761 27 94 141 255 
-2.22106 0.488063 -1.41886 0 0 -0.0187041 27 94 141 255 
-1.8456 0.411726 -1.41886 0 0 -0.0187041 27 94 141 255 
-2.09062 0.411726 -1.41886 0 0 -0.0187041 27 94 141 255 
2e-06 0.488063 -1.41886 0 -0 -0.063662 27 94 141 255 
2e-06 0 -1.41886 0 -0 -0.063662 27 94 141 255 
-0.130436 0.076337 -1.41886 0 -0 -0.063662 27 94 141 255 
2e-06 0.488063 -1.41886 0 0 -0.0437475 27 94 141 255 
-0.130436 0.076337 -1.41886 0 0 -0.0437475 27 94 141 255 
-0.130436 0.411726 -1.41886 0 0 -0.0437475 27 94 141 255 
2e-06 0 -1.41886 0 0 -0.169549 27 94 141 255 
-2.22106 0 -1.41886 0 0 -0.169549 27 94 141 255 
-2.09062 0.076337 -1.41886 0 0 -0.169549 27 94 141 255 
2e-06 0 -1.41886 0 0 -0.0187041 27 94 141 255 
-2.09062 0.076337 -1.41886 0 0 -0.0187041 27 94 141 255 
-1.8456 0.076337 -1.41886 0 0 -0.0187041 27 94 141 255 
2e-06 0 -1.41886 0 0 -0.046761 27 94 141 255 
-1.8456 0.076337 -1.41886 0 0 -0.046761 27 94 141 255 
-1.23304 0.076337 -1.41886 0 0 -0.046761 27 94 141 255 
2e-06 0 -1.41886 0 0 -0.0187042 27 94 141 255 
-1.23304 0.076337 -1.41886 0 0 -0.0187042 27 94 141 255 
-0.988018 0.076337 -1.41886 0 0 -0.0187042 27 94 141 255 
2e-06 0 -1.41886 0 0 -0.0467607 27 94 141 255 
-0.988018 0.076337 -1.41886 0 0 -0.0467607 27 94 141 255 
-0.375462 0.076337 -1.41886 0 0 -0.0467607 27 94 141 255 
2e-06 0 -1.41886 0 0 -0.0187045 27 94 141 255 
-0.375462 0.076337 -1.41886 0 0 -0.0187045 27 94 141 255 
-0.130436 0.076337 -1.41886 0 0 -0.0187045 27 94 141 255 
-2.22106 0 -1.41886 0 0 -0.0636629 27 94 141 255 
-2.22106 0.488063 -1.41886 0 0 -0.0636629 27 94 141 255 
-2.09062 0.411726 -1.41886 0 0 -0.0636629 27 94 141 255 
-2.22106 0 -1.41886 0 0 -0.0437481 27 94 141 255 
-2.09062 0.411726 -1.41886 0 0 -0.0437481 27 94 141 255 
-2.09062 0.076337 -1.41886 0 0 -0.0437481 27 94 141 255 
-2.09062 0.076337 0 0 0 0.082177 23 80 118 255 
-1.8456 0.076337 0 0 0 0.082177 23 80 118 255 
-1.8456 0.411726 0 0 0 0.082177 23 80 118 255 
-2.09062 0.076337 0 0 0 0.082177 23 80 118 255 
-1.8456 0.411726 0 0 0 0.082177 23 80 118 255 
-2.09062 0.411726 0 0 0 0.082177 23 80 118 255 
-0.375462 0.076337 -1.41886 0 0 -0.082179 23 80 118 255 
-0.375462 0.411726 -1.41886 0 0 -0.082179 23 80 118 255 
-0.130436 0.411726 -1.41886 0 0 -0.082179 23 80 118 255 
-0.375462 0.076337 -1.41886 0 0 -0.082179 23 80 118 255 
-0.130436 0.411726 -1.41886 0 0 -0.082179 23 80 118 255 
-0.130436 0.076337 -1.41886 0 0 -0.082179 23 80 118 255 
-0.375462 0.411726 -1.41886 0 -0 -0.205445 27 94 141 255 
-0.375462 0.076337 -1.41886 0 -0 -0.205445 27 94 141 255 
-0.988018 0.076337 -1.41886 0 -0 -0.205445 27 94 141 255 
-0.375462 0.411726 -1.41886 -0 0 -0.205445 27 94 141 255 
-0.988018 0.076337 -1.41886 -0 0 -0.205445 27 94 141 255 
-0.988018 0.411726 -1.41886 -0 0 -0.205445 27 94 141 255 
-1.8456 0.411726 -1.41886 0 0 -0.205446 27 94 141 255 
-1.23304 0.411726 -1.41886 0 0 -0.205446 27 94 141 255 
-1.23304 0.076337 -1.41886 0 0 -0.205446 27 94 141 255 
-1.8456 0.411726 -1.41886 0 0 -0.205446 27 94 141 255 
-1.23304 0.076337 -1.41886 0 0 -0.205446 27 94 141 255 
-1.8456 0.076337 -1.41886 0 0 -0.205446 27 94 141 255 
-2.09062 0.411726 -1.41886 0 0 -0.082177 23 80 118 255 
-1.8456 0.411726 -1.41886 0 0 -0.082177 23 80 118 255 
-1.8456 0.076337 -1.41886 0 0 -0.082177 23 80 118 255 
-2.09062 0.411726 -1.41886 0 0 -0.082177 23 80 118 255 
-1.8456 0.076337 -1.41886 0 0 -0.082177 23 80 118 255 
-2.09062 0.076337 -1.41886 0 0 -0.082177 23 80 118 255 
-0.375462 0.411726 0 0 0 0.082179 23 80 118 255 
-0.375462 0.076337 0 0 0 0.082179 23 80 118 255 
-0.130436 0.076337 0 0 0 0.082179 23 80 118 255 
-0.375462 0.411726 0 -0 0 0.082179 23 80 118 255 
-0.130436 0.076337 0 -0 0 0.082179 23 80 118 255 
-0.130436 0.411726 0 -0 0 0.082179 23 80 118 255 
-1.8456 0.411726 0 0 0 0.205446 27 94 141 255 
-1.8456 0.076337 0 0 0 0.205446 27 94 141 255 
-1.23304 0.076337 0 0 0 0.205446 27 94 141 255 
-1.8456 0.411726 0 -0 0 0.205446 27 94 141 255 
-1.23304 0.076337 0 -0 0 0.205446 27 94 141 255 
-1.23304 0.411726 0 -0 0 0.205446 27 94 141 255 
-0.375462 0.411726 0 0 0 0.205445 27 94 141 255 
-0.988018 0.411726 0 0 0 0.205445 27 94 141 255 
-0.988018 0.076337 0 0 0 0.205445 27 94 141 255 
-0.375462 0.411726 0 0 0 0.205445 27 94 141 255 
-0.988018 0.076337 0 0 0 0.205445 27 94 141 255 
-0.375462 0.076337 0 0 0 0.205445 27 94 141 255 
-0.944828 0.663658 -1.12843 -0.00420405 0.00933152 -0.00031622 129 163 61 255 
-1.04053 0.619589 -1.15656 -0.00420405 0.00933152 -0.00031622 129 163 61 255 
-1.07117 0.608784 -1.06806 -0.00420405 0.00933152 -0.00031622 129 163 61 255 
-0.944828 0.663658 -1.12843 -0.00420466 0.0093325 -0.000316616 129 163 61 255 
-1.07117 0.608784 -1.06806 -0.00420466 0.0093325 -0.000316616 129 163 61 255 
-0.975473 0.652854 -1.03992 -0.00420466 0.0093325 -0.000316616 129 163 61 255 
-0.834229 0.256135 -1.17284 0.0114088 0.0100867 -0.0806143 117 148 56 255 
-1.05603 0.256136 -1.20423 0.0114088 0.0100867 -0.0806143 117 148 56 255 
-1.04053 0.619589 -1.15656 0.0114088 0.0100867 -0.0806143 117 148 56 255 
-0.834229 0.256135 -1.17284 0.00950649 0.00736127 -0.0438748 117 148 56 255 
-1.04053 0.619589 -1.15656 0.00950649 0.00736127 -0.0438748 117 148 56 255 
-0.944828 0.663658 -1.12843 0.00950649 0.00736127 -0.0438748 117 148 56 255 
-1.05603 0.256136 -1.20423 -0.0643653 0.0101061 -0.0333287 104 134 50 255 
-1.15054 0.256136 -1.02171 -0.0643653 0.0101061 -0.0333287 104 134 50 255 
-1.07117 0.608784 -1.06806 -0.0643653 0.0101061 -0.0333287 104 134 50 255 
-1.05603 0.256136 -1.20423 -0.0326806 0.00283236 -0.0109687 104 134 50 255 
-1.07117 0.608784 -1.06806 -0.0326806 0.00283236 -0.0109687 104 134 50 255 
-1.04053 0.619589 -1.15656 -0.0326806 0.00283236 -0.0109687 104 134 50 255 
-1.15054 0.256136 -1.02171 -0.0279472 0.0166957 0.0950506 117 148 56 255 
-0.910948 0.256135 -0.951264 -0.0279472 0.0166957 0.0950506 117 148 56 255 
-0.975473 0.652854 -1.03992 -0.0279472 0.0166957 0.0950506 117 148 56 255 
-1.15054 0.256136 -1.02171 -0.0119662 0.00666903 0.0302495 117 148 56 255 
-0.975473 0.652854 -1.03992 -0.0119662 0.00666903 0.0302495 117 148 56 255 
-1.07117 0.608784 -1.06806 -0.0119662 0.00666903 0.0302495 117 148 56 255 
-0.910948 0.256135 -0.951264 0.0902973 0.021099 0.0312648 104 134 50 255 
-0.834229 0.256135 -1.17284 0.0902973 0.021099 0.0312648 104 134 50 255 
-0.944828 0.663658 -1.12843 0.0902973 0.021099 0.0312648 104 134 50 255 
-0.910948 0.256135 -0.951264 0.0341558 0.00842797 0.0128546 104 134 50 255 
-0.944828 0.663658 -1.12843 0.0341558 0.00842797 0.0128546 104 134 50 255 
-0.975473 0.652854 -1.03992 0.0341558 0.00842797 0.0128546 104 134 50 255 
-0.884043 0.86854 -0.879137 0.00425409 0.0197209 0.000627487 129 163 61 255 
-1.01847 0.89581 -0.824831 0.00425409 0.0197209 0.000627487 129 163 61 255 
-0.959143 0.879107 -0.702095 0.00425409 0.0197209 0.000627487 129 163 61 255 
-0.884043 0.86854 -0.879137 0.0042541 0.0197202 0.00062753 129 163 61 255 
-0.959143 0.879107 -0.702095 0.0042541 0.0197202 0.00062753 129 163 61 255 
-0.82472 0.851837 -0.7564 0.0042541 0.0197202 0.00062753 129 163 61 255 
-0.838516 0.256135 -1.01357 -0.0869683 0.0390511 -0.215272 117 148 56 255 
-1.17505 0.256135 -0.877613 -0.0869683 0.0390511 -0.215272 117 148 56 255 
-1.01847 0.89581 -0.824831 -0.0869683 0.0390511 -0.215272 117 148 56 255 
-0.838516 0.256135 -1.01357 -0.0295913 0.015599 -0.0810823 117 148 56 255 
-1.01847 0.89581 -0.824831 -0.0295913 0.015599 -0.0810823 117 148 56 255 
-0.884043 0.86854 -0.879137 -0.0295913 0.015599 -0.0810823 117 148 56 255 
-1.17505 0.256135 -0.877613 -0.191423 0.0402747 0.0925238 104 134 50 255 
-1.02653 0.256135 -0.570339 -0.191423 0.0402747 0.0925238 104 134 50 255 
-0.959143 0.879107 -0.702095 -0.191423 0.0402747 0.0925238 104 134 50 255 
-1.17505 0.256135 -0.877613 -0.0793928 0.0160866 0.0405654 104 134 50 255 
-0.959143 0.879107 -0.702095 -0.0793928 0.0160866 0.0405654 104 134 50 255 
-1.01847 0.89581 -0.824831 -0.0793928 0.0160866 0.0405654 104 134 50 255 
-1.02653 0.256135 -0.570339 0.0809874 0.0351781 0.20047 117 148 56 255 
-0.690002 0.256135 -0.706292 0.0809874 0.0351781 0.20047 117 148 56 255 
-0.82472 0.851837 -0.7564 0.0809874 0.0351781 0.20047 117 148 56 255 
-1.02653 0.256135 -0.570339 0.0374235 0.0140516 0.0855794 117 148 56 255 
-0.82472 0.851837 -0.7564 0.0374235 0.0140516 0.0855794 117 148 56 255 
-0.959143 0.879107 -0.702095 0.0374235 0.0140516 0.0855794 117 148 56 255 
-0.690002 0.256135 -0.706292 0.188179 0.0339546 -0.0909507 104 134 50 255 
-0.838516 0.256135 -1.01357 0.188179 0.0339546 -0.0909507 104 134 50 255 
-0.884043 0.86854 -0.879137 0.188179 0.0339546 -0.0909507 104 134 50 255 
-0.690002 0.256135 -0.706292 0.0722777 0.0135623 -0.0330886 104 134 50 255 
-0.884043 0.86854 -0.879137 0.0722777 0.0135623 -0.0330886 104 134 50 255 
-0.82472 0.851837 -0.7564 0.0722777 0.0135623 -0.0330886 104 134 50 255 
-0.268978 0.715034 -1.11306 0.000357241 0.00945038 0.00192667 129 163 61 255 
-0.367699 0.713985 -1.08961 0.000357241 0.00945038 0.00192667 129 163 61 255 
-0.341976 0.694742 -0.999992 0.000357241 0.00945038 0.00192667 129 163 61 255 
-0.268978 0.715034 -1.11306 0.000357403 0.00944968 0.00192665 129 163 61 255 
-0.341976 0.694742 -0.999992 0.000357403 0.00944968 0.00192665 129 163 61 255 
-0.243256 0.695791 -1.02345 0.000357403 0.00944968 0.00192665 129 163 61 255 
-0.215427 0.256135 -1.20399 -0.0268804 0.0193292 -0.113158 117 148 56 255 
-0.462578 0.256135 -1.14528 -0.0268804 0.0193292 -0.113158 117 148 56 255 
-0.367699 0.713985 -1.08961 -0.0268804 0.0193292 -0.113158 117 148 56 255 
-0.215427 0.256135 -1.20399 -0.0108566 0.00772093 -0.0453591 117 148 56 255 
-0.367699 0.713985 -1.08961 -0.0108566 0.00772093 -0.0453591 117 148 56 255 
-0.268978 0.715034 -1.11306 -0.0108566 0.00772093 -0.0453591 117 148 56 255 
-0.462578 0.256135 -1.14528 -0.0984041 0.0177012 0.0282463 104 134 50 255 
-0.398178 0.256135 -0.920924 -0.0984041 0.0177012 0.0282463 104 134 50 255 
-0.341976 0.694742 -0.999992 -0.0984041 0.0177012 0.0282463 104 134 50 255 
-0.462578 0.256135 -1.14528 -0.0421028 0.00707086 0.013603 104 134 50 255 
-0.341976 0.694742 -0.999992 -0.0421028 0.00707086 0.013603 104 134 50 255 
-0.367699 0.713985 -1.08961 -0.0421028 0.00707086 0.013603 104 134 50 255 
-0.398178 0.256135 -0.920924 0.0258131 0.0162435 0.108661 117 148 56 255 
-0.151028 0.256135 -0.979636 0.0258131 0.0162435 0.108661 117 148 56 255 
-0.243256 0.695791 -1.02345 0.0258131 0.0162435 0.108661 117 148 56 255 
-0.398178 0.256135 -0.920924 0.0102059 0.0064872 0.0432403 117 148 56 255 
-0.243256 0.695791 -1.02345 0.0102059 0.0064872 0.0432403 117 148 56 255 
-0.341976 0.694742 -0.999992 0.0102059 0.0064872 0.0432403 117 148 56 255 
-0.151028 0.256135 -0.979636 0.102956 0.0178702 -0.0295526 104 134 50 255 
-0.215427 0.256135 -1.20399 0.102956 0.0178702 -0.0295526 104 134 50 255 
-0.268978 0.715034 -1.11306 0.102956 0.0178702 -0.0295526 104 134 50 255 
-0.151028 0.256135 -0.979636 0.0385545 0.00713756 -0.00953409 104 134 50 255 
-0.268978 0.715034 -1.11306 0.0385545 0.00713756 -0.00953409 104 134 50 255 
-0.243256 0.695791 -1.02345 0.0385545 0.00713756 -0.00953409 104 134 50 255 
-1.48877 0.79237 -1.00562 -0.00285184 0.0127547 -0.00132791 129 163 61 255 
-1.52611 0.794693 -0.903116 -0.00285184 0.0127547 -0.00132791 129 163 61 255 
-1.41398 0.82328 -0.869347 -0.00285184 0.0127547 -0.00132791 129 163 61 255 
-1.48877 0.79237 -1.00562 -0.0028519 0.0127562 -0.00132822 129 163 61 255 
-1.41398 0.82328 -0.869347 -0.0028519 0.0127562 -0.00132822 129 163 61 255 
-1.37663 0.820957 -0.971853 -0.0028519 0.0127562 -0.00132822 129 163 61 255 
-1.5359 0.256135 -1.10455 -0.138207 0.0213424 -0.0503444 117 148 56 255 
-1.62938 0.256135 -0.847926 -0.138207 0.0213424 -0.0503444 117 148 56 255 
-1.52611 0.794693 -0.903116 -0.138207 0.0213424 -0.0503444 117 148 56 255 
-1.5359 0.256135 -1.10455 -0.0547364 0.00852506 -0.0201325 117 148 56 255 
-1.52611 0.794693 -0.903116 -0.0547364 0.00852506 -0.0201325 117 148 56 255 
-1.48877 0.79237 -1.00562 -0.0547364 0.00852506 -0.0201325 117 148 56 255 
-1.62938 0.256135 -0.847926 -0.047947 0.0242241 0.159226 104 134 50 255 
-1.34863 0.256135 -0.763385 -0.047947 0.0242241 0.159226 104 134 50 255 
-1.41398 0.82328 -0.869347 -0.047947 0.0242241 0.159226 104 134 50 255 
-1.62938 0.256135 -0.847926 -0.0197643 0.00967578 0.0574364 104 134 50 255 
-1.41398 0.82328 -0.869347 -0.0197643 0.00967578 0.0574364 104 134 50 255 
-1.52611 0.794693 -0.903116 -0.0197643 0.00967578 0.0574364 104 134 50 255 
-1.34863 0.256135 -0.763385 0.144947 0.0266731 0.0527996 117 148 56 255 
-1.25515 0.256135 -1.02001 0.144947 0.0266731 0.0527996 117 148 56 255 
-1.37663 0.820957 -0.971853 0.144947 0.0266731 0.0527996 117 148 56 255 
-1.34863 0.256135 -0.763385 0.0583819 0.0106565 0.0210311 117 148 56 255 
-1.37663 0.820957 -0.971853 0.0583819 0.0106565 0.0210311 117 148 56 255 
-1.41398 0.82328 -0.869347 0.0583819 0.0106565 0.0210311 117 148 56 255 
-1.25515 0.256135 -1.02001 0.0453333 0.0237902 -0.150548 104 134 50 255 
-1.5359 0.256135 -1.10455 0.0453333 0.0237902 -0.150548 104 134 50 255 
-1.48877 0.79237 -1.00562 0.0453333 0.0237902 -0.150548 104 134 50 255 
-1.25515 0.256135 -1.02001 0.0176957 0.00950234 -0.0668119 104 134 50 255 
-1.48877 0.79237 -1.00562 0.0176957 0.00950234 -0.0668119 104 134 50 255 
-1.37663 0.820957 -0.971853 0.0176957 0.00950234 -0.0668119 104 134 50 255 
-1.83617 0.737643 -0.403058 -0.00110085 0.00945939 0.00103388 129 163 61 255 
-1.93538 0.723788 -0.38193 -0.00110085 0.00945939 0.00103388 129 163 61 255 
-1.912 0.716632 -0.291562 -0.00110085 0.00945939 0.00103388 129 163 61 255 
-1.83617 0.737643 -0.403058 -0.00110088 0.00945945 0.00103388 129 163 61 255 
-1.912 0.716632 -0.291562 -0.00110088 0.00945945 0.00103388 129 163 61 255 
-1.81279 0.730487 -0.312689 -0.00110088 0.00945945 0.00103388 129 163 61 255 
-1.77508 0.256135 -0.490057 -0.0247342 0.0183761 -0.116146 117 148 56 255 
-2.02344 0.256135 -0.437167 -0.0247342 0.0183761 -0.116146 117 148 56 255 
-1.93538 0.723788 -0.38193 -0.0247342 0.0183761 -0.116146 117 148 56 255 
-1.77508 0.256135 -0.490057 -0.0113787 0.00734046 -0.0486168 117 148 56 255 
-1.93538 0.723788 -0.38193 -0.0113787 0.00734046 -0.0486168 117 148 56 255 
-1.83617 0.737643 -0.403058 -0.0113787 0.00734046 -0.0486168 117 148 56 255 
-2.02344 0.256135 -0.437167 -0.104183 0.0166915 0.0269482 104 134 50 255 
-1.96492 0.256135 -0.210926 -0.104183 0.0166915 0.0269482 104 134 50 255 
-1.912 0.716632 -0.291562 -0.104183 0.0166915 0.0269482 104 134 50 255 
-2.02344 0.256135 -0.437167 -0.0426561 0.00666635 0.0115639 104 134 50 255 
-1.912 0.716632 -0.291562 -0.0426561 0.00666635 0.0115639 104 134 50 255 
-1.93538 0.723788 -0.38193 -0.0426561 0.00666635 0.0115639 104 134 50 255 
-1.96492 0.256135 -0.210926 0.025089 0.0172286 0.117815 117 148 56 255 
-1.71655 0.256135 -0.263817 0.025089 0.0172286 0.117815 117 148 56 255 
-1.81279 0.730487 -0.312689 0.025089 0.0172286 0.117815 117 148 56 255 
-1.96492 0.256135 -0.210926 0.00861172 0.00688185 0.0449527 117 148 56 255 
-1.81279 0.730487 -0.312689 0.00861172 0.00688185 0.0449527 117 148 56 255 
-1.912 0.716632 -0.291562 0.00861172 0.00688185 0.0449527 117 148 56 255 
-1.71655 0.256135 -0.263817 0.108936 0.018913 -0.0281827 104 134 50 255 
-1.77508 0.256135 -0.490057 0.108936 0.018913 -0.0281827 104 134 50 255 
-1.83617 0.737643 -0.403058 0.108936 0.018913 -0.0281827 104 134 50 255 
-1.71655 0.256135 -0.263817 0.042517 0.00755449 -0.0104016 104 134 50 255 
-1.83617 0.737643 -0.403058 0.042517 0.00755449 -0.0104016 104 134 50 255 
-1.81279 0.730487 -0.312689 0.042517 0.00755449 -0.0104016 104 134 50 255 
-1.35283 0.80632 -0.43103 1.35815e-05 0.0149548 0.0112207 129 163 61 255 
-1.40748 0.71598 -0.31056 1.35815e-05 0.0149548 0.0112207 129 163 61 255 
-1.29083 0.703491 -0.294056 1.35815e-05 0.0149548 0.0112207 129 163 61 255 
-1.35283 0.80632 -0.43103 0.00096603 0.0158149 0.0114353 129 163 61 255 
-1.29083 0.703491 -0.294056 0.00096603 0.0158149 0.0114353 129 163 61 255 
-1.2159 0.763657 -0.383595 0.00096603 0.0158149 0.0114353 129 163 61 255 
-1.41689 0.256135 -0.588561 -0.138688 0.0408686 -0.0629068 117 148 56 255 
-1.55369 0.256136 -0.286963 -0.138688 0.0408686 -0.0629068 117 148 56 255 
-1.40748 0.71598 -0.31056 -0.138688 0.0408686 -0.0629068 117 148 56 255 
-1.41689 0.256135 -0.588561 -0.0805121 0.0163264 -0.0242804 117 148 56 255 
-1.40748 0.71598 -0.31056 -0.0805121 0.0163264 -0.0242804 117 148 56 255 
-1.35283 0.80632 -0.43103 -0.0805121 0.0163264 -0.0242804 117 148 56 255 
-1.55369 0.256136 -0.286963 -0.0286343 0.0188092 0.125134 104 134 50 255 
-1.27397 0.256135 -0.222955 -0.0286343 0.0188092 0.125134 104 134 50 255 
-1.29083 0.703491 -0.294056 -0.0286343 0.0188092 0.125134 104 134 50 255 
-1.55369 0.256136 -0.286963 -0.00729456 0.00516564 0.0554668 104 134 50 255 
-1.29083 0.703491 -0.294056 -0.00729456 0.00516564 0.0554668 104 134 50 255 
-1.40748 0.71598 -0.31056 -0.00729456 0.00516564 0.0554668 104 134 50 255 
-1.27397 0.256135 -0.222955 0.125284 0.0177755 0.101449 117 148 56 255 
-1.07408 0.256135 -0.469809 0.125284 0.0177755 0.101449 117 148 56 255 
-1.2159 0.763657 -0.383595 0.125284 0.0177755 0.101449 117 148 56 255 
-1.27397 0.256135 -0.222955 0.0357779 0.00683723 0.0345348 117 148 56 255 
-1.2159 0.763657 -0.383595 0.0357779 0.00683723 0.0345348 117 148 56 255 
-1.29083 0.703491 -0.294056 0.0357779 0.00683723 0.0345348 117 148 56 255 
-1.07408 0.256135 -0.469809 0.0653356 0.046396 -0.188609 104 134 50 255 
-1.41689 0.256135 -0.588561 0.0653356 0.046396 -0.188609 104 134 50 255 
-1.35283 0.80632 -0.43103 0.0653356 0.046396 -0.188609 104 134 50 255 
-1.07408 0.256135 -0.469809 0.0277525 0.0185325 -0.0634446 104 134 50 255 
-1.35283 0.80632 -0.43103 0.0277525 0.0185325 -0.0634446 104 134 50 255 
-1.2159 0.763657 -0.383595 0.0277525 0.0185325 -0.0634446 104 134 50 255 
-1.79521 0.765644 -0.620707 0.00415304 0.0141758 -0.000873029 129 163 61 255 
-1.71696 0.74827 -0.530578 0.00415304 0.0141758 -0.000873029 129 163 61 255 
-1.62087 0.715778 -0.601061 0.00415304 0.0141758 -0.000873029 129 163 61 255 
-1.79521 0.765644 -0.620707 0.00415305 0.0141758 -0.000873039 129 163 61 255 
-1.62087 0.715778 -0.601061 0.00415305 0.0141758 -0.000873039 129 163 61 255 
-1.69912 0.733152 -0.69119 0.00415305 0.0141758 -0.000873039 129 163 61 255 
-1.94172 0.256135 -0.621249 -0.111045 0.0329515 0.0964142 117 148 56 255 
-1.74581 0.256135 -0.395609 -0.111045 0.0329515 0.0964142 117 148 56 255 
-1.71696 0.74827 -0.530578 -0.111045 0.0329515 0.0964142 117 148 56 255 
-1.94172 0.256135 -0.621249 -0.0459309 0.0131624 0.0424146 117 148 56 255 
-1.71696 0.74827 -0.530578 -0.0459309 0.0131624 0.0424146 117 148 56 255 
-1.79521 0.765644 -0.620707 -0.0459309 0.0131624 0.0424146 117 148 56 255 
-1.74581 0.256135 -0.395609 0.0811077 0.0273769 0.110572 104 134 50 255 
-1.50525 0.256135 -0.572067 0.0811077 0.0273769 0.110572 104 134 50 255 
-1.62087 0.715778 -0.601061 0.0811077 0.0273769 0.110572 104 134 50 255 
-1.74581 0.256135 -0.395609 0.0390725 0.0109357 0.0482266 104 134 50 255 
-1.62087 0.715778 -0.601061 0.0390725 0.0109357 0.0482266 104 134 50 255 
-1.71696 0.74827 -0.530578 0.0390725 0.0109357 0.0482266 104 134 50 255 
-1.50525 0.256135 -0.572067 0.107634 0.0204075 -0.0934524 117 148 56 255 
-1.70116 0.256135 -0.797707 0.107634 0.0204075 -0.0934524 117 148 56 255 
-1.69912 0.733152 -0.69119 0.107634 0.0204075 -0.0934524 117 148 56 255 
-1.50525 0.256135 -0.572067 0.0409234 0.00815194 -0.0339583 117 148 56 255 
-1.69912 0.733152 -0.69119 0.0409234 0.00815194 -0.0339583 117 148 56 255 
-1.62087 0.715778 -0.601061 0.0409234 0.00815194 -0.0339583 117 148 56 255 
-1.70116 0.256135 -0.797707 -0.0899069 0.0259833 -0.122568 104 134 50 255 
-1.94172 0.256135 -0.621249 -0.0899069 0.0259833 -0.122568 104 134 50 255 
-1.79521 0.765644 -0.620707 -0.0899069 0.0259833 -0.122568 104 134 50 255 
-1.70116 0.256135 -0.797707 -0.0301606 0.010379 -0.0459028 104 134 50 255 
-1.79521 0.765644 -0.620707 -0.0301606 0.010379 -0.0459028 104 134 50 255 
-1.69912 0.733152 -0.69119 -0.0301606 0.010379 -0.0459028 104 134 50 255 
-1.49167 0.768176 -0.672795 -0.00416856 0.0296694 -0.00353285 129 163 61 255 
-1.31229 0.795446 -0.655436 -0.00416856 0.0296694 -0.00353285 129 163 61 255 
-1.29261 0.778743 -0.818931 -0.00416856 0.0296694 -0.00353285 129 163 61 255 
-1.49167 0.768176 -0.672795 -0.00416856 0.0296694 -0.00353286 129 163 61 255 
-1.29261 0.778743 -0.818931 -0.00416856 0.0296694 -0.00353286 129 163 61 255 
-1.47199 0.751473 -0.83629 -0.00416856 0.0296694 -0.00353286 129 163 61 255 
-1.63059 0.256136 -0.555413 -0.0234383 0.0587516 0.242194 117 148 56 255 
-1.18151 0.256135 -0.511953 -0.0234383 0.0587516 0.242194 117 148 56 255 
-1.31229 0.795446 -0.655436 -0.0234383 0.0587516 0.242194 117 148 56 255 
-1.63059 0.256136 -0.555413 -0.0120895 0.0234675 0.0880614 117 148 56 255 
-1.31229 0.795446 -0.655436 -0.0120895 0.0234675 0.0880614 117 148 56 255 
-1.49167 0.768176 -0.672795 -0.0120895 0.0234675 0.0880614 117 148 56 255 
-1.18151 0.256135 -0.511953 0.21391 0.0605934 0.0257384 104 134 50 255 
-1.13226 0.256135 -0.921266 0.21391 0.0605934 0.0257384 104 134 50 255 
-1.29261 0.778743 -0.818931 0.21391 0.0605934 0.0257384 104 134 50 255 
-1.18151 0.256135 -0.511953 0.0905712 0.0242056 0.00842918 104 134 50 255 
-1.29261 0.778743 -0.818931 0.0905712 0.0242056 0.00842918 104 134 50 255 
-1.31229 0.795446 -0.655436 0.0905712 0.0242056 0.00842918 104 134 50 255 
-1.13226 0.256135 -0.921266 0.021527 0.0529245 -0.222441 117 148 56 255 
-1.58133 0.256136 -0.964725 0.021527 0.0529245 -0.222441 117 148 56 255 
-1.47199 0.751473 -0.83629 0.021527 0.0529245 -0.222441 117 148 56 255 
-1.13226 0.256135 -0.921266 0.00628129 0.0211404 -0.0981181 117 148 56 255 
-1.47199 0.751473 -0.83629 0.00628129 0.0211404 -0.0981181 117 148 56 255 
-1.29261 0.778743 -0.818931 0.00628129 0.0211404 -0.0981181 117 148 56 255 
-1.58133 0.256136 -0.964725 -0.209584 0.0510794 -0.0252231 104 134 50 255 
-1.63059 0.256136 -0.555413 -0.209584 0.0510794 -0.0252231 104 134 50 255 
-1.49167 0.768176 -0.672795 -0.209584 0.0510794 -0.0252231 104 134 50 255 
-1.58133 0.256136 -0.964725 -0.0788399 0.0204041 -0.0115745 104 134 50 255 
-1.49167 0.768176 -0.672795 -0.0788399 0.0204041 -0.0115745 104 134 50 255 
-1.47199 0.751473 -0.83629 -0.0788399 0.0204041 -0.0115745 104 134 50 255 
-1.86208 0.614671 -0.9667 0.000696186 0.014218 -0.00228734 129 163 61 255 
-1.74141 0.613621 -0.936499 0.000696186 0.014218 -0.00228734 129 163 61 255 
-1.70835 0.594378 -1.04605 0.000696186 0.014218 -0.00228734 129 163 61 255 
-1.86208 0.614671 -0.9667 0.000696166 0.0142178 -0.00228734 129 163 61 255 
-1.70835 0.594378 -1.04605 0.000696166 0.0142178 -0.00228734 129 163 61 255 
-1.82902 0.595428 -1.07625 0.000696166 0.0142178 -0.00228734 129 163 61 255 
-1.98022 0.256136 -0.900006 -0.0270287 0.0290801 0.107993 117 148 56 255 
-1.67813 0.256135 -0.824398 -0.0270287 0.0290801 0.107993 117 148 56 255 
-1.74141 0.613621 -0.936499 -0.0270287 0.0290801 0.107993 117 148 56 255 
-1.98022 0.256136 -0.900006 -0.0107581 0.0116159 0.0433885 117 148 56 255 
-1.74141 0.613621 -0.936499 -0.0107581 0.0116159 0.0433885 117 148 56 255 
-1.86208 0.614671 -0.9667 -0.0107581 0.0116159 0.0433885 117 148 56 255 
-1.67813 0.256135 -0.824398 0.0927704 0.0266302 0.0279897 104 134 50 255 
-1.59538 0.256136 -1.09867 0.0927704 0.0266302 0.0279897 104 134 50 255 
-1.70835 0.594378 -1.04605 0.0927704 0.0266302 0.0279897 104 134 50 255 
-1.67813 0.256135 -0.824398 0.0413201 0.0106385 0.0106008 104 134 50 255 
-1.70835 0.594378 -1.04605 0.0413201 0.0106385 0.0106008 104 134 50 255 
-1.74141 0.613621 -0.936499 0.0413201 0.0106385 0.0106008 104 134 50 255 
-1.59538 0.256136 -1.09867 0.0256539 0.0244384 -0.102497 117 148 56 255 
-1.89747 0.256136 -1.17428 0.0256539 0.0244384 -0.102497 117 148 56 255 
-1.82902 0.595428 -1.07625 0.0256539 0.0244384 -0.102497 117 148 56 255 
-1.59538 0.256136 -1.09867 0.0102702 0.00976136 -0.0406971 117 148 56 255 
-1.82902 0.595428 -1.07625 0.0102702 0.00976136 -0.0406971 117 148 56 255 
-1.70835 0.594378 -1.04605 0.0102702 0.00976136 -0.0406971 117 148 56 255 
-1.89747 0.256136 -1.17428 -0.0983368 0.0268838 -0.0296688 104 134 50 255 
-1.98022 0.256136 -0.900006 -0.0983368 0.0268838 -0.0296688 104 134 50 255 
-1.86208 0.614671 -0.9667 -0.0983368 0.0268838 -0.0296688 104 134 50 255 
-1.89747 0.256136 -1.17428 -0.035283 0.0107396 -0.0125342 104 134 50 255 
-1.86208 0.614671 -0.9667 -0.035283 0.0107396 -0.0125342 104 134 50 255 
-1.82902 0.595428 -1.07625 -0.035283 0.0107396 -0.0125342 104 134 50 255 
-0.885138 0.692007 -0.347568 0.00228796 0.0191913 0.00333194 129 163 61 255 
-0.776411 0.69433 -0.435608 0.00228796 0.0191913 0.00333194 129 163 61 255 
-0.87278 0.722916 -0.534084 0.00228796 0.0191913 0.00333194 129 163 61 255 
-0.885138 0.692007 -0.347568 0.00228798 0.0191919 0.00333203 129 163 61 255 
-0.87278 0.722916 -0.534084 0.00228798 0.0191919 0.00333203 129 163 61 255 
-0.98151 0.720593 -0.446043 0.00228798 0.0191919 0.00333203 129 163 61 255 
-0.901737 0.256136 -0.216171 0.0965832 0.0321081 0.119278 117 148 56 255 
-0.629534 0.256136 -0.436583 0.0965832 0.0321081 0.119278 117 148 56 255 
-0.776411 0.69433 -0.435608 0.0965832 0.0321081 0.119278 117 148 56 255 
-0.901737 0.256136 -0.216171 0.0380688 0.012825 0.0473524 117 148 56 255 
-0.776411 0.69433 -0.435608 0.0380688 0.012825 0.0473524 117 148 56 255 
-0.885138 0.692007 -0.347568 0.0380688 0.012825 0.0473524 117 148 56 255 
-0.629534 0.256136 -0.436583 0.115078 0.0364452 -0.112617 104 134 50 255 
-0.870798 0.256135 -0.683118 0.115078 0.0364452 -0.112617 104 134 50 255 
-0.87278 0.722916 -0.534084 0.115078 0.0364452 -0.112617 104 134 50 255 
-0.629534 0.256136 -0.436583 0.0431795 0.0145578 -0.0380297 104 134 50 255 
-0.87278 0.722916 -0.534084 0.0431795 0.0145578 -0.0380297 104 134 50 255 
-0.776411 0.69433 -0.435608 0.0431795 0.0145578 -0.0380297 104 134 50 255 
-0.870798 0.256135 -0.683118 -0.102372 0.04013 -0.126426 117 148 56 255 
-1.143 0.256135 -0.462706 -0.102372 0.04013 -0.126426 117 148 56 255 
-0.98151 0.720593 -0.446043 -0.102372 0.04013 -0.126426 117 148 56 255 
-0.870798 0.256135 -0.683118 -0.0414421 0.01603 -0.0507577 117 148 56 255 
-0.98151 0.720593 -0.446043 -0.0414421 0.01603 -0.0507577 117 148 56 255 
-0.87278 0.722916 -0.534084 -0.0414421 0.01603 -0.0507577 117 148 56 255 
-1.143 0.256135 -0.462706 -0.107458 0.0357935 0.10516 104 134 50 255 
-0.901737 0.256136 -0.216171 -0.107458 0.0357935 0.10516 104 134 50 255 
-0.885138 0.692007 -0.347568 -0.107458 0.0357935 0.10516 104 134 50 255 
-1.143 0.256135 -0.462706 -0.0462138 0.0142969 0.0493771 104 134 50 255 
-0.885138 0.692007 -0.347568 -0.0462138 0.0142969 0.0493771 104 134 50 255 
-0.98151 0.720593 -0.446043 -0.0462138 0.0142969 0.0493771 104 134 50 255 
-0.483618 0.637279 -0.422006 0.00174643 0.0142313 -0.000356525 129 163 61 255 
-0.364 0.623425 -0.389063 0.00174643 0.0142313 -0.000356525 129 163 61 255 
-0.327948 0.616269 -0.498107 0.00174643 0.0142313 -0.000356525 129 163 61 255 
-0.483618 0.637279 -0.422006 0.00174646 0.0142312 -0.000356453 129 163 61 255 
-0.327948 0.616269 -0.498107 0.00174646 0.0142312 -0.000356453 129 163 61 255 
-0.447563 0.630123 -0.531051 0.00174646 0.0142312 -0.000356453 129 163 61 255 
-0.607126 0.256136 -0.363698 -0.0302911 0.0276469 0.109988 117 148 56 255 
-0.307667 0.256136 -0.281226 -0.0302911 0.0276469 0.109988 117 148 56 255 
-0.364 0.623425 -0.389063 -0.0302911 0.0276469 0.109988 117 148 56 255 
-0.607126 0.256136 -0.363698 -0.0117482 0.0110434 0.0473026 117 148 56 255 
-0.364 0.623425 -0.389063 -0.0117482 0.0110434 0.0473026 117 148 56 255 
-0.483618 0.637279 -0.422006 -0.0117482 0.0110434 0.0473026 117 148 56 255 
-0.307667 0.256136 -0.281226 0.0983145 0.0251119 0.0325049 104 134 50 255 
-0.217409 0.256136 -0.554221 0.0983145 0.0251119 0.0325049 104 134 50 255 
-0.327948 0.616269 -0.498107 0.0983145 0.0251119 0.0325049 104 134 50 255 
-0.307667 0.256136 -0.281226 0.0408223 0.0100305 0.0128384 104 134 50 255 
-0.327948 0.616269 -0.498107 0.0408223 0.0100305 0.0128384 104 134 50 255 
-0.364 0.623425 -0.389063 0.0408223 0.0100305 0.0128384 104 134 50 255 
-0.217409 0.256136 -0.554221 0.0308435 0.0259198 -0.111995 117 148 56 255 
-0.51687 0.256136 -0.636693 0.0308435 0.0259198 -0.111995 117 148 56 255 
-0.447563 0.630123 -0.531051 0.0308435 0.0259198 -0.111995 117 148 56 255 
-0.217409 0.256136 -0.554221 0.0126416 0.0103537 -0.0415459 117 148 56 255 
-0.447563 0.630123 -0.531051 0.0126416 0.0103537 -0.0415459 117 148 56 255 
-0.327948 0.616269 -0.498107 0.0126416 0.0103537 -0.0415459 117 148 56 255 
-0.51687 0.256136 -0.636693 -0.10405 0.0284544 -0.0344004 104 134 50 255 
-0.607126 0.256136 -0.363698 -0.10405 0.0284544 -0.0344004 104 134 50 255 
-0.483618 0.637279 -0.422006 -0.10405 0.0284544 -0.0344004 104 134 50 255 
-0.51687 0.256136 -0.636693 -0.0400254 0.0113665 -0.0139801 104 134 50 255 
-0.483618 0.637279 -0.422006 -0.0400254 0.0113665 -0.0139801 104 134 50 255 
-0.447563 0.630123 -0.531051 -0.0400254 0.0113665 -0.0139801 104 134 50 255 
-0.586563 0.784776 -0.691314 0.0015683 0.0302686 -0.00826773 129 163 61 255 
-0.471247 0.743346 -0.821117 0.0015683 0.0302686 -0.00826773 129 163 61 255 
-0.610863 0.72181 -0.926445 0.0015683 0.0302686 -0.00826773 129 163 61 255 
-0.586563 0.784776 -0.691314 0.00156824 0.0302681 -0.00826761 129 163 61 255 
-0.610863 0.72181 -0.926445 0.00156824 0.0302681 -0.00826761 129 163 61 255 
-0.726177 0.76324 -0.796641 0.00156824 0.0302681 -0.00826761 129 163 61 255 
-0.567028 0.256136 -0.513907 0.158327 0.0575635 0.140654 117 148 56 255 
-0.278336 0.256136 -0.838873 0.158327 0.0575635 0.140654 117 148 56 255 
-0.471247 0.743346 -0.821117 0.158327 0.0575635 0.140654 117 148 56 255 
-0.567028 0.256136 -0.513907 0.075969 0.0229936 0.0601513 117 148 56 255 
-0.471247 0.743346 -0.821117 0.075969 0.0229936 0.0601513 117 148 56 255 
-0.586563 0.784776 -0.691314 0.075969 0.0229936 0.0601513 117 148 56 255 
-0.278336 0.256136 -0.838873 0.122792 0.0570746 -0.162764 104 134 50 255 
-0.627859 0.256136 -1.10256 0.122792 0.0570746 -0.162764 104 134 50 255 
-0.610863 0.72181 -0.926445 0.122792 0.0570746 -0.162764 104 134 50 255 
-0.278336 0.256136 -0.838873 0.0509345 0.022798 -0.0721768 104 134 50 255 
-0.610863 0.72181 -0.926445 0.0509345 0.022798 -0.0721768 104 134 50 255 
-0.471247 0.743346 -0.821117 0.0509345 0.022798 -0.0721768 104 134 50 255 
-0.627859 0.256136 -1.10256 -0.164791 0.0563672 -0.146398 117 148 56 255 
-0.916553 0.256135 -0.777596 -0.164791 0.0563672 -0.146398 117 148 56 255 
-0.726177 0.76324 -0.796641 -0.164791 0.0563672 -0.146398 117 148 56 255 
-0.627859 0.256136 -1.10256 -0.0531499 0.0225147 -0.0544029 117 148 56 255 
-0.726177 0.76324 -0.796641 -0.0531499 0.0225147 -0.0544029 117 148 56 255 
-0.610863 0.72181 -0.926445 -0.0531499 0.0225147 -0.0544029 117 148 56 255 
-0.916553 0.256135 -0.777596 -0.139397 0.056857 0.184773 104 134 50 255 
-0.567028 0.256136 -0.513907 -0.139397 0.056857 0.184773 104 134 50 255 
-0.586563 0.784776 -0.691314 -0.139397 0.056857 0.184773 104 134 50 255 
-0.916553 0.256135 -0.777596 -0.053822 0.0227107 0.066699 104 134 50 255 
-0.586563 0.784776 -0.691314 -0.053822 0.0227107 0.066699 104 134 50 255 
-0.726177 0.76324 -0.796641 -0.053822 0.0227107 0.066699 104 134 50 255 
3 0 1 2
3 3 4 5
3 6 7 8
3 9 10 11
3 12 13 14
3 15 16 17
3 18 19 20
3 21 22 23
3 24 25 26
3 27 28 29
3 30 31 32
3 33 34 35
3 36 37 38
3 39 40 41
3 42 43 44
3 45 46 47
3 48 49 50
3 51 52 53
3 54 55 56
3 57 58 59
3 60 61 62
3 63 64 65
3 66 67 68
3 69 70 71
3 72 73 74
3 75 76 77
3 78 79 80
3 81 82 83
3 84 85 86
3 87 88 89
3 90 91 92
3 93 94 95
3 96 97 98
3 99 100 101
3 102 103 104
3 105 106 107
3 108 109 110
3 111 112 113
3 114 115 116
3 117 118 119
3 120 121 122
3 123 124 125
3 126 127 128
3 129 130 131
3 132 133 134
3 135 136 137
3 138 139 140
3 141 142 143
3 144 145 146
3 147 148 149
3 150 151 152
3 153 154 155
3 156 157 158
3 159 160 161
3 162 163 164
3 165 166 167
3 168 169 170
3 171 172 173
3 174 175 176
3 177 178 179
3 180 181 182
3 183 184 185
3 186 187 188
3 189 190 191
3 192 193 194
3 195 196 197
3 198 199 200
3 201 202 203
3 204 205 206
3 207 208 209
3 210 211 212
3 213 214 215
3 216 217 218
3 219 220 221
3 222 223 224
3 225 226 227
3 228 229 230
3 231 232 233
3 234 235 236
3 237 238 239
3 240 241 242
3 243 244 245
3 246 247 248
3 249 250 251
3 252 253 254
3 255 256 257
3 258 259 260
3 261 262 263
3 264 265 266
3 267 268 269
3 270 271 272
3 273 274 275
3 276 277 278
3 279 280 281
3 282 283 284
3 285 286 287
3 288 289 290
3 291 292 293
3 294 295 296
3 297 298 299
3 300 301 302
3 303 304 305
3 306 307 308
3 309 310 311
3 312 313 314
3 315 316 317
3 318 319 320
3 321 322 323
3 324 325 326
3 327 328 329
3 330 331 332
3 333 334 335
3 336 337 338
3 339 340 341
3 342 343 344
3 345 346 347
3 348 349 350
3 351 352 353
3 354 355 356
3 357 358 359
3 360 361 362
3 363 364 365
3 366 367 368
3 369 370 371
3 372 373 374
3 375 376 377
3 378 379 380
3 381 382 383
3 384 385 386
3 387 388 389
3 390 391 392
3 393 394 395
3 396 397 398
3 399 400 401
3 402 403 404
3 405 406 407
3 408 409 410
3 411 412 413
3 414 415 416
3 417 418 419
3 420 421 422
3 423 424 425
3 426 427 428
3 429 430 431
3 432 433 434
3 435 436 437
3 438 439 440
3 441 442 443
3 444 445 446
3 447 448 449
3 450 451 452
3 453 454 455
3 456 457 458
3 459 460 461
3 462 463 464
3 465 466 467
3 468 469 470
3 471 472 473
3 474 475 476
3 477 478 479
3 480 481 482
3 483 484 485
3 486 487 488
3 489 490 491
3 492 493 494
3 495 496 497
3 498 499 500
3 501 502 503
3 504 505 506
3 507 508 509
3 510 511 512
3 513 514 515
3 516 517 518
3 519 520 521
3 522 523 524
3 525 526 527
3 528 529 530
3 531 532 533
3 534 535 536
3 537 538 539
3 540 541 542
3 543 544 545
3 546 547 548
3 549 550 551
3 552 553 554
3 555 556 557
3 558 559 560
3 561 562 563
3 564 565 566
3 567 568 569
3 570 571 572
3 573 574 575
3 576 577 578
3 579 580 581
3 582 583 584
3 585 586 587
