ply
format ascii 1.0
comment VCGLIB generated
element vertex 576
property float x
property float y
property float z
property float nx
property float ny
property float nz
property uchar red
property uchar green
property uchar blue
property uchar alpha
element face 192
property list uchar int vertex_indices
end_header
-1.07107 0.345301 -1.15689 -0.294793 0 0 167 71 58 255 
-1.07107 0.345301 1.10215 -0.294793 0 0 167 71 58 255 
-1.07107 0.475796 0.917885 -0.294793 0 0 167 71 58 255 
-1.07107 0.345301 -1.15689 -0.246702 0 0 167 71 58 255 
-1.07107 0.475796 0.917885 -0.246702 0 0 167 71 58 255 
-1.07107 0.475796 -0.972626 -0.246702 0 0 167 71 58 255 
-1.07107 0.345301 1.10215 -0.16427 0 0 167 71 58 255 
-1.07107 1.23679 1.10215 -0.16427 0 0 167 71 58 255 
-1.07107 1.1063 0.917885 -0.16427 0 0 167 71 58 255 
-1.07107 0.345301 1.10215 -0.11618 0 0 167 71 58 255 
-1.07107 1.1063 0.917885 -0.11618 0 0 167 71 58 255 
-1.07107 0.475796 0.917885 -0.11618 0 0 167 71 58 255 
-1.07107 1.23679 1.10215 -0.294782 0 -0 167 71 58 255 
-1.07107 1.23679 -1.15689 -0.294782 0 -0 167 71 58 255 
-1.07107 1.1063 -0.972626 -0.294782 0 -0 167 71 58 255 
-1.07107 1.23679 1.10215 -0.246693 0 0 167 71 58 255 
-1.07107 1.1063 -0.972626 -0.246693 0 0 167 71 58 255 
-1.07107 1.1063 0.917885 -0.246693 0 0 167 71 58 255 
-1.07107 1.23679 -1.15689 -0.164269 0 0 167 71 58 255 
-1.07107 0.345301 -1.15689 -0.164269 0 0 167 71 58 255 
-1.07107 0.475796 -0.972626 -0.164269 0 0 167 71 58 255 
-1.07107 1.23679 -1.15689 -0.116179 0 0 167 71 58 255 
-1.07107 0.475796 -0.972626 -0.116179 0 0 167 71 58 255 
-1.07107 1.1063 -0.972626 -0.116179 0 0 167 71 58 255 
-1.07107 1.23679 -1.15689 0 0.447755 0 204 94 74 255 
-1.07107 1.23679 1.10215 0 0.447755 0 204 94 74 255 
-0.872864 1.23679 0.917885 0 0.447755 0 204 94 74 255 
-1.07107 1.23679 -1.15689 0 0.374711 0 204 94 74 255 
-0.872864 1.23679 0.917885 0 0.374711 0 204 94 74 255 
-0.872864 1.23679 -0.972626 0 0.374711 0 204 94 74 255 
-1.07107 1.23679 1.10215 -0 0.394721 0 204 94 74 255 
1.07107 1.23679 1.10215 -0 0.394721 0 204 94 74 255 
0.872864 1.23679 0.917885 -0 0.394721 0 204 94 74 255 
-1.07107 1.23679 1.10215 0 0.321676 0 204 94 74 255 
0.872864 1.23679 0.917885 0 0.321676 0 204 94 74 255 
-0.872864 1.23679 0.917885 0 0.321676 0 204 94 74 255 
1.07107 1.23679 1.10215 0 0.447755 0 204 94 74 255 
1.07107 1.23679 -1.15689 0 0.447755 0 204 94 74 255 
0.872864 1.23679 -0.972626 0 0.447755 0 204 94 74 255 
1.07107 1.23679 1.10215 0 0.374711 0 204 94 74 255 
0.872864 1.23679 -0.972626 0 0.374711 0 204 94 74 255 
0.872864 1.23679 0.917885 0 0.374711 0 204 94 74 255 
1.07107 1.23679 -1.15689 0 0.394719 0 204 94 74 255 
-1.07107 1.23679 -1.15689 0 0.394719 0 204 94 74 255 
-0.872864 1.23679 -0.972626 0 0.394719 0 204 94 74 255 
1.07107 1.23679 -1.15689 0 0.321675 0 204 94 74 255 
-0.872864 1.23679 -0.972626 0 0.321675 0 204 94 74 255 
0.872864 1.23679 -0.972626 0 0.321675 0 204 94 74 255 
1.07107 1.23679 -1.15689 0.294782 0 -0 167 71 58 255 
1.07107 1.23679 1.10215 0.294782 0 -0 167 71 58 255 
1.07107 1.1063 0.917885 0.294782 0 -0 167 71 58 255 
1.07107 1.23679 -1.15689 0.246693 0 0 167 71 58 255 
1.07107 1.1063 0.917885 0.246693 0 0 167 71 58 255 
1.07107 1.1063 -0.972626 0.246693 0 0 167 71 58 255 
1.07107 1.23679 1.10215 0.16427 0 0 167 71 58 255 
1.07107 0.345301 1.10215 0.16427 0 0 167 71 58 255 
1.07107 0.475796 0.917885 0.16427 0 0 167 71 58 255 
1.07107 1.23679 1.10215 0.11618 0 0 167 71 58 255 
1.07107 0.475796 0.917885 0.11618 0 0 167 71 58 255 
1.07107 1.1063 0.917885 0.11618 0 0 167 71 58 255 
1.07107 0.345301 1.10215 0.294793 0 0 167 71 58 255 
1.07107 0.345301 -1.15689 0.294793 0 0 167 71 58 255 
1.07107 0.475796 -0.972626 0.294793 0 0 167 71 58 255 
1.07107 0.345301 1.10215 0.246702 0 0 167 71 58 255 
1.07107 0.475796 -0.972626 0.246702 0 0 167 71 58 255 
1.07107 0.475796 0.917885 0.246702 0 0 167 71 58 255 
1.07107 0.345301 -1.15689 0.164269 0 0 167 71 58 255 
1.07107 1.23679 -1.15689 0.164269 0 0 167 71 58 255 
1.07107 1.1063 -0.972626 0.164269 0 0 167 71 58 255 
1.07107 0.345301 -1.15689 0.116179 0 0 167 71 58 255 
1.07107 1.1063 -0.972626 0.116179 0 0 167 71 58 255 
1.07107 0.475796 -0.972626 0.116179 0 0 167 71 58 255 
1.07107 0.345301 -1.15689 0 -0.447755 0 152 65 53 255 
1.07107 0.345301 1.10215 0 -0.447755 0 152 65 53 255 
0.872864 0.345301 0.917885 0 -0.447755 0 152 65 53 255 
1.07107 0.345301 -1.15689 0 -0.374711 0 152 65 53 255 
0.872864 0.345301 0.917885 0 -0.374711 0 152 65 53 255 
0.872864 0.345301 -0.972626 0 -0.374711 0 152 65 53 255 
1.07107 0.345301 1.10215 -0 -0.394721 0 152 65 53 255 
-1.07107 0.345301 1.10215 -0 -0.394721 0 152 65 53 255 
-0.872864 0.345301 0.917885 -0 -0.394721 0 152 65 53 255 
1.07107 0.345301 1.10215 0 -0.321676 0 152 65 53 255 
-0.872864 0.345301 0.917885 0 -0.321676 0 152 65 53 255 
0.872864 0.345301 0.917885 0 -0.321676 0 152 65 53 255 
-1.07107 0.345301 1.10215 0 -0.447755 0 152 65 53 255 
-1.07107 0.345301 -1.15689 0 -0.447755 0 152 65 53 255 
-0.872864 0.345301 -0.972626 0 -0.447755 0 152 65 53 255 
-1.07107 0.345301 1.10215 0 -0.374711 0 152 65 53 255 
-0.872864 0.345301 -0.972626 0 -0.374711 0 152 65 53 255 
-0.872864 0.345301 0.917885 0 -0.374711 0 152 65 53 255 
-1.07107 0.345301 -1.15689 0 -0.394719 0 152 65 53 255 
1.07107 0.345301 -1.15689 0 -0.394719 0 152 65 53 255 
0.872864 0.345301 -0.972626 0 -0.394719 0 152 65 53 255 
-1.07107 0.345301 -1.15689 0 -0.321675 0 152 65 53 255 
0.872864 0.345301 -0.972626 0 -0.321675 0 152 65 53 255 
-0.872864 0.345301 -0.972626 0 -0.321675 0 152 65 53 255 
-1.07107 0.345301 1.10215 0 0 0.279539 180 80 63 255 
1.07107 0.345301 1.10215 0 0 0.279539 180 80 63 255 
0.872864 0.475796 1.10215 0 0 0.279539 180 80 63 255 
-1.07107 0.345301 1.10215 0 0 0.227809 180 80 63 255 
0.872864 0.475796 1.10215 0 0 0.227809 180 80 63 255 
-0.872864 0.475796 1.10215 0 0 0.227809 180 80 63 255 
1.07107 0.345301 1.10215 0 -0 0.176698 180 80 63 255 
1.07107 1.23679 1.10215 0 -0 0.176698 180 80 63 255 
0.872864 1.1063 1.10215 0 -0 0.176698 180 80 63 255 
1.07107 0.345301 1.10215 0 0 0.12497 180 80 63 255 
0.872864 1.1063 1.10215 0 0 0.12497 180 80 63 255 
0.872864 0.475796 1.10215 0 0 0.12497 180 80 63 255 
1.07107 1.23679 1.10215 0 0 0.279528 180 80 63 255 
-1.07107 1.23679 1.10215 0 0 0.279528 180 80 63 255 
-0.872864 1.1063 1.10215 0 0 0.279528 180 80 63 255 
1.07107 1.23679 1.10215 0 0 0.2278 180 80 63 255 
-0.872864 1.1063 1.10215 0 0 0.2278 180 80 63 255 
0.872864 1.1063 1.10215 0 0 0.2278 180 80 63 255 
-1.07107 1.23679 1.10215 0 0 0.176698 180 80 63 255 
-1.07107 0.345301 1.10215 0 0 0.176698 180 80 63 255 
-0.872864 0.475796 1.10215 0 0 0.176698 180 80 63 255 
-1.07107 1.23679 1.10215 0 0 0.12497 180 80 63 255 
-0.872864 0.475796 1.10215 0 0 0.12497 180 80 63 255 
-0.872864 1.1063 1.10215 0 0 0.12497 180 80 63 255 
1.07107 0.345301 -1.15689 0 0 -0.279539 180 80 63 255 
-1.07107 0.345301 -1.15689 0 0 -0.279539 180 80 63 255 
-0.872864 0.475796 -1.15689 0 0 -0.279539 180 80 63 255 
1.07107 0.345301 -1.15689 0 0 -0.227809 180 80 63 255 
-0.872864 0.475796 -1.15689 0 0 -0.227809 180 80 63 255 
0.872864 0.475796 -1.15689 0 0 -0.227809 180 80 63 255 
-1.07107 0.345301 -1.15689 0 0 -0.176698 180 80 63 255 
-1.07107 1.23679 -1.15689 0 0 -0.176698 180 80 63 255 
-0.872864 1.1063 -1.15689 0 0 -0.176698 180 80 63 255 
-1.07107 0.345301 -1.15689 0 0 -0.12497 180 80 63 255 
-0.872864 1.1063 -1.15689 0 0 -0.12497 180 80 63 255 
-0.872864 0.475796 -1.15689 0 0 -0.12497 180 80 63 255 
-1.07107 1.23679 -1.15689 0 0 -0.279528 180 80 63 255 
1.07107 1.23679 -1.15689 0 0 -0.279528 180 80 63 255 
0.872864 1.1063 -1.15689 0 0 -0.279528 180 80 63 255 
-1.07107 1.23679 -1.15689 0 0 -0.2278 180 80 63 255 
0.872864 1.1063 -1.15689 0 0 -0.2278 180 80 63 255 
-0.872864 1.1063 -1.15689 0 0 -0.2278 180 80 63 255 
1.07107 1.23679 -1.15689 0 -0 -0.176698 180 80 63 255 
1.07107 0.345301 -1.15689 0 -0 -0.176698 180 80 63 255 
0.872864 0.475796 -1.15689 0 -0 -0.176698 180 80 63 255 
1.07107 1.23679 -1.15689 0 0 -0.12497 180 80 63 255 
0.872864 0.475796 -1.15689 0 0 -0.12497 180 80 63 255 
0.872864 1.1063 -1.15689 0 0 -0.12497 180 80 63 255 
-1.07107 0.475796 -0.972626 0.00592303 0.365725 -0 204 94 74 255 
-1.07107 0.475796 0.917885 0.00592303 0.365725 -0 204 94 74 255 
-0.877617 0.472663 0.9189 0.00592303 0.365725 -0 204 94 74 255 
-1.07107 0.475796 -0.972626 0.00592936 0.366116 0 204 94 74 255 
-0.877617 0.472663 0.9189 0.00592936 0.366116 0 204 94 74 255 
-0.877617 0.472663 -0.973633 0.00592936 0.366116 0 204 94 74 255 
-1.07107 0.475796 0.917885 0.000639966 0 -0.121973 180 80 63 255 
-1.07107 1.1063 0.917885 0.000639966 0 -0.121973 180 80 63 255 
-0.877617 1.10943 0.9189 0.000639966 0 -0.121973 180 80 63 255 
-1.07107 0.475796 0.917885 0.000646323 0 -0.123184 180 80 63 255 
-0.877617 1.10943 0.9189 0.000646323 0 -0.123184 180 80 63 255 
-0.877617 0.472663 0.9189 0.000646323 0 -0.123184 180 80 63 255 
-1.07107 1.1063 0.917885 0.00591722 -0.365725 0 152 65 53 255 
-1.07107 1.1063 -0.972626 0.00591722 -0.365725 0 152 65 53 255 
-0.877617 1.10943 -0.973633 0.00591722 -0.365725 0 152 65 53 255 
-1.07107 1.1063 0.917885 0.00592355 -0.366116 0 152 65 53 255 
-0.877617 1.10943 -0.973633 0.00592355 -0.366116 0 152 65 53 255 
-0.877617 1.10943 0.9189 0.00592355 -0.366116 0 152 65 53 255 
-1.07107 1.1063 -0.972626 0.00063493 0 0.121973 180 80 63 255 
-1.07107 0.475796 -0.972626 0.00063493 0 0.121973 180 80 63 255 
-0.877617 0.472663 -0.973633 0.00063493 0 0.121973 180 80 63 255 
-1.07107 1.1063 -0.972626 0.000641237 0 0.123184 180 80 63 255 
-0.877617 0.472663 -0.973633 0.000641237 0 0.123184 180 80 63 255 
-0.877617 1.10943 -0.973633 0.000641237 0 0.123184 180 80 63 255 
-0.872864 1.23679 -0.972626 0.240775 -0.00898559 0 167 71 58 255 
-0.872864 1.23679 0.917885 0.240775 -0.00898559 0 167 71 58 255 
-0.877617 1.10943 0.9189 0.240775 -0.00898559 0 167 71 58 255 
-0.872864 1.23679 -0.972626 0.241033 -0.0089952 0 167 71 58 255 
-0.877617 1.10943 0.9189 0.241033 -0.0089952 0 167 71 58 255 
-0.877617 1.10943 -0.973633 0.241033 -0.0089952 0 167 71 58 255 
-0.872864 1.23679 0.917885 0 -0.00177193 -0.222336 180 80 63 255 
0.872864 1.23679 0.917885 0 -0.00177193 -0.222336 180 80 63 255 
0.877617 1.10943 0.9189 0 -0.00177193 -0.222336 180 80 63 255 
-0.872864 1.23679 0.917885 0 -0.00178158 -0.223547 180 80 63 255 
0.877617 1.10943 0.9189 0 -0.00178158 -0.223547 180 80 63 255 
-0.877617 1.10943 0.9189 0 -0.00178158 -0.223547 180 80 63 255 
0.872864 1.23679 0.917885 -0.240775 -0.00898559 -0 167 71 58 255 
0.872864 1.23679 -0.972626 -0.240775 -0.00898559 -0 167 71 58 255 
0.877617 1.10943 -0.973633 -0.240775 -0.00898559 -0 167 71 58 255 
0.872864 1.23679 0.917885 -0.241033 -0.0089952 0 167 71 58 255 
0.877617 1.10943 -0.973633 -0.241033 -0.0089952 0 167 71 58 255 
0.877617 1.10943 0.9189 -0.241033 -0.0089952 0 167 71 58 255 
0.872864 1.23679 -0.972626 0 -0.00175798 0.222336 180 80 63 255 
-0.872864 1.23679 -0.972626 0 -0.00175798 0.222336 180 80 63 255 
-0.877617 1.10943 -0.973633 0 -0.00175798 0.222336 180 80 63 255 
0.872864 1.23679 -0.972626 0 -0.00176756 0.223547 180 80 63 255 
-0.877617 1.10943 -0.973633 0 -0.00176756 0.223547 180 80 63 255 
0.877617 1.10943 -0.973633 0 -0.00176756 0.223547 180 80 63 255 
1.07107 1.1063 -0.972626 -0.00591722 -0.365725 0 152 65 53 255 
1.07107 1.1063 0.917885 -0.00591722 -0.365725 0 152 65 53 255 
0.877617 1.10943 0.9189 -0.00591722 -0.365725 0 152 65 53 255 
1.07107 1.1063 -0.972626 -0.00592355 -0.366116 0 152 65 53 255 
0.877617 1.10943 0.9189 -0.00592355 -0.366116 0 152 65 53 255 
0.877617 1.10943 -0.973633 -0.00592355 -0.366116 0 152 65 53 255 
1.07107 1.1063 0.917885 -0.000639966 -0 -0.121973 180 80 63 255 
1.07107 0.475796 0.917885 -0.000639966 -0 -0.121973 180 80 63 255 
0.877617 0.472663 0.9189 -0.000639966 -0 -0.121973 180 80 63 255 
1.07107 1.1063 0.917885 -0.000646323 0 -0.123184 180 80 63 255 
0.877617 0.472663 0.9189 -0.000646323 0 -0.123184 180 80 63 255 
0.877617 1.10943 0.9189 -0.000646323 0 -0.123184 180 80 63 255 
1.07107 0.475796 0.917885 -0.00592303 0.365725 0 204 94 74 255 
1.07107 0.475796 -0.972626 -0.00592303 0.365725 0 204 94 74 255 
0.877617 0.472663 -0.973633 -0.00592303 0.365725 0 204 94 74 255 
1.07107 0.475796 0.917885 -0.00592936 0.366116 0 204 94 74 255 
0.877617 0.472663 -0.973633 -0.00592936 0.366116 0 204 94 74 255 
0.877617 0.472663 0.9189 -0.00592936 0.366116 0 204 94 74 255 
1.07107 0.475796 -0.972626 -0.00063493 0 0.121973 180 80 63 255 
1.07107 1.1063 -0.972626 -0.00063493 0 0.121973 180 80 63 255 
0.877617 1.10943 -0.973633 -0.00063493 0 0.121973 180 80 63 255 
1.07107 0.475796 -0.972626 -0.000641237 0 0.123184 180 80 63 255 
0.877617 1.10943 -0.973633 -0.000641237 0 0.123184 180 80 63 255 
0.877617 0.472663 -0.973633 -0.000641237 0 0.123184 180 80 63 255 
0.872864 0.345301 -0.972626 -0.240779 0.00898559 0 167 71 58 255 
0.872864 0.345301 0.917885 -0.240779 0.00898559 0 167 71 58 255 
0.877617 0.472663 0.9189 -0.240779 0.00898559 0 167 71 58 255 
0.872864 0.345301 -0.972626 -0.241037 0.0089952 0 167 71 58 255 
0.877617 0.472663 0.9189 -0.241037 0.0089952 0 167 71 58 255 
0.877617 0.472663 -0.973633 -0.241037 0.0089952 0 167 71 58 255 
0.872864 0.345301 0.917885 0 0.00177193 -0.222339 180 80 63 255 
-0.872864 0.345301 0.917885 0 0.00177193 -0.222339 180 80 63 255 
-0.877617 0.472663 0.9189 0 0.00177193 -0.222339 180 80 63 255 
0.872864 0.345301 0.917885 0 0.00178158 -0.22355 180 80 63 255 
-0.877617 0.472663 0.9189 0 0.00178158 -0.22355 180 80 63 255 
0.877617 0.472663 0.9189 0 0.00178158 -0.22355 180 80 63 255 
-0.872864 0.345301 0.917885 0.240779 0.00898559 0 167 71 58 255 
-0.872864 0.345301 -0.972626 0.240779 0.00898559 0 167 71 58 255 
-0.877617 0.472663 -0.973633 0.240779 0.00898559 0 167 71 58 255 
-0.872864 0.345301 0.917885 0.241037 0.0089952 0 167 71 58 255 
-0.877617 0.472663 -0.973633 0.241037 0.0089952 0 167 71 58 255 
-0.877617 0.472663 0.9189 0.241037 0.0089952 0 167 71 58 255 
-0.872864 0.345301 -0.972626 -0 0.00175798 0.222339 180 80 63 255 
0.872864 0.345301 -0.972626 -0 0.00175798 0.222339 180 80 63 255 
0.877617 0.472663 -0.973633 -0 0.00175798 0.222339 180 80 63 255 
-0.872864 0.345301 -0.972626 0 0.00176756 0.22355 180 80 63 255 
0.877617 0.472663 -0.973633 0 0.00176756 0.22355 180 80 63 255 
-0.877617 0.472663 -0.973633 0 0.00176756 0.22355 180 80 63 255 
-0.872864 0.475796 1.10215 0 0.319905 -0.00546942 204 94 74 255 
0.872864 0.475796 1.10215 0 0.319905 -0.00546942 204 94 74 255 
0.877617 0.472663 0.9189 0 0.319905 -0.00546942 204 94 74 255 
-0.872864 0.475796 1.10215 0 0.321647 -0.0054992 204 94 74 255 
0.877617 0.472663 0.9189 0 0.321647 -0.0054992 204 94 74 255 
-0.877617 0.472663 0.9189 0 0.321647 -0.0054992 204 94 74 255 
0.872864 0.475796 1.10215 -0.11554 0 -0.00299678 180 80 63 255 
0.872864 1.1063 1.10215 -0.11554 0 -0.00299678 180 80 63 255 
0.877617 1.10943 0.9189 -0.11554 0 -0.00299678 180 80 63 255 
0.872864 0.475796 1.10215 -0.116688 0 -0.00302655 180 80 63 255 
0.877617 1.10943 0.9189 -0.116688 0 -0.00302655 180 80 63 255 
0.877617 0.472663 0.9189 -0.116688 0 -0.00302655 180 80 63 255 
0.872864 1.1063 1.10215 -0 -0.319905 -0.00546406 152 65 53 255 
-0.872864 1.1063 1.10215 -0 -0.319905 -0.00546406 152 65 53 255 
-0.877617 1.10943 0.9189 -0 -0.319905 -0.00546406 152 65 53 255 
0.872864 1.1063 1.10215 0 -0.321647 -0.00549381 152 65 53 255 
-0.877617 1.10943 0.9189 0 -0.321647 -0.00549381 152 65 53 255 
0.877617 1.10943 0.9189 0 -0.321647 -0.00549381 152 65 53 255 
-0.872864 1.1063 1.10215 0.11554 0 -0.00299678 180 80 63 255 
-0.872864 0.475796 1.10215 0.11554 0 -0.00299678 180 80 63 255 
-0.877617 0.472663 0.9189 0.11554 0 -0.00299678 180 80 63 255 
-0.872864 1.1063 1.10215 0.116688 0 -0.00302655 180 80 63 255 
-0.877617 0.472663 0.9189 0.116688 0 -0.00302655 180 80 63 255 
-0.877617 1.10943 0.9189 0.116688 0 -0.00302655 180 80 63 255 
0.872864 0.475796 -1.15689 0 0.319917 0.00546942 204 94 74 255 
-0.872864 0.475796 -1.15689 0 0.319917 0.00546942 204 94 74 255 
-0.877617 0.472663 -0.973633 0 0.319917 0.00546942 204 94 74 255 
0.872864 0.475796 -1.15689 0 0.321659 0.0054992 204 94 74 255 
-0.877617 0.472663 -0.973633 0 0.321659 0.0054992 204 94 74 255 
0.877617 0.472663 -0.973633 0 0.321659 0.0054992 204 94 74 255 
-0.872864 0.475796 -1.15689 0.115544 -0 0.00299678 180 80 63 255 
-0.872864 1.1063 -1.15689 0.115544 -0 0.00299678 180 80 63 255 
-0.877617 1.10943 -0.973633 0.115544 -0 0.00299678 180 80 63 255 
-0.872864 0.475796 -1.15689 0.116692 0 0.00302655 180 80 63 255 
-0.877617 1.10943 -0.973633 0.116692 0 0.00302655 180 80 63 255 
-0.877617 0.472663 -0.973633 0.116692 0 0.00302655 180 80 63 255 
-0.872864 1.1063 -1.15689 0 -0.319917 0.00546406 152 65 53 255 
0.872864 1.1063 -1.15689 0 -0.319917 0.00546406 152 65 53 255 
0.877617 1.10943 -0.973633 0 -0.319917 0.00546406 152 65 53 255 
-0.872864 1.1063 -1.15689 0 -0.321659 0.00549381 152 65 53 255 
0.877617 1.10943 -0.973633 0 -0.321659 0.00549381 152 65 53 255 
-0.877617 1.10943 -0.973633 0 -0.321659 0.00549381 152 65 53 255 
0.872864 1.1063 -1.15689 -0.115544 0 0.00299678 180 80 63 255 
0.872864 0.475796 -1.15689 -0.115544 0 0.00299678 180 80 63 255 
0.877617 0.472663 -0.973633 -0.115544 0 0.00299678 180 80 63 255 
0.872864 1.1063 -1.15689 -0.116692 0 0.00302655 180 80 63 255 
0.877617 0.472663 -0.973633 -0.116692 0 0.00302655 180 80 63 255 
0.877617 1.10943 -0.973633 -0.116692 0 0.00302655 180 80 63 255 
0.90757 0.125764 1.06652 0 0 0.0285508 88 88 88 255 
1.03762 0.125764 1.06652 0 0 0.0285508 88 88 88 255 
1.03762 0.345301 1.06652 0 0 0.0285508 88 88 88 255 
0.90757 0.125764 1.06652 0 0 0.0285508 88 88 88 255 
1.03762 0.345301 1.06652 0 0 0.0285508 88 88 88 255 
0.90757 0.345301 1.06652 0 0 0.0285508 88 88 88 255 
0.90757 0.345301 1.06652 -0 0.016913 0 88 88 88 255 
1.03762 0.345301 1.06652 -0 0.016913 0 88 88 88 255 
1.03762 0.345301 0.93647 -0 0.016913 0 88 88 88 255 
0.90757 0.345301 1.06652 0 0.016913 0 88 88 88 255 
1.03762 0.345301 0.93647 0 0.016913 0 88 88 88 255 
0.90757 0.345301 0.93647 0 0.016913 0 88 88 88 255 
0.90757 0.345301 0.93647 0 0 -0.0285508 88 88 88 255 
1.03762 0.345301 0.93647 0 0 -0.0285508 88 88 88 255 
1.03762 0.125764 0.93647 0 0 -0.0285508 88 88 88 255 
0.90757 0.345301 0.93647 0 0 -0.0285508 88 88 88 255 
1.03762 0.125764 0.93647 0 0 -0.0285508 88 88 88 255 
0.90757 0.125764 0.93647 0 0 -0.0285508 88 88 88 255 
0.90757 0.125764 0.93647 0 -0.016913 0 88 88 88 255 
1.03762 0.125764 0.93647 0 -0.016913 0 88 88 88 255 
1.03762 0.125764 1.06652 0 -0.016913 0 88 88 88 255 
0.90757 0.125764 0.93647 0 -0.016913 0 88 88 88 255 
1.03762 0.125764 1.06652 0 -0.016913 0 88 88 88 255 
0.90757 0.125764 1.06652 0 -0.016913 0 88 88 88 255 
1.03762 0.125764 1.06652 0.0285508 0 0 69 69 69 255 
1.03762 0.125764 0.93647 0.0285508 0 0 69 69 69 255 
1.03762 0.345301 0.93647 0.0285508 0 0 69 69 69 255 
1.03762 0.125764 1.06652 0.0285508 -0 0 69 69 69 255 
1.03762 0.345301 0.93647 0.0285508 -0 0 69 69 69 255 
1.03762 0.345301 1.06652 0.0285508 -0 0 69 69 69 255 
0.90757 0.125764 0.93647 -0.0285508 0 0 69 69 69 255 
0.90757 0.125764 1.06652 -0.0285508 0 0 69 69 69 255 
0.90757 0.345301 1.06652 -0.0285508 0 0 69 69 69 255 
0.90757 0.125764 0.93647 -0.0285508 0 0 69 69 69 255 
0.90757 0.345301 1.06652 -0.0285508 0 0 69 69 69 255 
0.90757 0.345301 0.93647 -0.0285508 0 0 69 69 69 255 
0.933174 0 1.15689 0 0 0.0152862 35 35 35 255 
1.01202 0 1.15689 0 0 0.0152862 35 35 35 255 
1.01202 0.193874 1.15689 0 0 0.0152862 35 35 35 255 
0.933174 0 1.15689 0 0 0.0152862 35 35 35 255 
1.01202 0.193874 1.15689 0 0 0.0152862 35 35 35 255 
0.933174 0.193874 1.15689 0 0 0.0152862 35 35 35 255 
0.933174 0.193874 1.15689 -0 0.0148106 0 35 35 35 255 
1.01202 0.193874 1.15689 -0 0.0148106 0 35 35 35 255 
1.01202 0.193874 0.969048 -0 0.0148106 0 35 35 35 255 
0.933174 0.193874 1.15689 0 0.0148106 0 35 35 35 255 
1.01202 0.193874 0.969048 0 0.0148106 0 35 35 35 255 
0.933174 0.193874 0.969048 0 0.0148106 0 35 35 35 255 
0.933174 0.193874 0.969048 0 0 -0.0152862 35 35 35 255 
1.01202 0.193874 0.969048 0 0 -0.0152862 35 35 35 255 
1.01202 0 0.969048 0 0 -0.0152862 35 35 35 255 
0.933174 0.193874 0.969048 0 0 -0.0152862 35 35 35 255 
1.01202 0 0.969048 0 0 -0.0152862 35 35 35 255 
0.933174 0 0.969048 0 0 -0.0152862 35 35 35 255 
0.933174 0 0.969048 0 -0.0148106 0 35 35 35 255 
1.01202 0 0.969048 0 -0.0148106 0 35 35 35 255 
1.01202 0 1.15689 0 -0.0148106 0 35 35 35 255 
0.933174 0 0.969048 0 -0.0148106 0 35 35 35 255 
1.01202 0 1.15689 0 -0.0148106 0 35 35 35 255 
0.933174 0 1.15689 0 -0.0148106 0 35 35 35 255 
1.01202 0 1.15689 0.0364177 0 0 35 35 35 255 
1.01202 0 0.969048 0.0364177 0 0 35 35 35 255 
1.01202 0.193874 0.969048 0.0364177 0 0 35 35 35 255 
1.01202 0 1.15689 0.0364177 -0 0 35 35 35 255 
1.01202 0.193874 0.969048 0.0364177 -0 0 35 35 35 255 
1.01202 0.193874 1.15689 0.0364177 -0 0 35 35 35 255 
0.933174 0 0.969048 -0.0364177 0 0 35 35 35 255 
0.933174 0 1.15689 -0.0364177 0 0 35 35 35 255 
0.933174 0.193874 1.15689 -0.0364177 0 0 35 35 35 255 
0.933174 0 0.969048 -0.0364177 0 0 35 35 35 255 
0.933174 0.193874 1.15689 -0.0364177 0 0 35 35 35 255 
0.933174 0.193874 0.969048 -0.0364177 0 0 35 35 35 255 
-1.03561 0.125764 1.06652 0 0 0.0285525 88 88 88 255 
-0.905552 0.125764 1.06652 0 0 0.0285525 88 88 88 255 
-0.905552 0.345301 1.06652 0 0 0.0285525 88 88 88 255 
-1.03561 0.125764 1.06652 0 0 0.0285525 88 88 88 255 
-0.905552 0.345301 1.06652 0 0 0.0285525 88 88 88 255 
-1.03561 0.345301 1.06652 0 0 0.0285525 88 88 88 255 
-1.03561 0.345301 1.06652 -0 0.016914 0 88 88 88 255 
-0.905552 0.345301 1.06652 -0 0.016914 0 88 88 88 255 
-0.905552 0.345301 0.93647 -0 0.016914 0 88 88 88 255 
-1.03561 0.345301 1.06652 0 0.016914 0 88 88 88 255 
-0.905552 0.345301 0.93647 0 0.016914 0 88 88 88 255 
-1.03561 0.345301 0.93647 0 0.016914 0 88 88 88 255 
-1.03561 0.345301 0.93647 0 0 -0.0285525 88 88 88 255 
-0.905552 0.345301 0.93647 0 0 -0.0285525 88 88 88 255 
-0.905552 0.125764 0.93647 0 0 -0.0285525 88 88 88 255 
-1.03561 0.345301 0.93647 0 0 -0.0285525 88 88 88 255 
-0.905552 0.125764 0.93647 0 0 -0.0285525 88 88 88 255 
-1.03561 0.125764 0.93647 0 0 -0.0285525 88 88 88 255 
-1.03561 0.125764 0.93647 0 -0.016914 0 88 88 88 255 
-0.905552 0.125764 0.93647 0 -0.016914 0 88 88 88 255 
-0.905552 0.125764 1.06652 0 -0.016914 0 88 88 88 255 
-1.03561 0.125764 0.93647 0 -0.016914 0 88 88 88 255 
-0.905552 0.125764 1.06652 0 -0.016914 0 88 88 88 255 
-1.03561 0.125764 1.06652 0 -0.016914 0 88 88 88 255 
-0.905552 0.125764 1.06652 0.0285508 0 0 69 69 69 255 
-0.905552 0.125764 0.93647 0.0285508 0 0 69 69 69 255 
-0.905552 0.345301 0.93647 0.0285508 0 0 69 69 69 255 
-0.905552 0.125764 1.06652 0.0285508 -0 0 69 69 69 255 
-0.905552 0.345301 0.93647 0.0285508 -0 0 69 69 69 255 
-0.905552 0.345301 1.06652 0.0285508 -0 0 69 69 69 255 
-1.03561 0.125764 0.93647 -0.0285508 0 0 69 69 69 255 
-1.03561 0.125764 1.06652 -0.0285508 0 0 69 69 69 255 
-1.03561 0.345301 1.06652 -0.0285508 0 0 69 69 69 255 
-1.03561 0.125764 0.93647 -0.0285508 0 0 69 69 69 255 
-1.03561 0.345301 1.06652 -0.0285508 0 0 69 69 69 255 
-1.03561 0.345301 0.93647 -0.0285508 0 0 69 69 69 255 
-1.01001 0 1.15689 0 0 0.0152877 35 35 35 255 
-0.931156 0 1.15689 0 0 0.0152877 35 35 35 255 
-0.931156 0.193874 1.15689 0 0 0.0152877 35 35 35 255 
-1.01001 0 1.15689 0 0 0.0152877 35 35 35 255 
-0.931156 0.193874 1.15689 0 0 0.0152877 35 35 35 255 
-1.01001 0.193874 1.15689 0 0 0.0152877 35 35 35 255 
-1.01001 0.193874 1.15689 -0 0.0148121 0 35 35 35 255 
-0.931156 0.193874 1.15689 -0 0.0148121 0 35 35 35 255 
-0.931156 0.193874 0.969048 -0 0.0148121 0 35 35 35 255 
-1.01001 0.193874 1.15689 0 0.0148121 0 35 35 35 255 
-0.931156 0.193874 0.969048 0 0.0148121 0 35 35 35 255 
-1.01001 0.193874 0.969048 0 0.0148121 0 35 35 35 255 
-1.01001 0.193874 0.969048 0 0 -0.0152877 35 35 35 255 
-0.931156 0.193874 0.969048 0 0 -0.0152877 35 35 35 255 
-0.931156 0 0.969048 0 0 -0.0152877 35 35 35 255 
-1.01001 0.193874 0.969048 0 0 -0.0152877 35 35 35 255 
-0.931156 0 0.969048 0 0 -0.0152877 35 35 35 255 
-1.01001 0 0.969048 0 0 -0.0152877 35 35 35 255 
-1.01001 0 0.969048 0 -0.0148121 0 35 35 35 255 
-0.931156 0 0.969048 0 -0.0148121 0 35 35 35 255 
-0.931156 0 1.15689 0 -0.0148121 0 35 35 35 255 
-1.01001 0 0.969048 0 -0.0148121 0 35 35 35 255 
-0.931156 0 1.15689 0 -0.0148121 0 35 35 35 255 
-1.01001 0 1.15689 0 -0.0148121 0 35 35 35 255 
-0.931156 0 1.15689 0.0364177 0 0 35 35 35 255 
-0.931156 0 0.969048 0.0364177 0 0 35 35 35 255 
-0.931156 0.193874 0.969048 0.0364177 0 0 35 35 35 255 
-0.931156 0 1.15689 0.0364177 -0 0 35 35 35 255 
-0.931156 0.193874 0.969048 0.0364177 -0 0 35 35 35 255 
-0.931156 0.193874 1.15689 0.0364177 -0 0 35 35 35 255 
-1.01001 0 0.969048 -0.0364177 0 0 35 35 35 255 
-1.01001 0 1.15689 -0.0364177 0 0 35 35 35 255 
-1.01001 0.193874 1.15689 -0.0364177 0 0 35 35 35 255 
-1.01001 0 0.969048 -0.0364177 0 0 35 35 35 255 
-1.01001 0.193874 1.15689 -0.0364177 0 0 35 35 35 255 
-1.01001 0.193874 0.969048 -0.0364177 0 0 35 35 35 255 
-1.03561 0.125764 -0.990677 0 0 0.0285525 88 88 88 255 
-0.905552 0.125764 -0.990677 0 0 0.0285525 88 88 88 255 
-0.905552 0.345301 -0.990677 0 0 0.0285525 88 88 88 255 
-1.03561 0.125764 -0.990677 0 0 0.0285525 88 88 88 255 
-0.905552 0.345301 -0.990677 0 0 0.0285525 88 88 88 255 
-1.03561 0.345301 -0.990677 0 0 0.0285525 88 88 88 255 
-1.03561 0.345301 -0.990677 -0 0.0169131 0 88 88 88 255 
-0.905552 0.345301 -0.990677 -0 0.0169131 0 88 88 88 255 
-0.905552 0.345301 -1.12072 -0 0.0169131 0 88 88 88 255 
-1.03561 0.345301 -0.990677 0 0.0169131 0 88 88 88 255 
-0.905552 0.345301 -1.12072 0 0.0169131 0 88 88 88 255 
-1.03561 0.345301 -1.12072 0 0.0169131 0 88 88 88 255 
-1.03561 0.345301 -1.12072 0 0 -0.0285525 88 88 88 255 
-0.905552 0.345301 -1.12072 0 0 -0.0285525 88 88 88 255 
-0.905552 0.125764 -1.12072 0 0 -0.0285525 88 88 88 255 
-1.03561 0.345301 -1.12072 0 0 -0.0285525 88 88 88 255 
-0.905552 0.125764 -1.12072 0 0 -0.0285525 88 88 88 255 
-1.03561 0.125764 -1.12072 0 0 -0.0285525 88 88 88 255 
-1.03561 0.125764 -1.12072 0 -0.0169131 0 88 88 88 255 
-0.905552 0.125764 -1.12072 0 -0.0169131 0 88 88 88 255 
-0.905552 0.125764 -0.990677 0 -0.0169131 0 88 88 88 255 
-1.03561 0.125764 -1.12072 0 -0.0169131 0 88 88 88 255 
-0.905552 0.125764 -0.990677 0 -0.0169131 0 88 88 88 255 
-1.03561 0.125764 -0.990677 0 -0.0169131 0 88 88 88 255 
-0.905552 0.125764 -0.990677 0.0285493 0 0 69 69 69 255 
-0.905552 0.125764 -1.12072 0.0285493 0 0 69 69 69 255 
-0.905552 0.345301 -1.12072 0.0285493 0 0 69 69 69 255 
-0.905552 0.125764 -0.990677 0.0285493 -0 0 69 69 69 255 
-0.905552 0.345301 -1.12072 0.0285493 -0 0 69 69 69 255 
-0.905552 0.345301 -0.990677 0.0285493 -0 0 69 69 69 255 
-1.03561 0.125764 -1.12072 -0.0285493 0 0 69 69 69 255 
-1.03561 0.125764 -0.990677 -0.0285493 0 0 69 69 69 255 
-1.03561 0.345301 -0.990677 -0.0285493 0 0 69 69 69 255 
-1.03561 0.125764 -1.12072 -0.0285493 0 0 69 69 69 255 
-1.03561 0.345301 -0.990677 -0.0285493 0 0 69 69 69 255 
-1.03561 0.345301 -1.12072 -0.0285493 0 0 69 69 69 255 
-1.01001 0 -0.900299 0 0 0.0152877 35 35 35 255 
-0.931156 0 -0.900299 0 0 0.0152877 35 35 35 255 
-0.931156 0.193874 -0.900299 0 0 0.0152877 35 35 35 255 
-1.01001 0 -0.900299 0 0 0.0152877 35 35 35 255 
-0.931156 0.193874 -0.900299 0 0 0.0152877 35 35 35 255 
-1.01001 0.193874 -0.900299 0 0 0.0152877 35 35 35 255 
-1.01001 0.193874 -0.900299 -0 0.0148128 0 35 35 35 255 
-0.931156 0.193874 -0.900299 -0 0.0148128 0 35 35 35 255 
-0.931156 0.193874 -1.08815 -0 0.0148128 0 35 35 35 255 
-1.01001 0.193874 -0.900299 0 0.0148128 0 35 35 35 255 
-0.931156 0.193874 -1.08815 0 0.0148128 0 35 35 35 255 
-1.01001 0.193874 -1.08815 0 0.0148128 0 35 35 35 255 
-1.01001 0.193874 -1.08815 0 0 -0.0152877 35 35 35 255 
-0.931156 0.193874 -1.08815 0 0 -0.0152877 35 35 35 255 
-0.931156 0 -1.08815 0 0 -0.0152877 35 35 35 255 
-1.01001 0.193874 -1.08815 0 0 -0.0152877 35 35 35 255 
-0.931156 0 -1.08815 0 0 -0.0152877 35 35 35 255 
-1.01001 0 -1.08815 0 0 -0.0152877 35 35 35 255 
-1.01001 0 -1.08815 0 -0.0148128 0 35 35 35 255 
-0.931156 0 -1.08815 0 -0.0148128 0 35 35 35 255 
-0.931156 0 -0.900299 0 -0.0148128 0 35 35 35 255 
-1.01001 0 -1.08815 0 -0.0148128 0 35 35 35 255 
-0.931156 0 -0.900299 0 -0.0148128 0 35 35 35 255 
-1.01001 0 -0.900299 0 -0.0148128 0 35 35 35 255 
-0.931156 0 -0.900299 0.0364194 0 0 35 35 35 255 
-0.931156 0 -1.08815 0.0364194 0 0 35 35 35 255 
-0.931156 0.193874 -1.08815 0.0364194 0 0 35 35 35 255 
-0.931156 0 -0.900299 0.0364194 -0 0 35 35 35 255 
-0.931156 0.193874 -1.08815 0.0364194 -0 0 35 35 35 255 
-0.931156 0.193874 -0.900299 0.0364194 -0 0 35 35 35 255 
-1.01001 0 -1.08815 -0.0364194 0 0 35 35 35 255 
-1.01001 0 -0.900299 -0.0364194 0 0 35 35 35 255 
-1.01001 0.193874 -0.900299 -0.0364194 0 0 35 35 35 255 
-1.01001 0 -1.08815 -0.0364194 0 0 35 35 35 255 
-1.01001 0.193874 -0.900299 -0.0364194 0 0 35 35 35 255 
-1.01001 0.193874 -1.08815 -0.0364194 0 0 35 35 35 255 
0.90757 0.125764 -0.990677 0 0 0.0285508 88 88 88 255 
1.03762 0.125764 -0.990677 0 0 0.0285508 88 88 88 255 
1.03762 0.345301 -0.990677 0 0 0.0285508 88 88 88 255 
0.90757 0.125764 -0.990677 0 0 0.0285508 88 88 88 255 
1.03762 0.345301 -0.990677 0 0 0.0285508 88 88 88 255 
0.90757 0.345301 -0.990677 0 0 0.0285508 88 88 88 255 
0.90757 0.345301 -0.990677 -0 0.0169121 0 88 88 88 255 
1.03762 0.345301 -0.990677 -0 0.0169121 0 88 88 88 255 
1.03762 0.345301 -1.12072 -0 0.0169121 0 88 88 88 255 
0.90757 0.345301 -0.990677 0 0.0169121 0 88 88 88 255 
1.03762 0.345301 -1.12072 0 0.0169121 0 88 88 88 255 
0.90757 0.345301 -1.12072 0 0.0169121 0 88 88 88 255 
0.90757 0.345301 -1.12072 0 0 -0.0285508 88 88 88 255 
1.03762 0.345301 -1.12072 0 0 -0.0285508 88 88 88 255 
1.03762 0.125764 -1.12072 0 0 -0.0285508 88 88 88 255 
0.90757 0.345301 -1.12072 0 0 -0.0285508 88 88 88 255 
1.03762 0.125764 -1.12072 0 0 -0.0285508 88 88 88 255 
0.90757 0.125764 -1.12072 0 0 -0.0285508 88 88 88 255 
0.90757 0.125764 -1.12072 0 -0.0169121 0 88 88 88 255 
1.03762 0.125764 -1.12072 0 -0.0169121 0 88 88 88 255 
1.03762 0.125764 -0.990677 0 -0.0169121 0 88 88 88 255 
0.90757 0.125764 -1.12072 0 -0.0169121 0 88 88 88 255 
1.03762 0.125764 -0.990677 0 -0.0169121 0 88 88 88 255 
0.90757 0.125764 -0.990677 0 -0.0169121 0 88 88 88 255 
1.03762 0.125764 -0.990677 0.0285493 0 0 69 69 69 255 
1.03762 0.125764 -1.12072 0.0285493 0 0 69 69 69 255 
1.03762 0.345301 -1.12072 0.0285493 0 0 69 69 69 255 
1.03762 0.125764 -0.990677 0.0285493 -0 0 69 69 69 255 
1.03762 0.345301 -1.12072 0.0285493 -0 0 69 69 69 255 
1.03762 0.345301 -0.990677 0.0285493 -0 0 69 69 69 255 
0.90757 0.125764 -1.12072 -0.0285493 0 0 69 69 69 255 
0.90757 0.125764 -0.990677 -0.0285493 0 0 69 69 69 255 
0.90757 0.345301 -0.990677 -0.0285493 0 0 69 69 69 255 
0.90757 0.125764 -1.12072 -0.0285493 0 0 69 69 69 255 
0.90757 0.345301 -0.990677 -0.0285493 0 0 69 69 69 255 
0.90757 0.345301 -1.12072 -0.0285493 0 0 69 69 69 255 
0.933174 0 -0.900299 0 0 0.0152862 35 35 35 255 
1.01202 0 -0.900299 0 0 0.0152862 35 35 35 255 
1.01202 0.193874 -0.900299 0 0 0.0152862 35 35 35 255 
0.933174 0 -0.900299 0 0 0.0152862 35 35 35 255 
1.01202 0.193874 -0.900299 0 0 0.0152862 35 35 35 255 
0.933174 0.193874 -0.900299 0 0 0.0152862 35 35 35 255 
0.933174 0.193874 -0.900299 -0 0.0148113 0 35 35 35 255 
1.01202 0.193874 -0.900299 -0 0.0148113 0 35 35 35 255 
1.01202 0.193874 -1.08815 -0 0.0148113 0 35 35 35 255 
0.933174 0.193874 -0.900299 0 0.0148113 0 35 35 35 255 
1.01202 0.193874 -1.08815 0 0.0148113 0 35 35 35 255 
0.933174 0.193874 -1.08815 0 0.0148113 0 35 35 35 255 
0.933174 0.193874 -1.08815 0 0 -0.0152862 35 35 35 255 
1.01202 0.193874 -1.08815 0 0 -0.0152862 35 35 35 255 
1.01202 0 -1.08815 0 0 -0.0152862 35 35 35 255 
0.933174 0.193874 -1.08815 0 0 -0.0152862 35 35 35 255 
1.01202 0 -1.08815 0 0 -0.0152862 35 35 35 255 
0.933174 0 -1.08815 0 0 -0.0152862 35 35 35 255 
0.933174 0 -1.08815 0 -0.0148113 0 35 35 35 255 
1.01202 0 -1.08815 0 -0.0148113 0 35 35 35 255 
1.01202 0 -0.900299 0 -0.0148113 0 35 35 35 255 
0.933174 0 -1.08815 0 -0.0148113 0 35 35 35 255 
1.01202 0 -0.900299 0 -0.0148113 0 35 35 35 255 
0.933174 0 -0.900299 0 -0.0148113 0 35 35 35 255 
1.01202 0 -0.900299 0.0364194 0 0 35 35 35 255 
1.01202 0 -1.08815 0.0364194 0 0 35 35 35 255 
1.01202 0.193874 -1.08815 0.0364194 0 0 35 35 35 255 
1.01202 0 -0.900299 0.0364194 -0 0 35 35 35 255 
1.01202 0.193874 -1.08815 0.0364194 -0 0 35 35 35 255 
1.01202 0.193874 -0.900299 0.0364194 -0 0 35 35 35 255 
0.933174 0 -1.08815 -0.0364194 0 0 35 35 35 255 
0.933174 0 -0.900299 -0.0364194 0 0 35 35 35 255 
0.933174 0.193874 -0.900299 -0.0364194 0 0 35 35 35 255 
0.933174 0 -1.08815 -0.0364194 0 0 35 35 35 255 
0.933174 0.193874 -0.900299 -0.0364194 0 0 35 35 35 255 
0.933174 0.193874 -1.08815 -0.0364194 0 0 35 35 35 255 
3 0 1 2 
3 3 4 5 
3 6 7 8 
3 9 10 11 
3 12 13 14 
3 15 16 17 
3 18 19 20 
3 21 22 23 
3 24 25 26 
3 27 28 29 
3 30 31 32 
3 33 34 35 
3 36 37 38 
3 39 40 41 
3 42 43 44 
3 45 46 47 
3 48 49 50 
3 51 52 53 
3 54 55 56 
3 57 58 59 
3 60 61 62 
3 63 64 65 
3 66 67 68 
3 69 70 71 
3 72 73 74 
3 75 76 77 
3 78 79 80 
3 81 82 83 
3 84 85 86 
3 87 88 89 
3 90 91 92 
3 93 94 95 
3 96 97 98 
3 99 100 101 
3 102 103 104 
3 105 106 107 
3 108 109 110 
3 111 112 113 
3 114 115 116 
3 117 118 119 
3 120 121 122 
3 123 124 125 
3 126 127 128 
3 129 130 131 
3 132 133 134 
3 135 136 137 
3 138 139 140 
3 141 142 143 
3 144 145 146 
3 147 148 149 
3 150 151 152 
3 153 154 155 
3 156 157 158 
3 159 160 161 
3 162 163 164 
3 165 166 167 
3 168 169 170 
3 171 172 173 
3 174 175 176 
3 177 178 179 
3 180 181 182 
3 183 184 185 
3 186 187 188 
3 189 190 191 
3 192 193 194 
3 195 196 197 
3 198 199 200 
3 201 202 203 
3 204 205 206 
3 207 208 209 
3 210 211 212 
3 213 214 215 
3 216 217 218 
3 219 220 221 
3 222 223 224 
3 225 226 227 
3 228 229 230 
3 231 232 233 
3 234 235 236 
3 237 238 239 
3 240 241 242 
3 243 244 245 
3 246 247 248 
3 249 250 251 
3 252 253 254 
3 255 256 257 
3 258 259 260 
3 261 262 263 
3 264 265 266 
3 267 268 269 
3 270 271 272 
3 273 274 275 
3 276 277 278 
3 279 280 281 
3 282 283 284 
3 285 286 287 
3 288 289 290 
3 291 292 293 
3 294 295 296 
3 297 298 299 
3 300 301 302 
3 303 304 305 
3 306 307 308 
3 309 310 311 
3 312 313 314 
3 315 316 317 
3 318 319 320 
3 321 322 323 
3 324 325 326 
3 327 328 329 
3 330 331 332 
3 333 334 335 
3 336 337 338 
3 339 340 341 
3 342 343 344 
3 345 346 347 
3 348 349 350 
3 351 352 353 
3 354 355 356 
3 357 358 359 
3 360 361 362 
3 363 364 365 
3 366 367 368 
3 369 370 371 
3 372 373 374 
3 375 376 377 
3 378 379 380 
3 381 382 383 
3 384 385 386 
3 387 388 389 
3 390 391 392 
3 393 394 395 
3 396 397 398 
3 399 400 401 
3 402 403 404 
3 405 406 407 
3 408 409 410 
3 411 412 413 
3 414 415 416 
3 417 418 419 
3 420 421 422 
3 423 424 425 
3 426 427 428 
3 429 430 431 
3 432 433 434 
3 435 436 437 
3 438 439 440 
3 441 442 443 
3 444 445 446 
3 447 448 449 
3 450 451 452 
3 453 454 455 
3 456 457 458 
3 459 460 461 
3 462 463 464 
3 465 466 467 
3 468 469 470 
3 471 472 473 
3 474 475 476 
3 477 478 479 
3 480 481 482 
3 483 484 485 
3 486 487 488 
3 489 490 491 
3 492 493 494 
3 495 496 497 
3 498 499 500 
3 501 502 503 
3 504 505 506 
3 507 508 509 
3 510 511 512 
3 513 514 515 
3 516 517 518 
3 519 520 521 
3 522 523 524 
3 525 526 527 
3 528 529 530 
3 531 532 533 
3 534 535 536 
3 537 538 539 
3 540 541 542 
3 543 544 545 
3 546 547 548 
3 549 550 551 
3 552 553 554 
3 555 556 557 
3 558 559 560 
3 561 562 563 
3 564 565 566 
3 567 568 569 
3 570 571 572 
3 573 574 575 
