ply
format ascii 1.0
comment Feeney's Flatenator generated
comment TextureFile SpaceInteriors_Texture.png
element vertex 384
property float x
property float y
property float z
property float nx
property float ny
property float nz
property uchar red
property uchar green
property uchar blue
property uchar alpha
element face 128
property list uchar int vertex_indices
end_header
-0.339839 1.35963 -0.008012 -0 0.0739775 0.0077811 221 188 44 255 
0.340921 1.35963 -0.008012 -0 0.0739775 0.0077811 221 188 44 255 
0.340921 1.37106 -0.116681 -0 0.0739775 0.0077811 221 188 44 255 
-0.339839 1.35963 -0.008012 0 0.0739775 0.0077811 221 188 44 255 
0.340921 1.37106 -0.116681 0 0.0739775 0.0077811 221 188 44 255 
-0.339839 1.37106 -0.116681 0 0.0739775 0.0077811 221 188 44 255 
-0.135612 0.119791 -0.138324 0 -0.0295914 -0.00310999 185 151 34 255 
-0.135612 0.131212 -0.246994 0 -0.0295914 -0.00310999 185 151 34 255 
0.136693 0.131212 -0.246994 0 -0.0295914 -0.00310999 185 151 34 255 
-0.135612 0.119791 -0.138324 0 -0.0295914 -0.00310999 185 151 34 255 
0.136693 0.131212 -0.246994 0 -0.0295914 -0.00310999 185 151 34 255 
0.136693 0.119791 -0.138324 0 -0.0295914 -0.00310999 185 151 34 255 
0.340921 0.119791 -0.138324 0.136223 -0 0 198 165 37 255 
0.340921 0.131212 -0.246994 0.136223 -0 0 198 165 37 255 
0.340921 1.37106 -0.116681 0.136223 -0 0 198 165 37 255 
0.340921 0.119791 -0.138324 0.136222 0 0 198 165 37 255 
0.340921 1.37106 -0.116681 0.136222 0 0 198 165 37 255 
0.340921 1.35963 -0.008012 0.136222 0 0 198 165 37 255 
-0.339839 0.131212 -0.246994 -0.136222 0 0 198 165 37 255 
-0.339839 0.119791 -0.138324 -0.136222 0 0 198 165 37 255 
-0.339839 1.35963 -0.008012 -0.136222 0 0 198 165 37 255 
-0.339839 0.131212 -0.246994 -0.136223 0 0 198 165 37 255 
-0.339839 1.35963 -0.008012 -0.136223 0 0 198 165 37 255 
-0.339839 1.37106 -0.116681 -0.136223 0 0 198 165 37 255 
-0.339839 0.005711 -0.260185 0 -0.0221933 -0.00233268 185 151 34 255 
-0.135612 0.005711 -0.260185 0 -0.0221933 -0.00233268 185 151 34 255 
-0.135612 -0.005711 -0.151515 0 -0.0221933 -0.00233268 185 151 34 255 
-0.339839 0.005711 -0.260185 0 -0.0221933 -0.00233268 185 151 34 255 
-0.135612 -0.005711 -0.151515 0 -0.0221933 -0.00233268 185 151 34 255 
-0.339839 -0.005711 -0.151515 0 -0.0221933 -0.00233268 185 151 34 255 
0.136693 -0.005711 -0.151515 0 -0.0221935 -0.00233269 185 151 34 255 
0.136693 0.005711 -0.260185 0 -0.0221935 -0.00233269 185 151 34 255 
0.340921 0.005711 -0.260185 0 -0.0221935 -0.00233269 185 151 34 255 
0.136693 -0.005711 -0.151515 0 -0.0221935 -0.00233269 185 151 34 255 
0.340921 0.005711 -0.260185 0 -0.0221935 -0.00233269 185 151 34 255 
0.340921 -0.005711 -0.151515 0 -0.0221935 -0.00233269 185 151 34 255 
-0.339839 0.131212 -0.246994 0 0.00269396 -0.0256307 211 177 41 255 
-0.135612 0.131212 -0.246994 0 0.00269396 -0.0256307 211 177 41 255 
-0.135612 0.005711 -0.260185 0 0.00269396 -0.0256307 211 177 41 255 
-0.339839 0.131212 -0.246994 0 0.00269396 -0.0256307 211 177 41 255 
-0.135612 0.005711 -0.260185 0 0.00269396 -0.0256307 211 177 41 255 
-0.339839 0.005711 -0.260185 0 0.00269396 -0.0256307 211 177 41 255 
-0.135612 0.131212 -0.246994 0.013789 0 0 198 165 37 255 
-0.135612 0.119791 -0.138324 0.013789 0 0 198 165 37 255 
-0.135612 -0.005711 -0.151515 0.013789 0 0 198 165 37 255 
-0.135612 0.131212 -0.246994 0.0137889 0 0 198 165 37 255 
-0.135612 -0.005711 -0.151515 0.0137889 0 0 198 165 37 255 
-0.135612 0.005711 -0.260185 0.0137889 0 0 198 165 37 255 
-0.135612 0.119791 -0.138324 0 -0.00269396 0.0256309 155 122 27 255 
-0.339839 0.119791 -0.138324 0 -0.00269396 0.0256309 155 122 27 255 
-0.339839 -0.005711 -0.151515 0 -0.00269396 0.0256309 155 122 27 255 
-0.135612 0.119791 -0.138324 0 -0.00269396 0.0256309 155 122 27 255 
-0.339839 -0.005711 -0.151515 0 -0.00269396 0.0256309 155 122 27 255 
-0.135612 -0.005711 -0.151515 0 -0.00269396 0.0256309 155 122 27 255 
-0.339839 0.119791 -0.138324 -0.0137888 0 -0 198 165 37 255 
-0.339839 0.131212 -0.246994 -0.0137888 0 -0 198 165 37 255 
-0.339839 0.005711 -0.260185 -0.0137888 0 -0 198 165 37 255 
-0.339839 0.119791 -0.138324 -0.013789 0 0 198 165 37 255 
-0.339839 0.005711 -0.260185 -0.013789 0 0 198 165 37 255 
-0.339839 -0.005711 -0.151515 -0.013789 0 0 198 165 37 255 
0.136693 0.119791 -0.138324 -0.0137888 0 -0 198 165 37 255 
0.136693 0.131212 -0.246994 -0.0137888 0 -0 198 165 37 255 
0.136693 0.005711 -0.260185 -0.0137888 0 -0 198 165 37 255 
0.136693 0.119791 -0.138324 -0.013789 0 0 198 165 37 255 
0.136693 0.005711 -0.260185 -0.013789 0 0 198 165 37 255 
0.136693 -0.005711 -0.151515 -0.013789 0 0 198 165 37 255 
0.136693 0.131212 -0.246994 0 0.00269397 -0.0256308 211 177 41 255 
0.340921 0.131212 -0.246994 0 0.00269397 -0.0256308 211 177 41 255 
0.340921 0.005711 -0.260185 0 0.00269397 -0.0256308 211 177 41 255 
0.136693 0.131212 -0.246994 0 0.00269397 -0.0256308 211 177 41 255 
0.340921 0.005711 -0.260185 0 0.00269397 -0.0256308 211 177 41 255 
0.136693 0.005711 -0.260185 0 0.00269397 -0.0256308 211 177 41 255 
0.340921 0.131212 -0.246994 0.013789 0 0 198 165 37 255 
0.340921 0.119791 -0.138324 0.013789 0 0 198 165 37 255 
0.340921 -0.005711 -0.151515 0.013789 0 0 198 165 37 255 
0.340921 0.131212 -0.246994 0.0137889 0 0 198 165 37 255 
0.340921 -0.005711 -0.151515 0.0137889 0 0 198 165 37 255 
0.340921 0.005711 -0.260185 0.0137889 0 0 198 165 37 255 
0.340921 0.119791 -0.138324 0 -0.00269397 0.025631 155 122 27 255 
0.136693 0.119791 -0.138324 0 -0.00269397 0.025631 155 122 27 255 
0.136693 -0.005711 -0.151515 0 -0.00269397 0.025631 155 122 27 255 
0.340921 0.119791 -0.138324 0 -0.00269397 0.025631 155 122 27 255 
0.136693 -0.005711 -0.151515 0 -0.00269397 0.025631 155 122 27 255 
0.340921 -0.005711 -0.151515 0 -0.00269397 0.025631 155 122 27 255 
0.340921 0.119791 -0.138324 3.57628e-07 -0.0113547 0.108033 155 122 27 255 
0.340921 1.35963 -0.008012 3.57628e-07 -0.0113547 0.108033 155 122 27 255 
0.253786 1.28081 -0.016296 3.57628e-07 -0.0113547 0.108033 155 122 27 255 
0.340921 0.119791 -0.138324 -8.86619e-07 -0.00127801 0.0121588 155 122 27 255 
0.253786 1.28081 -0.016296 -8.86619e-07 -0.00127801 0.0121588 155 122 27 255 
0.253786 1.14127 -0.030963 -8.86619e-07 -0.00127801 0.0121588 155 122 27 255 
0.340921 1.35963 -0.008012 0 -0.00563942 0.0536575 211 177 41 255 
-0.339839 1.35963 -0.008012 0 -0.00563942 0.0536575 211 177 41 255 
-0.252704 1.28081 -0.016296 0 -0.00563942 0.0536575 211 177 41 255 
0.340921 1.35963 -0.008012 0 -0.00419576 0.0399215 211 177 41 255 
-0.252704 1.28081 -0.016296 0 -0.00419576 0.0399215 211 177 41 255 
0.253786 1.28081 -0.016296 0 -0.00419576 0.0399215 211 177 41 255 
-0.339839 1.35963 -0.008012 6.18398e-07 -0.0113547 0.108033 155 122 27 255 
-0.339839 0.119791 -0.138324 6.18398e-07 -0.0113547 0.108033 155 122 27 255 
-0.252704 1.14127 -0.030963 6.18398e-07 -0.0113547 0.108033 155 122 27 255 
-0.339839 1.35963 -0.008012 -1.03842e-07 -0.00127801 0.0121588 155 122 27 255 
-0.252704 1.14127 -0.030963 -1.03842e-07 -0.00127801 0.0121588 155 122 27 255 
-0.252704 1.28081 -0.016296 -1.03842e-07 -0.00127801 0.0121588 155 122 27 255 
-0.339839 1.37106 -0.116681 0 0.0056401 -0.0536643 211 177 41 255 
0.340921 1.37106 -0.116681 0 0.0056401 -0.0536643 211 177 41 255 
0.253786 1.29223 -0.124966 0 0.0056401 -0.0536643 211 177 41 255 
-0.339839 1.37106 -0.116681 0 0.00419627 -0.0399266 211 177 41 255 
0.253786 1.29223 -0.124966 0 0.00419627 -0.0399266 211 177 41 255 
-0.252704 1.29223 -0.124966 0 0.00419627 -0.0399266 211 177 41 255 
0.340921 0.131212 -0.246994 -2.49594e-07 0.0103934 -0.0988866 211 177 41 255 
0.261164 0.392437 -0.219538 -2.49594e-07 0.0103934 -0.0988866 211 177 41 255 
0.340921 1.37106 -0.116681 -2.49594e-07 0.0103934 -0.0988866 211 177 41 255 
0.261164 0.392437 -0.219538 -5.21541e-08 0.00418326 -0.0398011 211 177 41 255 
0.261164 0.891467 -0.167088 -5.21541e-08 0.00418326 -0.0398011 211 177 41 255 
0.340921 1.37106 -0.116681 -5.21541e-08 0.00418326 -0.0398011 211 177 41 255 
0.261164 0.891467 -0.167088 -2.34693e-07 0.00256171 -0.0243728 211 177 41 255 
0.253786 1.15269 -0.139632 -2.34693e-07 0.00256171 -0.0243728 211 177 41 255 
0.340921 1.37106 -0.116681 -2.34693e-07 0.00256171 -0.0243728 211 177 41 255 
0.253786 1.15269 -0.139632 -3.18978e-08 0.00127792 -0.0121588 211 177 41 255 
0.253786 1.29223 -0.124966 -3.18978e-08 0.00127792 -0.0121588 211 177 41 255 
0.340921 1.37106 -0.116681 -3.18978e-08 0.00127792 -0.0121588 211 177 41 255 
0.261164 0.891467 -0.167088 0 0.0273394 -0.260118 211 177 41 255 
0.261164 0.392437 -0.219538 0 0.0273394 -0.260118 211 177 41 255 
-0.260083 0.392437 -0.219538 0 0.0273394 -0.260118 211 177 41 255 
0.261164 0.891467 -0.167088 0 0.0273394 -0.260118 211 177 41 255 
-0.260083 0.392437 -0.219538 0 0.0273394 -0.260118 211 177 41 255 
-0.260083 0.891467 -0.167088 0 0.0273394 -0.260118 211 177 41 255 
0.253786 1.28081 -0.016296 -0 -0.0550403 -0.00578412 122 97 21 255 
-0.252704 1.28081 -0.016296 -0 -0.0550403 -0.00578412 122 97 21 255 
-0.252704 1.29223 -0.124966 -0 -0.0550403 -0.00578412 122 97 21 255 
0.253786 1.28081 -0.016296 0 -0.0550403 -0.00578412 122 97 21 255 
-0.252704 1.29223 -0.124966 0 -0.0550403 -0.00578412 122 97 21 255 
0.253786 1.29223 -0.124966 0 -0.0550403 -0.00578412 122 97 21 255 
-0.252704 1.28081 -0.016296 0.0153312 0 0 122 97 21 255 
-0.252704 1.14127 -0.030963 0.0153312 0 0 122 97 21 255 
-0.252704 1.15269 -0.139632 0.0153312 0 0 122 97 21 255 
-0.252704 1.28081 -0.016296 0.0153313 0 0 122 97 21 255 
-0.252704 1.15269 -0.139632 0.0153313 0 0 122 97 21 255 
-0.252704 1.29223 -0.124966 0.0153313 0 0 122 97 21 255 
0.253786 1.28081 -0.016296 -0.0153313 0 -0 122 97 21 255 
0.253786 1.29223 -0.124966 -0.0153313 0 -0 122 97 21 255 
0.253786 1.15269 -0.139632 -0.0153313 0 -0 122 97 21 255 
0.253786 1.28081 -0.016296 -0.0153312 0 0 122 97 21 255 
0.253786 1.15269 -0.139632 -0.0153312 0 0 122 97 21 255 
0.253786 1.14127 -0.030963 -0.0153312 0 0 122 97 21 255 
0.253786 1.14127 -0.030963 0 0.0550398 0.00578412 170 138 30 255 
0.253786 1.15269 -0.139632 0 0.0550398 0.00578412 170 138 30 255 
-0.252704 1.15269 -0.139632 0 0.0550398 0.00578412 170 138 30 255 
0.253786 1.14127 -0.030963 0 0.0550398 0.00578412 170 138 30 255 
-0.252704 1.15269 -0.139632 0 0.0550398 0.00578412 170 138 30 255 
-0.252704 1.14127 -0.030963 0 0.0550398 0.00578412 170 138 30 255 
0.253786 1.14127 -0.030963 0 -0.0543773 0.517369 155 122 27 255 
-0.252704 1.14127 -0.030963 0 -0.0543773 0.517369 155 122 27 255 
-0.339839 0.119791 -0.138324 0 -0.0543773 0.517369 155 122 27 255 
0.253786 1.14127 -0.030963 0 -0.021926 0.208614 155 122 27 255 
-0.339839 0.119791 -0.138324 0 -0.021926 0.208614 155 122 27 255 
-0.135612 0.119791 -0.138324 0 -0.021926 0.208614 155 122 27 255 
0.253786 1.14127 -0.030963 0 -0.0292349 0.278154 155 122 27 255 
-0.135612 0.119791 -0.138324 0 -0.0292349 0.278154 155 122 27 255 
0.136693 0.119791 -0.138324 0 -0.0292349 0.278154 155 122 27 255 
0.253786 1.14127 -0.030963 0 -0.0219261 0.208615 155 122 27 255 
0.136693 0.119791 -0.138324 0 -0.0219261 0.208615 155 122 27 255 
0.340921 0.119791 -0.138324 0 -0.0219261 0.208615 155 122 27 255 
0.261164 0.392437 -0.219538 0 0.00560728 -0.0533495 211 177 41 255 
0.340921 0.131212 -0.246994 0 0.00560728 -0.0533495 211 177 41 255 
0.136693 0.131212 -0.246994 0 0.00560728 -0.0533495 211 177 41 255 
0.261164 0.392437 -0.219538 0 0.00747641 -0.0711329 211 177 41 255 
0.136693 0.131212 -0.246994 0 0.00747641 -0.0711329 211 177 41 255 
-0.135612 0.131212 -0.246994 0 0.00747641 -0.0711329 211 177 41 255 
0.261164 0.392437 -0.219538 0 0.00560726 -0.0533492 211 177 41 255 
-0.135612 0.131212 -0.246994 0 0.00560726 -0.0533492 211 177 41 255 
-0.339839 0.131212 -0.246994 0 0.00560726 -0.0533492 211 177 41 255 
0.261164 0.392437 -0.219538 0 0.0143114 -0.136163 211 177 41 255 
-0.339839 0.131212 -0.246994 0 0.0143114 -0.136163 211 177 41 255 
-0.260083 0.392437 -0.219538 0 0.0143114 -0.136163 211 177 41 255 
-0.339839 0.131212 -0.246994 2.49594e-07 0.0103932 -0.0988853 211 177 41 255 
-0.339839 1.37106 -0.116681 2.49594e-07 0.0103932 -0.0988853 211 177 41 255 
-0.260083 0.392437 -0.219538 2.49594e-07 0.0103932 -0.0988853 211 177 41 255 
-0.260083 0.392437 -0.219538 5.21541e-08 0.0041832 -0.0398006 211 177 41 255 
-0.339839 1.37106 -0.116681 5.21541e-08 0.0041832 -0.0398006 211 177 41 255 
-0.260083 0.891467 -0.167088 5.21541e-08 0.0041832 -0.0398006 211 177 41 255 
-0.260083 0.891467 -0.167088 2.34693e-07 0.00256173 -0.024373 211 177 41 255 
-0.339839 1.37106 -0.116681 2.34693e-07 0.00256173 -0.024373 211 177 41 255 
-0.252704 1.15269 -0.139632 2.34693e-07 0.00256173 -0.024373 211 177 41 255 
-0.252704 1.15269 -0.139632 3.18978e-08 0.00127792 -0.0121588 211 177 41 255 
-0.339839 1.37106 -0.116681 3.18978e-08 0.00127792 -0.0121588 211 177 41 255 
-0.252704 1.29223 -0.124966 3.18978e-08 0.00127792 -0.0121588 211 177 41 255 
-0.252704 1.15269 -0.139632 0 0.0139062 -0.132307 211 177 41 255 
0.253786 1.15269 -0.139632 0 0.0139062 -0.132307 211 177 41 255 
0.261164 0.891467 -0.167088 0 0.0139062 -0.132307 211 177 41 255 
-0.252704 1.15269 -0.139632 0 0.0143114 -0.136162 211 177 41 255 
0.261164 0.891467 -0.167088 0 0.0143114 -0.136162 211 177 41 255 
-0.260083 0.891467 -0.167088 0 0.0143114 -0.136162 211 177 41 255 
-0.34038 1.37106 0.070736 0 0.0739775 -0.0077811 221 188 44 255 
0.34038 1.37106 0.070736 0 0.0739775 -0.0077811 221 188 44 255 
0.34038 1.35963 -0.037933 0 0.0739775 -0.0077811 221 188 44 255 
-0.34038 1.37106 0.070736 0 0.0739775 -0.0077811 221 188 44 255 
0.34038 1.35963 -0.037933 0 0.0739775 -0.0077811 221 188 44 255 
-0.34038 1.35963 -0.037933 0 0.0739775 -0.0077811 221 188 44 255 
-0.136152 0.131212 0.201049 0 -0.0295911 0.00310999 185 151 34 255 
-0.136152 0.119791 0.09238 0 -0.0295911 0.00310999 185 151 34 255 
0.136153 0.119791 0.09238 0 -0.0295911 0.00310999 185 151 34 255 
-0.136152 0.131212 0.201049 0 -0.0295911 0.00310999 185 151 34 255 
0.136153 0.119791 0.09238 0 -0.0295911 0.00310999 185 151 34 255 
0.136153 0.131212 0.201049 0 -0.0295911 0.00310999 185 151 34 255 
0.34038 0.131212 0.201049 0.13622 0 0 198 165 37 255 
0.34038 0.119791 0.09238 0.13622 0 0 198 165 37 255 
0.34038 1.35963 -0.037933 0.13622 0 0 198 165 37 255 
0.34038 0.131212 0.201049 0.136222 0 0 198 165 37 255 
0.34038 1.35963 -0.037933 0.136222 0 0 198 165 37 255 
0.34038 1.37106 0.070736 0.136222 0 0 198 165 37 255 
-0.34038 0.119791 0.09238 -0.136221 0 0 198 165 37 255 
-0.34038 0.131212 0.201049 -0.136221 0 0 198 165 37 255 
-0.34038 1.37106 0.070736 -0.136221 0 0 198 165 37 255 
-0.34038 0.119791 0.09238 -0.136222 0 0 198 165 37 255 
-0.34038 1.37106 0.070736 -0.136222 0 0 198 165 37 255 
-0.34038 1.35963 -0.037933 -0.136222 0 0 198 165 37 255 
-0.34038 -0.005711 0.10557 0 -0.0221935 0.00233269 185 151 34 255 
-0.136152 -0.005711 0.10557 0 -0.0221935 0.00233269 185 151 34 255 
-0.136152 0.005711 0.21424 0 -0.0221935 0.00233269 185 151 34 255 
-0.34038 -0.005711 0.10557 0 -0.0221935 0.00233269 185 151 34 255 
-0.136152 0.005711 0.21424 0 -0.0221935 0.00233269 185 151 34 255 
-0.34038 0.005711 0.21424 0 -0.0221935 0.00233269 185 151 34 255 
0.136153 0.005711 0.21424 0 -0.0221933 0.00233268 185 151 34 255 
0.136153 -0.005711 0.10557 0 -0.0221933 0.00233268 185 151 34 255 
0.34038 -0.005711 0.10557 0 -0.0221933 0.00233268 185 151 34 255 
0.136153 0.005711 0.21424 0 -0.0221933 0.00233268 185 151 34 255 
0.34038 -0.005711 0.10557 0 -0.0221933 0.00233268 185 151 34 255 
0.34038 0.005711 0.21424 0 -0.0221933 0.00233268 185 151 34 255 
-0.34038 0.119791 0.09238 0 -0.00269377 -0.025631 155 122 27 255 
-0.136152 0.119791 0.09238 0 -0.00269377 -0.025631 155 122 27 255 
-0.136152 -0.005711 0.10557 0 -0.00269377 -0.025631 155 122 27 255 
-0.34038 0.119791 0.09238 0 -0.00269377 -0.025631 155 122 27 255 
-0.136152 -0.005711 0.10557 0 -0.00269377 -0.025631 155 122 27 255 
-0.34038 -0.005711 0.10557 0 -0.00269377 -0.025631 155 122 27 255 
-0.136152 0.119791 0.09238 0.0137887 0 -0 198 165 37 255 
-0.136152 0.131212 0.201049 0.0137887 0 -0 198 165 37 255 
-0.136152 0.005711 0.21424 0.0137887 0 -0 198 165 37 255 
-0.136152 0.119791 0.09238 0.013789 0 0 198 165 37 255 
-0.136152 0.005711 0.21424 0.013789 0 0 198 165 37 255 
-0.136152 -0.005711 0.10557 0.013789 0 0 198 165 37 255 
-0.136152 0.131212 0.201049 0 0.00269397 0.0256308 211 177 41 255 
-0.34038 0.131212 0.201049 0 0.00269397 0.0256308 211 177 41 255 
-0.34038 0.005711 0.21424 0 0.00269397 0.0256308 211 177 41 255 
-0.136152 0.131212 0.201049 0 0.00269397 0.0256308 211 177 41 255 
-0.34038 0.005711 0.21424 0 0.00269397 0.0256308 211 177 41 255 
-0.136152 0.005711 0.21424 0 0.00269397 0.0256308 211 177 41 255 
-0.34038 0.131212 0.201049 -0.0137888 0 0 198 165 37 255 
-0.34038 0.119791 0.09238 -0.0137888 0 0 198 165 37 255 
-0.34038 -0.005711 0.10557 -0.0137888 0 0 198 165 37 255 
-0.34038 0.131212 0.201049 -0.0137889 -0 0 198 165 37 255 
-0.34038 -0.005711 0.10557 -0.0137889 -0 0 198 165 37 255 
-0.34038 0.005711 0.21424 -0.0137889 -0 0 198 165 37 255 
0.136153 0.131212 0.201049 -0.0137888 0 0 198 165 37 255 
0.136153 0.119791 0.09238 -0.0137888 0 0 198 165 37 255 
0.136153 -0.005711 0.10557 -0.0137888 0 0 198 165 37 255 
0.136153 0.131212 0.201049 -0.0137889 -0 0 198 165 37 255 
0.136153 -0.005711 0.10557 -0.0137889 -0 0 198 165 37 255 
0.136153 0.005711 0.21424 -0.0137889 -0 0 198 165 37 255 
0.136153 0.119791 0.09238 0 -0.00269375 -0.0256309 155 122 27 255 
0.34038 0.119791 0.09238 0 -0.00269375 -0.0256309 155 122 27 255 
0.34038 -0.005711 0.10557 0 -0.00269375 -0.0256309 155 122 27 255 
0.136153 0.119791 0.09238 0 -0.00269375 -0.0256309 155 122 27 255 
0.34038 -0.005711 0.10557 0 -0.00269375 -0.0256309 155 122 27 255 
0.136153 -0.005711 0.10557 0 -0.00269375 -0.0256309 155 122 27 255 
0.34038 0.119791 0.09238 0.0137887 0 -0 198 165 37 255 
0.34038 0.131212 0.201049 0.0137887 0 -0 198 165 37 255 
0.34038 0.005711 0.21424 0.0137887 0 -0 198 165 37 255 
0.34038 0.119791 0.09238 0.013789 0 0 198 165 37 255 
0.34038 0.005711 0.21424 0.013789 0 0 198 165 37 255 
0.34038 -0.005711 0.10557 0.013789 0 0 198 165 37 255 
0.34038 0.131212 0.201049 0 0.00269396 0.0256307 211 177 41 255 
0.136153 0.131212 0.201049 0 0.00269396 0.0256307 211 177 41 255 
0.136153 0.005711 0.21424 0 0.00269396 0.0256307 211 177 41 255 
0.34038 0.131212 0.201049 0 0.00269396 0.0256307 211 177 41 255 
0.136153 0.005711 0.21424 0 0.00269396 0.0256307 211 177 41 255 
0.34038 0.005711 0.21424 0 0.00269396 0.0256307 211 177 41 255 
-0.260623 0.891467 0.121143 0 0.0273394 0.260118 211 177 41 255 
-0.260623 0.392437 0.173593 0 0.0273394 0.260118 211 177 41 255 
0.260624 0.392437 0.173593 0 0.0273394 0.260118 211 177 41 255 
-0.260623 0.891467 0.121143 -0 0.0273394 0.260118 211 177 41 255 
0.260624 0.392437 0.173593 -0 0.0273394 0.260118 211 177 41 255 
0.260624 0.891467 0.121143 -0 0.0273394 0.260118 211 177 41 255 
0.34038 1.37106 0.070736 0 0.0056401 0.0536643 211 177 41 255 
-0.34038 1.37106 0.070736 0 0.0056401 0.0536643 211 177 41 255 
-0.253245 1.29223 0.079021 0 0.0056401 0.0536643 211 177 41 255 
0.34038 1.37106 0.070736 0 0.00419627 0.0399266 211 177 41 255 
-0.253245 1.29223 0.079021 0 0.00419627 0.0399266 211 177 41 255 
0.253245 1.29223 0.079021 0 0.00419627 0.0399266 211 177 41 255 
-0.34038 0.131212 0.201049 2.49594e-07 0.0103934 0.0988866 211 177 41 255 
-0.260623 0.392437 0.173593 2.49594e-07 0.0103934 0.0988866 211 177 41 255 
-0.34038 1.37106 0.070736 2.49594e-07 0.0103934 0.0988866 211 177 41 255 
-0.260623 0.392437 0.173593 5.21541e-08 0.00418326 0.0398011 211 177 41 255 
-0.260623 0.891467 0.121143 5.21541e-08 0.00418326 0.0398011 211 177 41 255 
-0.34038 1.37106 0.070736 5.21541e-08 0.00418326 0.0398011 211 177 41 255 
-0.260623 0.891467 0.121143 2.34693e-07 0.00256171 0.0243728 211 177 41 255 
-0.253245 1.15269 0.093687 2.34693e-07 0.00256171 0.0243728 211 177 41 255 
-0.34038 1.37106 0.070736 2.34693e-07 0.00256171 0.0243728 211 177 41 255 
-0.253245 1.15269 0.093687 3.18978e-08 0.00127792 0.0121588 211 177 41 255 
-0.253245 1.29223 0.079021 3.18978e-08 0.00127792 0.0121588 211 177 41 255 
-0.34038 1.37106 0.070736 3.18978e-08 0.00127792 0.0121588 211 177 41 255 
-0.34038 1.35963 -0.037933 0 -0.00563942 -0.0536575 211 177 41 255 
0.34038 1.35963 -0.037933 0 -0.00563942 -0.0536575 211 177 41 255 
0.253245 1.28081 -0.029649 0 -0.00563942 -0.0536575 211 177 41 255 
-0.34038 1.35963 -0.037933 0 -0.00419576 -0.0399215 211 177 41 255 
0.253245 1.28081 -0.029649 0 -0.00419576 -0.0399215 211 177 41 255 
-0.253245 1.28081 -0.029649 0 -0.00419576 -0.0399215 211 177 41 255 
0.34038 1.35963 -0.037933 -4.00469e-07 -0.0113548 -0.108033 155 122 27 255 
0.34038 0.119791 0.09238 -4.00469e-07 -0.0113548 -0.108033 155 122 27 255 
0.253245 1.14127 -0.014982 -4.00469e-07 -0.0113548 -0.108033 155 122 27 255 
0.34038 1.35963 -0.037933 1.04075e-07 -0.00127801 -0.0121588 155 122 27 255 
0.253245 1.14127 -0.014982 1.04075e-07 -0.00127801 -0.0121588 155 122 27 255 
0.253245 1.28081 -0.029649 1.04075e-07 -0.00127801 -0.0121588 155 122 27 255 
-0.34038 0.119791 0.09238 -4.47035e-07 -0.0113548 -0.108033 155 122 27 255 
-0.34038 1.35963 -0.037933 -4.47035e-07 -0.0113548 -0.108033 155 122 27 255 
-0.253245 1.28081 -0.029649 -4.47035e-07 -0.0113548 -0.108033 155 122 27 255 
-0.34038 0.119791 0.09238 7.45058e-07 -0.00127801 -0.0121588 155 122 27 255 
-0.253245 1.28081 -0.029649 7.45058e-07 -0.00127801 -0.0121588 155 122 27 255 
-0.253245 1.14127 -0.014982 7.45058e-07 -0.00127801 -0.0121588 155 122 27 255 
0.253245 1.29223 0.079021 0 -0.0550403 0.00578412 122 97 21 255 
-0.253245 1.29223 0.079021 0 -0.0550403 0.00578412 122 97 21 255 
-0.253245 1.28081 -0.029649 0 -0.0550403 0.00578412 122 97 21 255 
0.253245 1.29223 0.079021 0 -0.0550403 0.00578412 122 97 21 255 
-0.253245 1.28081 -0.029649 0 -0.0550403 0.00578412 122 97 21 255 
0.253245 1.28081 -0.029649 0 -0.0550403 0.00578412 122 97 21 255 
-0.253245 1.29223 0.079021 0.0153312 0 0 122 97 21 255 
-0.253245 1.15269 0.093687 0.0153312 0 0 122 97 21 255 
-0.253245 1.14127 -0.014982 0.0153312 0 0 122 97 21 255 
-0.253245 1.29223 0.079021 0.0153313 0 0 122 97 21 255 
-0.253245 1.14127 -0.014982 0.0153313 0 0 122 97 21 255 
-0.253245 1.28081 -0.029649 0.0153313 0 0 122 97 21 255 
0.253245 1.29223 0.079021 -0.0153313 0 0 122 97 21 255 
0.253245 1.28081 -0.029649 -0.0153313 0 0 122 97 21 255 
0.253245 1.14127 -0.014982 -0.0153313 0 0 122 97 21 255 
0.253245 1.29223 0.079021 -0.0153312 -0 0 122 97 21 255 
0.253245 1.14127 -0.014982 -0.0153312 -0 0 122 97 21 255 
0.253245 1.15269 0.093687 -0.0153312 -0 0 122 97 21 255 
0.253245 1.15269 0.093687 0 0.0550398 -0.00578412 170 138 30 255 
0.253245 1.14127 -0.014982 0 0.0550398 -0.00578412 170 138 30 255 
-0.253245 1.14127 -0.014982 0 0.0550398 -0.00578412 170 138 30 255 
0.253245 1.15269 0.093687 0 0.0550398 -0.00578412 170 138 30 255 
-0.253245 1.14127 -0.014982 0 0.0550398 -0.00578412 170 138 30 255 
-0.253245 1.15269 0.093687 0 0.0550398 -0.00578412 170 138 30 255 
-0.260623 0.392437 0.173593 0 0.00560728 0.0533495 211 177 41 255 
-0.34038 0.131212 0.201049 0 0.00560728 0.0533495 211 177 41 255 
-0.136152 0.131212 0.201049 0 0.00560728 0.0533495 211 177 41 255 
-0.260623 0.392437 0.173593 0 0.00747641 0.0711329 211 177 41 255 
-0.136152 0.131212 0.201049 0 0.00747641 0.0711329 211 177 41 255 
0.136153 0.131212 0.201049 0 0.00747641 0.0711329 211 177 41 255 
-0.260623 0.392437 0.173593 0 0.00560726 0.0533492 211 177 41 255 
0.136153 0.131212 0.201049 0 0.00560726 0.0533492 211 177 41 255 
0.34038 0.131212 0.201049 0 0.00560726 0.0533492 211 177 41 255 
-0.260623 0.392437 0.173593 -0 0.0143114 0.136163 211 177 41 255 
0.34038 0.131212 0.201049 -0 0.0143114 0.136163 211 177 41 255 
0.260624 0.392437 0.173593 -0 0.0143114 0.136163 211 177 41 255 
0.34038 0.131212 0.201049 -2.49594e-07 0.0103932 0.0988853 211 177 41 255 
0.34038 1.37106 0.070736 -2.49594e-07 0.0103932 0.0988853 211 177 41 255 
0.260624 0.392437 0.173593 -2.49594e-07 0.0103932 0.0988853 211 177 41 255 
0.260624 0.392437 0.173593 -5.21541e-08 0.0041832 0.0398006 211 177 41 255 
0.34038 1.37106 0.070736 -5.21541e-08 0.0041832 0.0398006 211 177 41 255 
0.260624 0.891467 0.121143 -5.21541e-08 0.0041832 0.0398006 211 177 41 255 
0.260624 0.891467 0.121143 -2.34693e-07 0.00256173 0.024373 211 177 41 255 
0.34038 1.37106 0.070736 -2.34693e-07 0.00256173 0.024373 211 177 41 255 
0.253245 1.15269 0.093687 -2.34693e-07 0.00256173 0.024373 211 177 41 255 
0.253245 1.15269 0.093687 -3.18978e-08 0.00127792 0.0121588 211 177 41 255 
0.34038 1.37106 0.070736 -3.18978e-08 0.00127792 0.0121588 211 177 41 255 
0.253245 1.29223 0.079021 -3.18978e-08 0.00127792 0.0121588 211 177 41 255 
0.253245 1.15269 0.093687 0 0.0139062 0.132307 211 177 41 255 
-0.253245 1.15269 0.093687 0 0.0139062 0.132307 211 177 41 255 
-0.260623 0.891467 0.121143 0 0.0139062 0.132307 211 177 41 255 
0.253245 1.15269 0.093687 0 0.0143114 0.136162 211 177 41 255 
-0.260623 0.891467 0.121143 0 0.0143114 0.136162 211 177 41 255 
0.260624 0.891467 0.121143 0 0.0143114 0.136162 211 177 41 255 
0.253245 1.14127 -0.014982 0 -0.0219262 -0.208614 155 122 27 255 
0.34038 0.119791 0.09238 0 -0.0219262 -0.208614 155 122 27 255 
0.136153 0.119791 0.09238 0 -0.0219262 -0.208614 155 122 27 255 
0.253245 1.14127 -0.014982 0 -0.0292352 -0.278154 155 122 27 255 
0.136153 0.119791 0.09238 0 -0.0292352 -0.278154 155 122 27 255 
-0.136152 0.119791 0.09238 0 -0.0292352 -0.278154 155 122 27 255 
0.253245 1.14127 -0.014982 0 -0.0219263 -0.208615 155 122 27 255 
-0.136152 0.119791 0.09238 0 -0.0219263 -0.208615 155 122 27 255 
-0.34038 0.119791 0.09238 0 -0.0219263 -0.208615 155 122 27 255 
0.253245 1.14127 -0.014982 -0 -0.0543778 -0.517369 155 122 27 255 
-0.34038 0.119791 0.09238 -0 -0.0543778 -0.517369 155 122 27 255 
-0.253245 1.14127 -0.014982 -0 -0.0543778 -0.517369 155 122 27 255 
3 0 1 2
3 3 4 5
3 6 7 8
3 9 10 11
3 12 13 14
3 15 16 17
3 18 19 20
3 21 22 23
3 24 25 26
3 27 28 29
3 30 31 32
3 33 34 35
3 36 37 38
3 39 40 41
3 42 43 44
3 45 46 47
3 48 49 50
3 51 52 53
3 54 55 56
3 57 58 59
3 60 61 62
3 63 64 65
3 66 67 68
3 69 70 71
3 72 73 74
3 75 76 77
3 78 79 80
3 81 82 83
3 84 85 86
3 87 88 89
3 90 91 92
3 93 94 95
3 96 97 98
3 99 100 101
3 102 103 104
3 105 106 107
3 108 109 110
3 111 112 113
3 114 115 116
3 117 118 119
3 120 121 122
3 123 124 125
3 126 127 128
3 129 130 131
3 132 133 134
3 135 136 137
3 138 139 140
3 141 142 143
3 144 145 146
3 147 148 149
3 150 151 152
3 153 154 155
3 156 157 158
3 159 160 161
3 162 163 164
3 165 166 167
3 168 169 170
3 171 172 173
3 174 175 176
3 177 178 179
3 180 181 182
3 183 184 185
3 186 187 188
3 189 190 191
3 192 193 194
3 195 196 197
3 198 199 200
3 201 202 203
3 204 205 206
3 207 208 209
3 210 211 212
3 213 214 215
3 216 217 218
3 219 220 221
3 222 223 224
3 225 226 227
3 228 229 230
3 231 232 233
3 234 235 236
3 237 238 239
3 240 241 242
3 243 244 245
3 246 247 248
3 249 250 251
3 252 253 254
3 255 256 257
3 258 259 260
3 261 262 263
3 264 265 266
3 267 268 269
3 270 271 272
3 273 274 275
3 276 277 278
3 279 280 281
3 282 283 284
3 285 286 287
3 288 289 290
3 291 292 293
3 294 295 296
3 297 298 299
3 300 301 302
3 303 304 305
3 306 307 308
3 309 310 311
3 312 313 314
3 315 316 317
3 318 319 320
3 321 322 323
3 324 325 326
3 327 328 329
3 330 331 332
3 333 334 335
3 336 337 338
3 339 340 341
3 342 343 344
3 345 346 347
3 348 349 350
3 351 352 353
3 354 355 356
3 357 358 359
3 360 361 362
3 363 364 365
3 366 367 368
3 369 370 371
3 372 373 374
3 375 376 377
3 378 379 380
3 381 382 383
